<svg xmlns="http://www.w3.org/2000/svg" viewBox="0 0 512 512">
    <path d="M130.25 329.25c-.814 0-1.627-.021-2.446-.043l.607.011c.614.014 1.227.032 1.839.032zM263.577 74.103l.02.005-.009-.002-.011-.003zM313.659 21.38l.005.004-.002-.002zM99 341.981c-4.308 4.007-7.479 5.787-9.369 6.572 1.886-.779 5.056-2.56 9.369-6.572zM259.327 41.807c.918-.292 1.907-.59 2.958-.886-1.052.296-2.04.594-2.958.886zM271.97 55.895l.026.002-.02-.002h-.006zM447.393 57.24c-4.057-8.322-13.242-12.583-17.439-14.151 4.198 1.572 13.385 5.835 17.439 14.151zM271.931 58.894c1.609.136 3.228.356 4.846.668-1.619-.312-3.237-.532-4.846-.668zM262.376 40.895c3.481-.977 7.622-1.908 11.963-2.415-4.341.506-8.48 1.436-11.963 2.415zM157.092 397.676c-1.989-.047-3.892-.115-5.72-.202 1.828.087 3.729.156 5.72.202zM410.989 58.928c.695.678 1.35 1.391 1.954 2.14-.604-.75-1.258-1.462-1.954-2.14zM412.85 56.579l.026.025-.019-.019-.007-.006zM272.001 80.632c1.136.62 2.164 1.248 3.075 1.848-.909-.601-1.939-1.229-3.075-1.848zM102.023 289.644c-1.712-.393-3.358-.811-4.939-1.253 1.581.442 3.227.861 4.939 1.253zM96.996 288.365c-9.867-2.772-17.226-6.444-22.83-9.872 5.602 3.43 12.961 7.1 22.83 9.872z" fill="none"/>
    <path fill="#C4CEE5" d="M92 265c3-6 9-12 16-13 75-15 133-79 139-154 1-10 11-18 23-18l.825.017-.502-.245-.646-.314-.672-.299-.6-.266-.591-.239-.739-.298c-.448-.171-.906-.337-1.374-.496l-.334-.11c-.506-.167-1.023-.323-1.55-.471l-.349-.1c-.634-.171-1.28-.329-1.942-.468l-.131-.024c-.593-.122-1.199-.226-1.813-.318l-.594-.08c-.494-.065-.995-.118-1.502-.161l-.618-.051c-.696-.046-1.4-.077-2.118-.077-14.859 0-28.755 5.549-29.165 5.714-9.888 4.204-15.161 16.21-19.813 26.804-1.141 2.598-2.228 5.054-3.326 7.268 5.487-4.768 11.857-8.874 17.328-8.604 3.326.164 6.017 1.854 7.998 5.023 7.459 11.935 1.468 33.597-10.219 52.632-.071.196-.179.377-.333.534-5.065 8.154-11.161 15.807-17.69 21.969-22.379 21.122-57.891 34.123-86.329 43.09-27.719 8.74-37.726 15.166-55.891 26.831-5.449 3.5-8.377 7.326-8.703 11.373-.244 3.027 1.028 5.687 2.269 7.519.981-3.931 3.71-6.336 5.9-7.212.4-.16.831-.241 1.281-.241 2.02 0 4.174 1.554 7.743 4.129l1.038.747.291.209.912.648.3.212 1.175.818.066.046c.908.625 1.876 1.272 2.908 1.934l.097.062c.509.325 1.032.653 1.574.984l.005.004c5.604 3.428 12.963 7.1 22.83 9.872l.024.007c-5.548-6.49-8.001-15.423-5.02-23.372z"/>
    <path fill="#9EA5C1" d="M454.668 331.165c12.856 0 37.24-2.412 37.501-11.543.134-4.689-6.782-8.266-18.239-14.188-12.876-6.658-32.336-16.719-55.217-35.613-43.867-36.224-72.212-81.687-72.212-115.821 0-7.978 3.005-17.088 8.426-26.354l.076-.189c6.426-12.293 7.306-22.23 2.614-29.536-10.667-16.611-46.655-15.283-48.562-15.2-2.885.674-6.881 1.286-12.193 1.438-6.161 1.855-11.617 2.444-16.042 2.444-7.285 0-11.784-1.584-12.081-1.691-.778-.283-1.181-1.143-.898-1.922.283-.777 1.144-1.179 1.919-.899.051.018 2.467.858 6.599 1.267-.331-.237-.69-.483-1.065-.733l-.216-.142c-.911-.601-1.939-1.229-3.075-1.848l-.008-.004c-.366-.2-.744-.398-1.132-.594l-.036-.018c-.277-.011-.552-.019-.827-.019-12 0-22 8-23 18-6 75-64 139-139 154-7 1-13 7-16 13-2.981 7.949-.528 16.882 5.021 23.372l.064.019c1.581.442 3.227.86 4.939 1.253l.422.096c.516.116 1.038.229 1.566.341l.548.111c.895.184 1.809.357 2.739.525l.833.149 1.349.223 1.156.18 1.266.188c.713.101 1.436.196 2.168.287l1.071.125c.584.067 1.172.134 1.769.194l1.074.105c.647.062 1.303.118 1.965.172l.822.067c.919.069 1.854.13 2.801.183l.827.042c.747.038 1.502.071 2.266.1l.912.032c1.022.031 2.055.058 3.108.07 28.421.369 47.16-6.035 59.447-10.226 6.383-2.177 10.995-3.749 14.774-3.749 3.33 0 5.836 1.295 7.664 3.959.75 1.095 1.214 2.129 1.474 3.094 18.179-6.117 18.162-29.374 18.125-67.217l-.003-5.196c0-41.978 32.433-91.666 59.833-91.666 26.621 0 62.105 68.219 65.163 112.729 2.925 42.57 30.235 67.74 30.511 67.989l.048.065c.092.092.183.186.249.303 14.975 26.209 54.837 28.246 66.697 28.246z"/>
    <path fill="#CB8443" d="M263.597 74.108c7.618 1.887 13.31 5.748 16.197 8.064l.232.186.402.332.323.273.242.208.446.399c3.845-.045 8.476-.558 13.645-2.019-.142-4.164.261-8.365 1.1-12.5-.458-.401-.92-.784-1.384-1.157l-.421-.331c-.337-.265-.676-.522-1.016-.773l-.447-.326c-.382-.274-.767-.539-1.153-.796l-.273-.186c-.481-.315-.966-.617-1.453-.907l-.308-.178c-.389-.227-.778-.447-1.17-.658l-.423-.225c-.386-.202-.773-.397-1.161-.585l-.328-.16c-1.01-.477-2.025-.906-3.046-1.289l-.317-.116c-.423-.155-.847-.303-1.271-.443l-.292-.096c-1.052-.337-2.106-.632-3.163-.882l-.095-.021c-.497-.116-.993-.223-1.49-.321l-.196-.038c-1.618-.312-3.236-.532-4.846-.668l-.049-.004c-.543-.045-1.083-.068-1.624-.095-2.745 4.853-4.997 9.981-6.67 15.31l.009.002z"/>
    <path fill="#E5C45D" d="M257.196 73.089c.47.032.925.088 1.385.137l.889.096c.619.082 1.224.184 1.822.293l.295.052c.678.129 1.34.275 1.99.436l.011.002c1.673-5.329 3.925-10.457 6.67-15.31l-.456-.027c-.36-.015-.719-.022-1.077-.029-.442-.009-.885-.016-1.324-.014-.359.002-.717.009-1.073.019-.436.011-.869.024-1.301.045l-1.069.063c-.426.029-.849.061-1.271.099l-1.064.104c-.414.044-.826.093-1.237.146l-1.053.143c-.402.059-.803.121-1.2.186l-1.043.178c-.388.07-.771.144-1.154.22l-1.035.211-1.102.247-1.022.241-1.051.269-1.004.267-.993.284-.987.29-.938.295-.956.307-.89.304-.917.318-.841.309-.872.324-.799.313-.81.32-.81.336-.692.289c-.479.205-.943.408-1.384.606l-.047.021c-.927.417-1.767.815-2.511 1.181l-.067.033c-.485.239-.93.465-1.329.672l-.058.03-.489.257-.094.05-.451.242-.016.009-.398.219-.088.049-.243.137-.081.046-.236.135c-1.831 3.009-3.489 6.074-4.933 9.183 5.177-1.744 15.672-4.722 26.958-4.722.831 0 1.646.033 2.446.089z"/>
    <path fill="#CB8443" d="M271.977 55.896l.02.002c1.497.119 3.001.308 4.509.569l.393.069c.446.081.893.167 1.339.262l.438.099c.743.166 1.484.351 2.226.556l.736.205c.347.103.693.212 1.04.324.309.099.617.203.925.31.313.109.627.216.939.333.575.214 1.148.439 1.721.68l.669.298c.425.188.848.381 1.27.584l.727.359c.465.234.928.48 1.39.735l.498.271c.614.35 1.226.72 1.833 1.107l.512.336c.473.31.943.632 1.411.966l.544.391c.615.453 1.227.919 1.833 1.415 1.531-5.927 3.886-11.648 6.698-16.844-.35-.572-.725-1.106-1.109-1.625l-.268-.355c-.382-.493-.777-.967-1.189-1.412l-.205-.208c-.365-.383-.743-.746-1.13-1.093l-.337-.302c-.43-.369-.87-.717-1.322-1.045l-.414-.286c-.36-.248-.727-.483-1.1-.708l-.447-.271c-.447-.256-.906-.492-1.37-.716l-.642-.295c-.324-.145-.652-.281-.983-.412-.342-.135-.687-.263-1.035-.383-.306-.105-.613-.208-.923-.304-.291-.089-.583-.174-.877-.253l-.733-.185c-.526-.128-1.058-.243-1.593-.344l-.565-.104c-.359-.061-.72-.12-1.083-.17h-.002c-5.515 5.143-10.36 11.026-14.344 17.444z"/>
    <path fill="#E5C45D" d="M237.728 62.675l1.088-.477.424-.182c.441-.187.896-.375 1.364-.565l.222-.09c1.153-.463 2.389-.929 3.694-1.386l.205-.071c.618-.215 1.25-.426 1.898-.634l.116-.038c7.14-2.284 16.021-4.069 25.231-3.338h.007c3.984-6.418 8.829-12.3 14.34-17.442l-.019-.002c-.846-.117-1.7-.2-2.56-.26l-.335-.023c-1.334-.082-2.679-.099-4.021-.063l-.118.002c-1.656.049-3.304.183-4.926.372-4.341.506-8.481 1.438-11.963 2.415l-.091.026c-1.051.296-2.04.595-2.958.886l-.202.064c-.856.274-1.645.541-2.357.791l-.29.102-.589.21-.386.142-.701.262-.387.147-.313.121-.509.201-.165.066-.354.144-.112.046-.286.12c-6.249 5.869-11.894 12.36-16.641 19.228.411-.194.849-.396 1.302-.601l.392-.173z"/>
    <path fill="#54628D" d="M204.907 281.859c-3.282 0-7.926 1.584-13.806 3.589-12.479 4.255-31.51 10.757-60.453 10.386-38.754-.481-57.564-14.051-66.604-20.572-2.649-1.911-4.937-3.562-5.987-3.562l-.167.026c-1.772.709-3.783 2.802-4.281 5.88-.792 4.895 2.414 10.665 9.025 16.247 10.848 9.16 45.593 10.149 60.028 10.149 6.147 0 10.234-.166 10.275-.168 65.457-.001 76.134-10.621 77.849-13.876.89-1.688.664-3.469-.69-5.443-1.276-1.861-2.828-2.656-5.189-2.656z"/>
    <path fill="#E6EDF6" d="M215.891 161.89c10.924-18.45 15.498-38.238 9.337-48.095-1.45-2.319-3.282-3.502-5.602-3.617-8.141-.4-20.433 12.304-26.173 19.222-3.271 4.139-7.025 8.475-11.049 13.119-2.5 2.885-5.063 5.845-7.663 8.932 8.54-1.689 27.345-3.335 41.15 10.439z"/>
    <path fill="#E5C45D" d="M260.683 38.197l1.033-.3.477-.134 1.184-.32.352-.093c1.072-.278 2.192-.545 3.348-.796l.322-.068c.488-.104.983-.204 1.484-.3l.322-.062c.591-.111 1.187-.217 1.791-.316h.003c1.277-.208 2.583-.384 3.905-.522l.177-.018c.609-.062 1.222-.115 1.837-.158l.151-.011c2.005-.137 4.033-.17 6.054-.069l.144.008c.642.034 1.282.082 1.92.145l.085.008c1.355.136 2.7.338 4.022.62 6.332-5.384 13.413-9.823 20.959-13.057l-.005-.003c-.372-.225-.753-.433-1.137-.632l-.337-.17c-.299-.148-.6-.291-.902-.425l-.303-.135c-.393-.168-.788-.326-1.185-.473l-.219-.077c-.334-.12-.67-.233-1.005-.34l-.35-.108c-.335-.102-.669-.197-1.002-.286l-.207-.057c-.399-.104-.795-.197-1.188-.284l-.288-.061-.911-.182-.314-.058c-.76-.134-1.493-.24-2.188-.322l-.287-.033-.786-.08-.229-.021-.92-.07-.143-.008-.706-.037-.222-.009-.613-.019-.107-.003-.612-.007h-.14l-.37.002-.119.002-.327.008c-11.772 4.175-23.619 11.127-34.218 19.875.433-.138.884-.276 1.344-.415l.426-.129z"/>
    <path fill="#CB8443" d="M291.315 36.31l.385.108.845.263.489.166.8.285c.271.103.538.214.805.325.319.133.636.272.949.417l.65.309.613.315.725.402.503.289c.38.23.754.473 1.124.725l.424.303c.262.188.521.381.778.581l.422.335c.303.248.602.505.896.771l.223.197c.359.333.709.684 1.052 1.046l.305.332c.257.282.51.571.757.87l.298.361c.327.411.649.832.959 1.275 3.57-5.982 7.686-11.115 11.7-14.827-.137-.448-.296-.875-.467-1.291l-.169-.38c-.127-.284-.26-.562-.401-.832l-.218-.397c-.149-.261-.307-.515-.47-.762l-.217-.33c-.237-.339-.484-.667-.746-.98l-.011-.013c-.266-.317-.548-.616-.837-.906l-.282-.271c-.205-.195-.414-.386-.628-.57l-.332-.276c-.219-.177-.441-.347-.668-.512l-.312-.229c-.316-.22-.638-.432-.966-.632l-.04-.026c-7.546 3.234-14.627 7.673-20.959 13.057.681.146 1.353.315 2.021.502z"/>
    <path fill="#E5C45D" d="M342.21 61.789l1.03-.024.938-.008.838.001 1.157.016.633.018c.468.014.938.03 1.419.053l.168.01c6.831.345 14.884 1.723 21.85 5.514 12.036-5.432 25.113-8.811 38.545-10.371-.361-.286-.73-.563-1.105-.835l-.388-.271c-.252-.178-.506-.354-.764-.526l-.469-.303-.723-.456-.497-.298-.731-.423-.504-.281-.763-.406-.491-.255-.841-.414-.424-.206c-.401-.188-.805-.373-1.209-.551l-.07-.032c-.428-.188-.857-.368-1.287-.544l-.439-.175-.858-.337-.507-.19-.795-.291-.524-.184-.779-.265-.513-.17-.797-.253-.479-.149-.862-.256-.39-.114c-.832-.237-1.649-.456-2.445-.655l-.358-.088-.815-.198-.424-.098-.724-.164-.426-.093-.683-.145-.401-.083-.683-.135-.351-.068-.715-.132-.259-.047c-.639-.114-1.237-.213-1.789-.299l-.204-.031-.583-.088-.248-.036-.47-.066-.232-.032-.41-.053-.204-.026-.358-.044-.164-.019-.336-.038-.088-.01-.339-.036c-15.219 3.879-27.992 9.857-37.944 15.753.513-.03 1.053-.054 1.609-.075l.675-.018z"/>
    <path fill="#CB8443" d="M372.345 68.611c.269.17.537.339.802.518l.73.515c.586.42 1.163.854 1.721 1.322 6.409 5.376 9.96 12.965 10.597 22.572 9.996-7.564 20.63-13.441 31.083-17.27.585-5.774-.854-10.89-4.334-15.202-.604-.749-1.259-1.462-1.954-2.14l-.049-.045c-.332-.322-.673-.638-1.022-.944l-.288-.24c-.277-.237-.555-.474-.842-.701l-.001-.001c-13.432 1.56-26.509 4.938-38.545 10.371.713.389 1.413.804 2.102 1.245z"/>
    <path fill="#fff" d="M164.095 207.496c11.867-5.938 22.974-12.885 32.018-21.093l-.404.014c-4.694 0-8.5-2.574-8.5-5.75s3.806-5.75 8.5-5.75c3.677 0 6.8 1.583 7.985 3.794 3.917-4.441 7.471-9.241 10.58-14.178-16.855-17.489-42.396-9.352-43.099-9.122-9.753 3.663-17.433 10.742-21.072 19.424-3.085 7.359-3.003 15.125.23 22.463.466.71 4.568 6.598 13.762 10.198z"/>
    <path fill="#E5C45D" d="M438.552 44.076l.633.399.267.173.729.489.146.099c.304.21.606.427.91.65l.082.062c.271.201.543.408.812.62l.171.135c.264.209.526.424.787.644l.098.082c.613.52 1.215 1.068 1.801 1.646l.021.021c.287.284.569.575.847.873l.037.04c2.018 2.17 3.77 4.721 4.946 7.69 9.246 1.326 18.312 3.379 26.957 6.1l-.037-.094-.227-.531-.108-.236-.126-.252-.146-.283-.144-.265-.189-.331-.157-.264-.254-.401-.153-.238c-.146-.218-.301-.442-.469-.672l-.066-.087c-.151-.205-.312-.414-.481-.626l-.196-.238-.433-.513-.242-.272-.477-.516-.266-.277-.575-.567-.246-.238c-.285-.267-.581-.536-.896-.807l-.014-.013c-.324-.279-.668-.562-1.025-.845l-.269-.205c-.273-.212-.554-.424-.847-.637l-.386-.274c-.273-.193-.556-.387-.846-.581l-.44-.289c-.305-.198-.622-.395-.945-.592l-.428-.26c-.405-.24-.826-.48-1.261-.718l-.221-.125c-.522-.283-1.066-.565-1.631-.845l-.338-.162c-.452-.22-.914-.438-1.394-.655l-.588-.259c-.419-.183-.846-.365-1.285-.546l-.688-.277c-.442-.176-.897-.349-1.361-.521l-.706-.261c-.527-.189-1.072-.375-1.626-.559l-.564-.189c-.758-.245-1.537-.485-2.345-.719l-.354-.098c-.689-.197-1.396-.39-2.124-.577l-.855-.212c-.586-.146-1.18-.289-1.789-.428l-1.02-.226c-.596-.13-1.205-.256-1.824-.38l-1.068-.21c-.671-.127-1.36-.249-2.057-.368l-.977-.168c-1.035-.168-2.092-.331-3.185-.481l.851.507.254.158z"/>
    <path fill="#CB8443" d="M451.765 60.619l.023.099c.235.992.408 2.024.508 3.098l.017.212c.037.456.062.918.072 1.388l.008.289c.006.53-.003 1.068-.033 1.618l-.019.248c-.029.465-.073.938-.13 1.417l-.057.453c-.075.563-.164 1.134-.278 1.716 21.098-.241 25.816-2.252 26.704-3.481.17-.236.15-.459-.113-1.253-.147-.445-.3-.905-.3-1.422l-.017-.089-.005-.024-.051-.201-.01-.038-.098-.318-.051-.148-.086-.237-.056-.145c-8.646-2.721-17.711-4.774-26.957-6.1.371.929.684 1.902.929 2.918z"/>
    <path fill="#E5C45D" d="M388.159 44.811l.96.223.924.231.773.198 1.102.3.633.179c.416.119.834.245 1.255.374l.496.154c.468.147.937.299 1.409.458l.323.111c.529.181 1.059.369 1.592.566l.058.021c4.801 1.784 9.684 4.252 13.703 7.639l.006.005c.5.421.986.857 1.457 1.308l.008.007c11.461-1.017 23.112-.748 34.536.656l-.001-.002c-4.054-8.316-13.24-12.579-17.439-14.151l-.12-.045-.371-.135-.159-.056-.447-.155-.225-.075-.169-.055-.199-.063-.104-.033-.219-.066c-4.836-.368-10.134-.571-15.939-.571-9.276 0-17.995.925-26.107 2.487.51.102 1.037.213 1.577.333l.687.157z"/>
    <path fill="#CB8443" d="M412.857 56.586l.019.019c.406.39.807.785 1.188 1.197.421.446.828.905 1.213 1.382 3.718 4.605 5.428 9.983 5.11 16.01 8.002-2.627 15.849-4.029 23.166-4.029l.458.002c1.229.009 2.413.014 3.561.014l1.227-.003c.148-.676.265-1.335.355-1.983l.058-.548c.054-.459.105-.917.132-1.362l.016-.566c.014-.43.025-.858.016-1.275l-.027-.504c-.021-.429-.048-.855-.094-1.27l-.056-.414c-.059-.438-.125-.872-.21-1.293l-.068-.312c-.099-.451-.209-.896-.336-1.329l-.062-.205c-.143-.467-.299-.925-.473-1.37l-.038-.098c-.189-.48-.395-.948-.616-1.404l-.001-.002c-11.425-1.405-23.077-1.674-34.538-.657zM344.636 84.769l.516.203.805.333.559.241.767.343.586.277.725.351.692.36c.351.185.697.373 1.04.567l.715.41.572.352.664.42.549.366.663.464.5.364c.254.19.501.385.747.583l.365.29c.355.293.701.594 1.039.903l.312.298c.239.226.476.454.705.688l.36.379c.207.22.409.443.608.67l.342.399c.204.245.401.495.596.749l.276.36c.277.377.547.761.801 1.156 3.583 5.577 4.361 12.373 2.367 20.283 4.543-5.783 9.944-11.474 16.064-16.832 1.552-1.358 3.127-2.669 4.72-3.943-.194-9.75-3.421-17.332-9.614-22.531-.479-.402-.975-.781-1.478-1.148l-.447-.312c-.373-.261-.751-.514-1.136-.757l-.477-.296c-.426-.257-.857-.505-1.295-.742l-.321-.177c-.569-.3-1.146-.586-1.73-.854-8.306 4.095-16.062 9.211-23.021 15.451l.864.332z"/>
    <path fill="#E5C45D" d="M317.771 79.759l.946.045.484.026.965.058.497.033 1.068.079.436.034c.468.038.943.08 1.426.125l.121.011c1.088.104 2.21.229 3.355.375l.314.042c.464.061.931.125 1.4.193l.384.057c.468.07.938.144 1.411.222l.343.057c.529.089 1.061.184 1.595.285l.159.029c1.224.232 2.455.493 3.687.787l.051.013c.574.137 1.147.282 1.72.434l.294.08c.5.135.999.276 1.497.422l.343.102c.5.15.998.308 1.493.47l.28.092c.582.194 1.159.396 1.732.608 6.958-6.24 14.715-11.356 23.021-15.451l-.004-.001c-.411-.188-.826-.368-1.244-.541l-.73-.287-.641-.247-.755-.267-.63-.214-.769-.245-.626-.187-.779-.223-.608-.159-.805-.205-.408-.093c-.575-.133-1.149-.255-1.724-.368l-.553-.108-.82-.143-.582-.097-.81-.123-.58-.082-.804-.104-.561-.064-.806-.088-.482-.044c-.552-.051-1.099-.095-1.639-.132l-.421-.029-.772-.042-.536-.027-.73-.028-.539-.017-.706-.016-.529-.007-.676-.005-.513.002c-.418.002-.827.007-1.227.015l-.457.009-.576.019-.512.018-.535.023-.499.024-.493.027-.485.03-.448.03-.5.038-.361.028-.767.067-.282.027-.453.045-.291.031-.374.041-.243.028-.34.041-.204.025-.31.04-.126.017-.354.049c-9.943 6.527-16.159 12.332-18.085 14.228l1.269.045.413.018z"/>
    <path fill="#CB8443" d="M313.664 21.384c.276.21.546.431.812.657l.183.159c.247.216.491.436.728.667l.203.207c.371.373.726.765 1.066 1.177l.385.467.378.525c.153.215.304.432.448.657l.314.511c.158.267.309.542.455.823l.231.449c.215.444.418.899.6 1.377 1.179-.928 2.337-1.723 3.455-2.362l.733-.418c3.798-2.167 12.692-7.243 12.214-9.047l-.02-.051-.003-.007-.13-.187-.002-.002-.132-.127c-7.51.328-14.891 1.899-21.922 4.525h.004z"/>
    <path fill="#E5C45D" d="M303.033 16.784c.37.08.742.166 1.119.26l.384.1c.403.105.809.221 1.217.344l.269.082c2.098.654 4.208 1.557 6.159 2.788l.052.033c.487.31.964.639 1.427.991l.003.002c7.031-2.626 14.412-4.198 21.922-4.525l-.005-.004-.169-.129-.031-.022-.081-.052-.068-.042-.087-.05-.096-.052-.089-.046-.143-.068-.074-.035-.242-.103-.09-.034-.201-.076-.112-.04-.222-.074-.121-.039-.302-.09-.074-.021-.427-.113-.093-.022-.381-.09-.146-.032-.386-.081-.159-.032-.491-.091-.093-.017-.653-.107-.099-.015-.596-.086-.209-.028-.561-.071-.233-.028-.656-.072-.18-.019-.905-.085-.132-.011-.826-.066-.306-.022-.745-.05-.339-.021-.817-.045-.317-.017-1.193-.052-.112-.004-1.151-.037-.425-.011-.924-.021-.501-.009-.995-.013-.464-.005-1.527-.006c-4.877 0-9.945.685-15.087 1.938.461.077.934.167 1.411.266l.373.077z"/>
    <path fill="#FEFFFB" d="M119.807 329.712c-1.198.28-2.431.698-3.716 1.305-.9 5.224-5.585 40.183 24.28 65.633.812.086 1.645.168 2.5.246l.217.019c.794.07 1.602.139 2.434.202l.081.006c1.78.135 3.648.25 5.607.345l.017.001c-15.746-19.177-25.609-43.571-22.816-68.25l-.607-.011c-2.563-.071-5.07-.136-7.739.448l-.258.056z"/>
    <path fill="#F7F5E8" d="M151.227 397.468l.145.006c1.828.087 3.73.155 5.72.202l.262.005c.935.021 1.884.039 2.856.05 1.074.013 2.17.02 3.291.02 7.519 0 14.552-.395 21.1-1.149 1.128-30.585-6.189-44.082-7.448-46.159-3.24-1.585-6.219-3.366-9.323-5.226-1.32-.791-2.67-1.6-4.082-2.418-14.189-8.23-27.338-13.548-33.498-13.548-.612 0-1.225-.018-1.839-.032-2.793 24.677 7.07 49.072 22.816 68.249z"/>
    <path fill="#FEFFFB" d="M149 415c-5.648-3.228-4.134-9.71-1.237-14.72l-.018-.001-.375-.026c-.714-.047-1.416-.097-2.105-.149l-.833-.066-1.635-.14-.765-.069c-.757-.071-1.503-.146-2.229-.224l-.039.004-.129-.022c-21.305-2.321-28.561-7.471-30.547-9.354-2.423.333-10.588 2.192-10.588 12.099 0 12.769 19.211 30.495 47.809 36.533.568.12 1.016.557 1.15 1.121 5.025 21.158-.312 46.133-15.073 72.015h16.36c3.823-3.979 5.973-6.956 6.03-7.036.438-.616 1.266-.812 1.932-.453.667.356.963 1.153.692 1.859-.03.078-.864 2.206-2.557 5.63h14.43c8.232-19.953 13.727-40.831 13.727-63.001-1-19-19-25-34-34z"/>
    <path fill="#E6EDF6" d="M223 484c0-24.694-19.976-50.315-20.178-50.571-.256-.324-.367-.739-.306-1.148.061-.408.287-.773.625-1.01.264-.185 26.487-18.574 39.698-34.721 14.937-18.256 46.775-62.399 56.265-86.598 9.091-23.183 20.146-37.647 26.75-46.29.706-.924 1.357-1.777 1.946-2.562.54-.72 1.11-1.255 1.706-1.609 1.468-1.751 10.432-11.708 25.983-13.799-.601-3.508-1.059-7.144-1.318-10.922-2.914-42.413-37.375-109.936-62.171-109.936-11.713 0-25.746 10.69-37.539 28.595-12.082 18.343-19.294 40.799-19.294 60.07l.003 5.193c.038 38.362.047 63.898-20.94 70.298-.142.913-.443 1.71-.789 2.367-5.258 9.98-33.826 15.477-80.441 15.477.018 0-2.816.115-7.308.155-1.035 2.224-3.918 9.259-4.489 19.432 2.361-.328 4.567-.271 6.681-.213.792.021 1.58.042 2.367.042 8.071 0 23.373 7.207 35.002 13.952 1.424.826 2.786 1.642 4.118 2.439 10.36 6.206 18.544 11.108 39.629 11.108 5.011 0 19.901-.509 35.582-5.843l.062-.021c4.208-1.435 8.473-3.213 12.618-5.428 19.898-10.63 29.988-27.354 29.988-49.708 0-25.332-15.243-43.506-18.109-46.698-1.968.508-3.874 1.233-5.644 2.249-.235.135-.492.199-.746.2-.52 0-1.024-.271-1.302-.754-.412-.718-.164-1.635.554-2.047 13.957-8.012 34.296-.428 35.155-.101.774.294 1.163 1.16.869 1.935-.294.774-1.161 1.164-1.935.87-.154-.059-12.215-4.547-23.546-3.019 4.772 5.647 17.703 23.179 17.703 47.366 0 23.548-10.623 41.162-31.574 52.354-3.956 2.113-8.014 3.841-12.032 5.26-.668 32.034-30.875 50.386-83.144 50.386-1.045 0-2.063-.008-3.069-.019l-.661-.007c-.961-.013-1.908-.029-2.834-.052l-.564-.015c-.809-.021-1.605-.046-2.387-.073l-.553-.02c-.861-.032-1.702-.069-2.531-.11l-.7-.035c-.827-.044-1.643-.09-2.438-.14-2.896 5.01-4.411 11.492 1.237 14.72 15 9 33 15 34 34 0 22.17-5.495 43.048-13.727 63h29.405l.279-.529.419-.854c.283-.58.56-1.166.829-1.759l.407-.908c.29-.661.569-1.332.842-2.009l.272-.668c.351-.896.687-1.805 1.009-2.729l.239-.713c.24-.71.474-1.426.698-2.151l.293-.976c.204-.688.399-1.383.588-2.085l.246-.916c.258-.998.506-2.006.735-3.032.164-.731.848-1.234 1.591-1.166.748.063 1.333.67 1.371 1.419.309 6.172-.84 13.872-1.814 19.075h3.514c5.659-4.488 12.805-13.105 12.805-27.998zm73.625-251.25c-23.228 0-42.125-14.187-42.125-31.625s18.897-31.625 42.125-31.625 42.125 14.187 42.125 31.625-18.897 31.625-42.125 31.625z"/>
    <path fill="#C4CEE5" d="M49.056 260.417c1.639-1.996 3.852-3.893 6.633-5.679 17.778-11.417 28.509-18.308 56.61-27.168 15.113-4.765 32.236-10.678 48.251-18.337-6.258-2.951-9.95-6.732-11.661-8.849-13.223 13.791-55.859 28.715-57.729 29.365-13.305 4.917-27.99 6.814-40.945 8.487-15.229 1.967-28.38 3.666-28.38 9.762 0 10.554 16.422 13.101 19.228 13.458 1.027-.469 3.561-1.312 7.993-1.039z"/>
    <path fill="#fff" d="M296.625 172.5c-21.573 0-39.125 12.841-39.125 28.625s17.552 28.625 39.125 28.625 39.125-12.841 39.125-28.625-17.552-28.625-39.125-28.625zm-4.625 31.25c-4.694 0-8.5-2.574-8.5-5.75s3.806-5.75 8.5-5.75 8.5 2.574 8.5 5.75-3.806 5.75-8.5 5.75z"/>
    <path fill="#008CFF" d="M0 512h128.858c14.639-25.276 20.374-50.094 15.892-70.403-30.449-6.728-49.25-25.521-49.25-39.266 0-10.096 6.993-13.494 11.125-14.62-5.428-5.692-19.913-22.128-20.447-35.907-29.46-8.644-59.012-44.127-59.012-63.952 0-14.006 5.829-20.922 9.873-24.034-6.479-1.376-18.206-5.318-18.206-15.819 0-8.734 13.001-10.414 30.996-12.737 12.798-1.653 27.303-3.526 40.317-8.336.485-.169 45.218-15.822 57.109-29.188-3.247-7.882-3.224-16.181.079-24.062 3.913-9.333 12.073-16.946 22.426-20.937 3.539-4.293 7.014-8.304 10.376-12.185 3.351-3.867 6.509-7.516 9.347-11.003.125-.162.656-.845 1.509-1.877 3.433-4.334 6.31-8.422 8.339-12.361 1.21-2.349 2.416-5.095 3.693-8.001 4.555-10.372 10.206-23.236 20.823-28.109 1.781-4.206 3.952-8.346 6.428-12.386.044-.098.102-.19.167-.278 5.455-8.839 12.421-17.175 20.31-24.555.097-.122.211-.23.346-.318 12.206-11.338 26.557-20.38 40.829-25.508.213-.151.466-.25.743-.272 8.061-2.82 16.082-4.385 23.663-4.385 18.561 0 21.752 2.385 22.436 4.963.998 3.763-4.482 7.203-13.627 12.421l-.731.417c-11.099 6.342-26.909 29.972-26.351 51.812 9.857-.442 14.491-2.551 15.358-2.992 1.141-1.163 7.695-7.63 18.862-14.99.191-.242.456-.422.77-.51 10.73-6.976 25.559-14.654 43.842-19.35.212-.112.451-.171.703-.169 10.405-2.617 21.904-4.271 34.404-4.271 5.765 0 11.186.206 16.296.595l.062.005c17.812 1.361 31.626 5.067 41.152 11.091 9.516 6.016 11.657 12.633 11.657 14.476l.147.478c.281.847.804 2.422-.303 3.954-1.642 2.274-6.688 4.601-31.004 4.741l-.006.001-.007-.001c-1.888.011-3.879.01-6.007-.006l-.435-.002c-7.896 0-16.016 1.59-24.02 4.372-.235.165-.51.272-.811.28-11.492 4.113-22.718 10.676-32.675 18.535-.171.251-.417.444-.704.555-20.78 16.629-35.844 38.868-35.844 56.093 0 33.276 27.917 77.831 71.122 113.509 22.633 18.689 41.922 28.662 54.685 35.261 12.927 6.684 20.048 10.364 19.859 16.939-.393 13.76-33.805 14.457-40.499 14.457-11.525 0-48.632-1.896-66.166-25.013 3.455 42.123 28.654 89.478 123.498 91.866v-401.018h-511.996v512zM356.604 324.547c-5.224-13.35-9.385-24.935-12.729-34.243-5.459-15.198-10.174-28.324-12.599-28.324l-.146.041-.038.016c-.208.103-.517.363-.892.864-.594.791-1.251 1.651-1.964 2.583-6.509 8.518-17.402 22.773-26.34 45.564-10.176 25.949-43.223 70.887-56.735 87.402-11.944 14.599-33.519 30.436-39.029 34.378 4.128 5.575 19.868 28.335 19.868 51.172 0 13.736-5.829 22.629-11.411 28h101.359c7.505-13.133 28.479-50.926 38.131-79.48.197-.609 20.117-63.014 2.525-107.973z"/>
    <path fill="#4FFF00" d="M202.083 512h1.541c.32-1.682.667-3.662.979-5.787-.772 1.995-1.614 3.921-2.52 5.787z"/>
    <path fill="#838CAC" d="M383 356c18.771 29.381 52.195 41.439 84.51 42.707-1.307-.307-2.597-.628-3.873-.96l-.411-.108c-1.16-.306-2.308-.622-3.443-.948l-.465-.134c-1.168-.341-2.323-.691-3.465-1.055l-.251-.079c-3.724-1.191-7.309-2.505-10.75-3.94l-.446-.19c-.953-.402-1.896-.812-2.826-1.233l-.709-.324c-.85-.391-1.689-.789-2.52-1.195l-.749-.367c-.846-.422-1.682-.853-2.508-1.29l-.602-.316c-2.048-1.102-4.037-2.253-5.963-3.458l-.532-.342c-.753-.478-1.498-.961-2.232-1.454l-.874-.6c-.611-.421-1.218-.846-1.815-1.277l-.951-.697c-.568-.421-1.129-.848-1.685-1.279l-.922-.721c-.579-.462-1.148-.932-1.714-1.405l-.776-.647c-.81-.693-1.607-1.396-2.388-2.113-18.294-16.824-28.188-39.782-29.435-68.229-3.199-3.105-22.654-23.131-29.163-55.694-11.579 1.52-19.351 7.849-22.626 11.063.197.139.394.307.59.487l.167.16c.158.154.316.323.475.505l.13.146c.189.228.38.477.57.743l.188.272c.139.203.279.417.42.642l.208.336c.186.308.372.631.561.977l.226.429.387.749.282.571.385.813.463 1.018.358.812.364.855.298.714c.262.635.531 1.299.807 1.993l.159.398.484 1.244.221.574.515 1.351c17.369 23.202 27.855 49.892 38.326 77.496 0 1 3 3 3 3z"/>
    <path fill="#9EA5C1" d="M505.817 403.795l-.975-.051c-4.232-.218-8.358-.532-12.378-.942l-.736-.075c-2.018-.213-4.009-.448-5.972-.709l-.364-.051c-4.065-.548-8.011-1.201-11.84-1.959l-.356-.07c-1.925-.384-3.822-.793-5.687-1.23-32.314-1.269-65.738-13.327-84.509-42.708 0 0-3-2-3-3-10.471-27.604-20.957-54.294-38.328-77.499.349.921.71 1.892 1.081 2.897l.16.434c.317.864.646 1.759.981 2.685l.195.537c.352.968.714 1.97 1.087 3.005l.138.383.618 1.718.766 2.13c3.337 9.291 7.49 20.854 12.698 34.164 17.988 45.969-2.264 109.376-2.47 110.011-9.395 27.795-29.353 64.145-37.526 78.535h192.6v-107.98l-.059-.001c-2.064-.053-4.106-.127-6.124-.224z"/>
    <path fill="#FEFFFB" d="M112.789 332.944c-2.122 1.474-4.405 3.504-6.922 6.308-8.422 9.379-14.111 11.945-16.672 12.647.76 15.37 21.304 35.481 21.518 35.688l.032.042.127.14c.124.151 4.648 5.415 24.305 8.235-24.692-23.505-23.552-53.319-22.388-63.06z"/>
    <path fill="#F7F5E8" d="M187.615 396.22c34.94-4.753 54.916-20.487 55.997-44.839-15.403 4.887-29.675 5.369-34.612 5.369-12.504 0-20.776-1.741-27.497-4.386 2.698 6.116 6.94 19.762 6.112 43.856z"/>
    <path fill="#FEFFFB" d="M70.964 301.337c-.445-.146-.878-.297-1.309-.45l-.317-.111c-.372-.136-.733-.275-1.093-.416l-.489-.193c-.316-.129-.625-.261-.931-.394l-.579-.258-.8-.378-.632-.318-.684-.362-.674-.389-.561-.335c-.255-.16-.496-.326-.737-.491l-.411-.279c-.367-.266-.718-.536-1.049-.815-7.297-6.161-9.704-11.541-10.13-15.625-1.388-1.402-5.429-6.038-4.955-12.1.136-1.739.638-3.426 1.483-5.057-3.436.05-4.971.906-4.989.917l-.153.063-.103.06c-.471.179-11.686 4.648-11.686 23.446 0 18.819 29.753 53.576 57.629 61.286l.23-.048.14-.035.172-.045.235-.07.148-.047.332-.114.113-.042.447-.175.019-.008c1.889-.785 5.061-2.565 9.369-6.572.288-.268.58-.545.877-.832l.024-.022c-14.512-9.02-29.902-22.284-28.936-39.791z"/>
    <path fill="#E6EDF6" d="M119.377 306.986c-.854-.008-1.726-.019-2.622-.033l-.24-.005c-.841-.015-1.7-.034-2.573-.056l-.54-.014c-.949-.025-1.913-.055-2.893-.09l-.338-.014c-.935-.034-1.881-.073-2.837-.118l-.357-.016c-1.033-.05-2.075-.105-3.126-.167l-.363-.022c-2.155-.13-4.338-.289-6.526-.48l-.33-.029c-2.207-.196-4.413-.428-6.596-.697l-.266-.033c-2.205-.276-4.38-.593-6.502-.955l-.188-.032c-2.149-.37-4.237-.788-6.239-1.258l-.09-.021c-.997-.235-1.97-.483-2.919-.746l-.108-.03c-.947-.264-1.87-.54-2.761-.832-.966 17.507 14.424 30.771 28.937 39.79l.012-.012.823-.811c.337-.337.676-.68 1.025-1.043l.459-.484c.463-.491.93-.991 1.413-1.529 3.784-4.215 7.185-6.843 10.3-8.478l.058-.031c1.452-.757 2.841-1.296 4.178-1.679.42-9.679 2.815-16.702 4.23-20.059-.791-.001-1.616-.005-2.456-.012l-.565-.004z"/>
    <path d="M338.75 201.125c0-17.438-18.897-31.625-42.125-31.625s-42.125 14.187-42.125 31.625 18.897 31.625 42.125 31.625 42.125-14.187 42.125-31.625zm-42.125 28.625c-21.573 0-39.125-12.841-39.125-28.625s17.552-28.625 39.125-28.625 39.125 12.841 39.125 28.625-17.552 28.625-39.125 28.625z"/>
    <ellipse cx="292" cy="198" rx="8.5" ry="5.75"/>
    <path d="M208.498 492.925c-.038-.749-.623-1.355-1.371-1.419-.743-.068-1.427.435-1.591 1.166-.229 1.026-.478 2.034-.735 3.032l-.246.916c-.189.702-.385 1.397-.588 2.085l-.293.976c-.224.726-.458 1.441-.698 2.151l-.239.713c-.322.924-.658 1.833-1.009 2.729l-.272.668c-.273.677-.552 1.348-.842 2.009l-.407.908c-.269.593-.546 1.179-.829 1.759l-.419.854-.279.529h3.404c.906-1.866 1.748-3.792 2.519-5.787-.311 2.125-.658 4.105-.979 5.787h3.061c.973-5.204 2.122-12.904 1.813-19.076zM156.708 504.511c-.666-.359-1.494-.163-1.932.453-.057.08-2.207 3.058-6.03 7.036h6.097c1.692-3.424 2.526-5.552 2.557-5.63.271-.706-.025-1.503-.692-1.859zM388.502 309.152c17.534 23.117 54.641 25.013 66.166 25.013 6.694 0 40.106-.697 40.499-14.457.188-6.575-6.933-10.256-19.859-16.939-12.763-6.599-32.052-16.571-54.685-35.261-43.205-35.678-71.122-80.232-71.122-113.509 0-17.225 15.063-39.464 35.844-56.093.287-.111.533-.304.704-.555 9.957-7.859 21.183-14.421 32.675-18.535.301-.007.575-.115.811-.28 8.004-2.782 16.124-4.372 24.02-4.372l.435.002c2.128.017 4.119.017 6.007.006l.007.001.006-.001c24.316-.141 29.362-2.467 31.004-4.741 1.106-1.532.584-3.107.303-3.954l-.147-.478c0-1.843-2.142-8.46-11.657-14.476-9.526-6.023-23.34-9.73-41.152-11.091l-.062-.005c-5.11-.389-10.531-.595-16.296-.595-12.5 0-23.999 1.654-34.404 4.271-.252-.001-.491.057-.703.169-18.283 4.696-33.111 12.374-43.842 19.35-.313.088-.578.268-.77.51-11.167 7.36-17.722 13.827-18.862 14.99-.867.44-5.501 2.55-15.358 2.992-.559-21.84 15.252-45.471 26.351-51.812l.731-.417c9.145-5.218 14.625-8.658 13.627-12.421-.684-2.578-3.875-4.963-22.436-4.963-7.581 0-15.603 1.565-23.663 4.385-.277.023-.53.121-.743.272-14.271 5.128-28.623 14.17-40.829 25.508-.135.088-.249.196-.346.318-7.889 7.38-14.855 15.716-20.31 24.555-.065.088-.123.18-.167.278-2.476 4.04-4.646 8.18-6.428 12.386-10.617 4.873-16.268 17.737-20.823 28.109-1.277 2.907-2.482 5.652-3.693 8.001-2.029 3.938-4.906 8.026-8.339 12.361-.853 1.033-1.384 1.716-1.509 1.877-2.838 3.487-5.997 7.136-9.347 11.003-3.363 3.881-6.838 7.891-10.376 12.185-10.353 3.991-18.514 11.604-22.426 20.937-3.303 7.88-3.326 16.18-.079 24.062-11.891 13.366-56.624 29.019-57.109 29.188-13.014 4.81-27.52 6.683-40.317 8.336-17.995 2.324-30.996 4.003-30.996 12.737 0 10.501 11.727 14.443 18.206 15.819-4.044 3.112-9.873 10.028-9.873 24.034 0 19.825 29.552 55.309 59.012 63.952.534 13.779 15.019 30.215 20.447 35.907-4.132 1.126-11.125 4.524-11.125 14.62 0 13.744 18.801 32.538 49.25 39.266 4.481 20.31-1.253 45.127-15.892 70.403h3.527c14.762-25.882 20.098-50.856 15.073-72.015-.134-.564-.582-1.001-1.15-1.121-28.601-6.038-47.812-23.764-47.812-36.533 0-9.906 8.165-11.766 10.588-12.099 1.986 1.883 9.242 7.032 30.547 9.354l.129.022.039-.004c.725.078 1.471.152 2.229.224l.765.069 1.635.14.833.066c.689.053 1.391.103 2.105.149l.375.026.018.001c.795.05 1.612.096 2.438.14l.7.035c.829.041 1.67.078 2.531.11l.553.02c.782.027 1.578.052 2.387.073l.564.015c.926.022 1.873.039 2.834.052l.661.007c1.006.011 2.024.019 3.069.019 52.269 0 82.476-18.352 83.144-50.386 4.019-1.419 8.076-3.146 12.032-5.26 20.951-11.192 31.574-28.807 31.574-52.354 0-24.188-12.931-41.719-17.703-47.366 11.331-1.529 23.392 2.96 23.546 3.019.773.294 1.641-.096 1.935-.87.294-.774-.095-1.64-.869-1.935-.859-.327-21.198-7.911-35.155.101-.718.412-.966 1.329-.554 2.047.277.483.782.754 1.302.754.254 0 .511-.064.746-.2 1.77-1.016 3.676-1.74 5.644-2.249 2.866 3.192 18.109 21.366 18.109 46.698 0 22.354-10.09 39.078-29.988 49.708-4.146 2.215-8.41 3.993-12.618 5.428l-.062.021c-15.681 5.334-30.57 5.843-35.582 5.843-21.085 0-29.269-4.902-39.629-11.108-1.332-.798-2.694-1.613-4.118-2.439-11.629-6.745-26.932-13.952-35.002-13.952-.787 0-1.574-.021-2.367-.042-2.114-.058-4.32-.115-6.681.213.571-10.173 3.454-17.208 4.489-19.432 4.492-.04 7.326-.155 7.308-.155 46.615 0 75.183-5.496 80.441-15.477.346-.657.647-1.454.789-2.367 20.987-6.399 20.978-31.936 20.94-70.298l-.003-5.193c0-19.271 7.213-41.728 19.294-60.07 11.793-17.905 25.826-28.595 37.539-28.595 24.796 0 59.257 67.523 62.171 109.936.26 3.778.718 7.414 1.318 10.922-15.552 2.091-24.516 12.048-25.983 13.799-.596.354-1.166.89-1.706 1.609-.589.785-1.24 1.639-1.946 2.562-6.604 8.643-17.659 23.107-26.75 46.29-9.489 24.198-41.328 68.342-56.265 86.598-13.21 16.146-39.434 34.536-39.698 34.721-.338.236-.564.602-.625 1.01-.061.409.05.824.306 1.148.201.256 20.177 25.877 20.177 50.571 0 14.893-7.146 23.51-12.802 28h4.392c5.582-5.371 11.411-14.264 11.411-28 0-22.837-15.74-45.597-19.868-51.172 5.51-3.942 27.085-19.779 39.029-34.378 13.513-16.516 46.56-61.453 56.735-87.402 8.938-22.791 19.831-37.047 26.34-45.564.713-.932 1.37-1.792 1.964-2.583.375-.501.684-.762.892-.864l.038-.016.146-.041c2.425 0 7.14 13.126 12.599 28.324 3.344 9.309 7.505 20.894 12.729 34.243 17.593 44.959-2.327 107.364-2.524 107.973-9.652 28.555-30.626 66.348-38.131 79.48h3.452c8.173-14.39 28.131-50.74 37.526-78.536.206-.635 20.458-64.042 2.47-110.011-5.208-13.31-9.361-24.873-12.698-34.164l-.766-2.13-.618-1.718-.138-.383c-.373-1.035-.735-2.037-1.087-3.005l-.195-.537c-.336-.926-.664-1.82-.981-2.685l-.16-.434c-.371-1.006-.732-1.977-1.081-2.897l-.515-1.351-.221-.574-.484-1.244-.159-.398c-.275-.694-.545-1.358-.807-1.993l-.298-.714-.364-.855-.358-.812-.463-1.018-.385-.813-.282-.571-.387-.749-.226-.429c-.188-.346-.375-.669-.561-.977l-.208-.336c-.141-.225-.281-.438-.42-.642l-.188-.272c-.19-.267-.381-.516-.57-.743l-.13-.146c-.158-.182-.316-.351-.475-.505l-.167-.16c-.196-.181-.393-.349-.59-.487 3.275-3.215 11.047-9.543 22.626-11.063 6.509 32.563 25.964 52.589 29.163 55.694 1.246 28.447 11.141 51.405 29.435 68.229.78.718 1.578 1.42 2.388 2.113l.776.647c.565.474 1.135.943 1.714 1.405l.922.721c.556.432 1.116.858 1.685 1.279l.951.697c.598.432 1.204.856 1.815 1.277l.874.6c.734.493 1.479.977 2.232 1.454l.532.342c1.926 1.205 3.915 2.356 5.963 3.458l.602.316c.826.438 1.662.868 2.508 1.29l.749.367c.83.406 1.67.805 2.52 1.195l.709.324c.931.421 1.873.831 2.826 1.233l.446.19c3.441 1.436 7.026 2.749 10.75 3.94l.251.079c1.142.363 2.297.714 3.465 1.055l.465.134c1.136.326 2.283.643 3.443.948l.411.108c1.276.332 2.566.653 3.873.96 1.864.438 3.762.847 5.687 1.23l.356.07c3.829.758 7.774 1.411 11.84 1.959l.364.051c1.963.261 3.954.496 5.972.709l.736.075c4.02.41 8.146.725 12.378.942l.975.051c2.018.097 4.06.171 6.124.224l.059.001v-3.001c-94.845-2.384-120.044-49.739-123.499-91.862zm52.129-265.259l.977.168c.696.119 1.386.241 2.057.368l1.068.21c.619.124 1.229.25 1.824.38l1.02.226c.609.139 1.203.282 1.789.428l.855.212c.728.188 1.435.38 2.124.577l.354.098c.808.234 1.587.474 2.345.719l.564.189c.554.184 1.099.37 1.626.559l.706.261c.464.172.919.345 1.361.521l.688.277c.439.181.866.363 1.285.546l.588.259c.479.216.941.435 1.394.655l.338.162c.564.28 1.108.562 1.631.845l.221.125c.435.238.855.478 1.261.718l.428.26c.323.197.641.394.945.592l.44.289c.29.194.572.387.846.581l.386.274c.293.213.573.425.847.637l.269.205c.357.283.701.565 1.025.845l.014.013c.315.271.611.54.896.807l.246.238.575.567.266.277.477.516.242.272.433.513.196.238c.17.213.33.422.481.626l.066.087c.168.23.322.454.469.672l.153.238.254.401.157.264.189.331.144.265.146.283.126.252.108.236.227.531.037.094.056.145.086.237.051.148.098.318.01.038.051.201.005.024.017.089c0 .518.152.978.3 1.422.264.794.283 1.017.113 1.253-.888 1.229-5.606 3.241-26.704 3.481.114-.583.203-1.153.278-1.716l.057-.453c.057-.479.101-.952.13-1.417l.019-.248c.03-.549.039-1.087.033-1.618l-.008-.289c-.011-.47-.035-.933-.072-1.388l-.017-.212c-.1-1.074-.272-2.105-.508-3.098l-.023-.099c-.245-1.016-.558-1.989-.927-2.92-1.177-2.969-2.929-5.52-4.946-7.69l-.037-.04c-.277-.298-.56-.589-.847-.873l-.021-.021c-.586-.578-1.188-1.127-1.801-1.646l-.098-.082c-.261-.22-.523-.434-.787-.644l-.171-.135c-.27-.212-.541-.419-.812-.62l-.082-.062c-.304-.223-.606-.44-.91-.65l-.146-.099-.729-.489-.267-.173-.633-.399-.255-.158c-.285-.174-.569-.344-.851-.507 1.092.152 2.149.314 3.184.483zm-28.631-2.06c5.806 0 11.104.203 15.939.571l.219.066.104.033.199.063.169.055.225.075.447.155.159.056.371.135.12.045c4.197 1.567 13.383 5.829 17.439 14.151l.001.002.001.002c.222.456.427.924.616 1.404l.038.098c.174.445.33.903.473 1.37l.062.205c.127.433.237.877.336 1.329l.068.312c.085.422.151.855.21 1.293l.056.414c.046.415.073.84.094 1.27l.027.504c.01.417-.002.845-.016 1.275l-.016.566c-.026.445-.078.903-.132 1.362l-.058.548c-.091.647-.207 1.307-.355 1.983l-1.227.003c-1.147 0-2.332-.005-3.561-.014l-.458-.002c-7.317 0-15.164 1.402-23.166 4.029.317-6.027-1.393-11.404-5.11-16.01-.385-.478-.792-.936-1.213-1.382-.382-.412-.782-.808-1.188-1.197l-.026-.025c-.471-.451-.957-.887-1.457-1.308l-.006-.005c-4.02-3.387-8.902-5.855-13.703-7.639l-.058-.021c-.533-.198-1.062-.385-1.592-.566l-.323-.111c-.473-.159-.941-.312-1.409-.458l-.496-.154c-.421-.129-.839-.254-1.255-.374l-.633-.179-1.102-.3-.773-.198-.924-.231-.96-.223-.689-.158c-.54-.119-1.067-.23-1.577-.333 8.115-1.561 16.834-2.486 26.11-2.486zm-34.132 4.297l.339.036.088.01.336.038.164.019.358.044.204.026.41.053.232.032.47.066.248.036.583.088.204.031c.552.086 1.15.186 1.789.299l.259.047.715.132.351.068.683.135.401.083.683.145.426.093.724.164.424.098.815.198.358.088c.796.2 1.613.418 2.445.655l.39.114.862.256.479.149.797.253.513.17.779.265.524.184.795.291.507.19.858.337.439.175c.43.176.859.356 1.287.544l.07.032c.404.178.808.362 1.209.551l.424.206.841.414.491.255.763.406.504.281.731.423.497.298.723.456.469.303c.258.171.512.348.764.526l.388.271c.375.271.744.549 1.105.835l.001.001c.287.227.564.464.842.701l.288.24c.35.307.69.622 1.022.944l.049.045c.695.678 1.35 1.391 1.954 2.14 3.479 4.312 4.919 9.428 4.334 15.202-10.453 3.828-21.087 9.706-31.083 17.27-.637-9.607-4.188-17.196-10.597-22.572-.558-.468-1.135-.902-1.721-1.322l-.73-.515c-.265-.179-.533-.348-.802-.518-.688-.441-1.389-.856-2.103-1.244-6.966-3.791-15.019-5.169-21.85-5.514l-.168-.01c-.481-.023-.951-.04-1.419-.053l-.633-.018-1.157-.016-.838-.001-.938.008-1.03.024-.677.02c-.557.021-1.097.045-1.609.075 9.955-5.898 22.728-11.877 37.947-15.756zm-43.694 19.338l.354-.049.126-.017.31-.04.204-.025.34-.041.243-.028.374-.041.291-.031.453-.045.282-.027.767-.067.361-.028.5-.038.448-.03.485-.03.493-.027.499-.024.535-.023.512-.018.576-.019.457-.009c.399-.008.809-.013 1.227-.015l.513-.002.676.005.529.007.706.016.539.017.73.028.536.027.772.042.421.029c.54.037 1.087.081 1.639.132l.482.044.806.088.561.064.804.104.58.082.81.123.582.097.82.143.553.108c.574.113 1.148.235 1.724.368l.408.093.805.205.608.159.779.223.626.187.769.245.63.214.755.267.641.247.73.287c.418.172.833.353 1.244.541l.004.001c.585.268 1.161.553 1.73.854l.321.177c.438.237.869.484 1.295.742l.477.296c.385.243.763.496 1.136.757l.447.312c.503.367.998.746 1.478 1.148 6.193 5.199 9.42 12.781 9.614 22.531-1.593 1.274-3.168 2.585-4.72 3.943-6.12 5.358-11.521 11.049-16.064 16.832 1.994-7.911 1.216-14.706-2.367-20.283-.254-.396-.523-.779-.801-1.156l-.276-.36c-.194-.253-.392-.503-.596-.749l-.342-.399c-.199-.227-.401-.45-.608-.67l-.36-.379c-.229-.234-.466-.462-.705-.688l-.312-.298c-.338-.309-.684-.61-1.039-.903l-.365-.29c-.246-.197-.493-.393-.747-.583l-.5-.364-.663-.464-.549-.366-.664-.42-.572-.352-.715-.41c-.343-.194-.689-.382-1.04-.567l-.692-.36-.725-.351-.586-.277-.767-.343-.559-.241-.805-.333-.516-.203-.863-.332c-.573-.212-1.15-.414-1.732-.608l-.28-.092c-.495-.163-.993-.32-1.493-.47l-.343-.102c-.498-.146-.997-.288-1.497-.422l-.294-.08c-.572-.152-1.146-.297-1.72-.434l-.051-.013c-1.231-.294-2.463-.555-3.687-.787l-.159-.029c-.534-.101-1.065-.195-1.595-.285l-.343-.057c-.474-.078-.943-.152-1.411-.222l-.384-.057c-.47-.068-.937-.133-1.4-.193l-.314-.042c-1.146-.146-2.268-.271-3.355-.375l-.121-.011c-.482-.046-.958-.087-1.426-.125l-.436-.034-1.068-.079-.497-.033-.965-.058-.484-.026-.946-.045-.413-.018-1.269-.045c1.925-1.897 8.14-7.701 18.084-14.228zm-17.84-50.969l1.527.006.464.005.995.013.501.009.924.021.425.011 1.151.037.112.004 1.193.052.317.017.817.045.339.021.745.05.306.022.826.066.132.011.905.085.18.019.656.072.233.028.561.071.209.028.596.086.099.015.653.107.093.017.491.091.159.032.386.081.146.032.381.09.093.022.427.113.074.021.302.09.121.039.222.074.112.04.201.076.09.034.242.103.074.035.143.068.089.046.096.052.087.05.068.042.081.052.031.022.169.129.005.004.132.127.002.002.13.187.003.007.02.051c.479 1.804-8.416 6.879-12.214 9.047l-.733.418c-1.118.639-2.276 1.434-3.455 2.362-.182-.478-.385-.934-.6-1.377l-.231-.449c-.146-.281-.297-.556-.455-.823l-.314-.511c-.145-.225-.295-.442-.448-.657l-.378-.525-.385-.467c-.341-.412-.695-.804-1.066-1.177l-.203-.207c-.236-.23-.48-.451-.728-.667l-.183-.159c-.267-.226-.536-.446-.812-.657l-.005-.003c-.463-.352-.939-.681-1.427-.991l-.052-.033c-1.951-1.231-4.062-2.134-6.159-2.788l-.269-.082c-.408-.123-.813-.238-1.217-.344l-.384-.1c-.377-.094-.749-.18-1.119-.26l-.375-.082c-.478-.098-.95-.188-1.411-.266 5.142-1.247 10.21-1.932 15.087-1.932zm-23.204 4.364l.327-.008.119-.002.37-.002h.14l.612.007.107.003.613.019.222.009.706.037.143.008.92.07.229.021.786.08.287.033c.695.083 1.429.188 2.188.322l.314.058.911.182.288.061c.393.087.788.181 1.188.284l.207.057c.333.089.667.185 1.002.286l.35.108c.335.106.671.22 1.005.34l.219.077c.396.147.792.305 1.185.473l.303.135c.303.135.604.277.902.425l.337.17c.384.2.765.408 1.137.632l.005.003.04.026c.328.2.649.412.966.632l.312.229c.227.166.449.335.668.512l.332.276c.214.184.423.375.628.57l.282.271c.289.29.571.589.837.906l.011.013c.262.312.509.641.746.98l.217.33c.163.248.32.501.47.762l.218.397c.142.27.274.547.401.832l.169.38c.171.416.33.843.467 1.291-4.015 3.712-8.13 8.844-11.7 14.827-.31-.443-.632-.864-.959-1.275l-.298-.361c-.247-.298-.5-.588-.757-.87l-.305-.332c-.343-.362-.692-.712-1.052-1.046l-.223-.197c-.294-.266-.593-.523-.896-.771l-.422-.335c-.257-.2-.517-.393-.778-.581l-.424-.303c-.37-.252-.744-.495-1.124-.725l-.503-.289c-.239-.138-.48-.273-.725-.402l-.613-.315-.65-.309c-.313-.145-.63-.285-.949-.417-.267-.111-.534-.222-.805-.325l-.8-.285-.489-.166c-.28-.091-.562-.18-.845-.263l-.385-.108c-.668-.187-1.341-.356-2.022-.5-1.322-.281-2.667-.484-4.022-.62l-.085-.008c-.638-.063-1.278-.111-1.92-.145l-.144-.008c-2.021-.101-4.049-.068-6.054.069l-.151.011c-.615.043-1.228.096-1.837.158l-.177.018c-1.322.138-2.628.314-3.905.522h-.003c-.604.099-1.2.205-1.791.316l-.322.062c-.501.096-.996.196-1.484.3l-.322.068c-1.155.25-2.275.518-3.348.796l-.352.093-1.184.32-.477.134-1.033.3-.427.126c-.46.139-.911.277-1.344.415 10.601-8.746 22.447-15.698 34.22-19.874zm-40.455 25.36l.286-.12.112-.046.354-.144.165-.066.509-.201.313-.121.387-.147.701-.262.386-.142.589-.21.29-.102c.713-.25 1.501-.516 2.357-.791l.202-.064c.918-.292 1.906-.59 2.958-.886l.091-.026c3.483-.979 7.622-1.909 11.963-2.415 1.622-.189 3.27-.323 4.926-.372l.118-.002c1.342-.036 2.687-.019 4.021.063l.335.023c.859.06 1.714.143 2.56.26l.019.002h.002c.363.05.724.109 1.083.17l.565.104c.535.101 1.066.216 1.593.344l.733.185c.294.079.586.164.877.253.31.095.617.198.923.304.349.121.693.249 1.035.383.331.131.659.267.983.412l.642.295c.464.224.923.46 1.37.716l.447.271c.373.225.739.46 1.1.708l.414.286c.452.329.893.677 1.322 1.045l.337.302c.387.347.765.71 1.13 1.093l.205.208c.412.445.808.918 1.189 1.412l.268.355c.385.518.76 1.053 1.109 1.625-2.812 5.196-5.167 10.917-6.698 16.844-.606-.496-1.218-.962-1.833-1.415l-.544-.391c-.468-.334-.938-.656-1.411-.966l-.512-.336c-.607-.387-1.219-.757-1.833-1.107l-.498-.271c-.462-.255-.925-.501-1.39-.735l-.727-.359c-.422-.203-.845-.396-1.27-.584l-.669-.298c-.572-.241-1.146-.466-1.721-.68-.312-.117-.626-.224-.939-.333l-.925-.31c-.347-.112-.693-.222-1.04-.324l-.736-.205c-.741-.205-1.482-.391-2.226-.556l-.438-.099c-.446-.095-.893-.181-1.339-.262l-.393-.069c-1.508-.262-3.012-.45-4.509-.569l-.026-.002c-9.21-.731-18.091 1.054-25.231 3.338l-.116.038c-.648.208-1.281.419-1.898.634l-.205.071c-1.305.457-2.541.923-3.694 1.386l-.222.09c-.469.19-.923.378-1.364.565l-.424.182-1.088.477-.392.175c-.453.205-.891.406-1.302.601 4.75-6.872 10.396-13.364 16.644-19.232zm-19.951 24.315l.236-.135.081-.046.243-.137.088-.049.398-.219.016-.009.451-.242.094-.05.489-.257.058-.03c.399-.207.844-.433 1.329-.672l.067-.033c.744-.366 1.583-.764 2.511-1.181l.047-.021c.441-.198.905-.401 1.384-.606l.692-.289.81-.336.81-.32.799-.313.872-.324.841-.309.917-.318.89-.304.956-.307.938-.295.987-.29.993-.284 1.004-.267 1.051-.269 1.022-.241 1.102-.247 1.035-.211c.383-.076.767-.15 1.154-.22l1.043-.178c.397-.065.798-.127 1.2-.186l1.053-.143c.411-.053.823-.101 1.237-.146.354-.038.708-.073 1.064-.104.422-.038.845-.07 1.271-.099l1.069-.063c.432-.021.865-.035 1.301-.045.356-.009.714-.017 1.073-.019.439-.002.882.004 1.324.014l1.077.029.456.027c.541.027 1.081.049 1.624.095l.049.004c1.609.136 3.228.355 4.846.668l.196.038c.497.099.993.205 1.49.321l.095.021c1.057.25 2.111.545 3.163.882l.292.096c.425.14.849.288 1.271.443l.317.116c1.021.383 2.036.812 3.046 1.289l.328.16c.388.188.775.383 1.161.585l.423.225c.392.211.781.431 1.17.658l.308.178c.487.29.972.592 1.453.907l.273.186c.387.257.771.522 1.153.796l.447.326c.34.25.679.508 1.016.773l.421.331c.464.374.926.756 1.384 1.157-.839 4.135-1.241 8.336-1.1 12.5-5.169 1.461-9.8 1.974-13.645 2.019l-.446-.399-.242-.208-.323-.273-.402-.332-.232-.186c-2.888-2.316-8.579-6.177-16.197-8.064l-.02-.005c-.65-.161-1.312-.307-1.99-.436l-.295-.052c-.599-.109-1.203-.211-1.822-.293l-.889-.096c-.46-.049-.915-.104-1.385-.137-.799-.054-1.614-.087-2.445-.087-11.286 0-21.781 2.978-26.959 4.721 1.443-3.109 3.102-6.174 4.933-9.183zm-50.319 73.98c4.024-4.644 7.778-8.979 11.049-13.119 5.74-6.918 18.032-19.622 26.173-19.222 2.32.115 4.152 1.298 5.602 3.617 6.161 9.857 1.587 29.645-9.337 48.095-13.805-13.773-32.609-12.128-41.148-10.439 2.598-3.087 5.161-6.047 7.661-8.932zm-32.303 32.317c3.639-8.682 11.319-15.761 21.072-19.424.704-.23 26.244-8.367 43.099 9.122-3.109 4.937-6.663 9.736-10.58 14.178-1.185-2.211-4.308-3.794-7.985-3.794-4.694 0-8.5 2.574-8.5 5.75s3.806 5.75 8.5 5.75l.404-.014c-9.043 8.208-20.151 15.155-32.018 21.093-9.194-3.6-13.296-9.487-13.763-10.197-3.232-7.339-3.314-15.105-.229-22.464zm-128.268 73.163c0-6.097 13.151-7.795 28.38-9.762 12.956-1.673 27.64-3.57 40.945-8.487 1.87-.65 44.507-15.575 57.729-29.365 1.711 2.116 5.403 5.898 11.661 8.849-16.015 7.66-33.138 13.572-48.251 18.337-28.101 8.861-38.832 15.752-56.61 27.168-2.782 1.786-4.994 3.683-6.633 5.679-4.432-.273-6.966.57-7.994 1.039-2.805-.357-19.227-2.904-19.227-13.458zm89.037 139.772l-.127-.14-.032-.042c-.213-.207-20.757-20.318-21.518-35.688 2.562-.702 8.25-3.269 16.672-12.647 2.518-2.804 4.801-4.834 6.922-6.308-1.164 9.74-2.303 39.555 22.387 63.061-19.656-2.821-24.181-8.085-24.304-8.236zm98.129-31.02c4.938 0 19.209-.482 34.612-5.369-1.081 24.352-21.057 40.086-55.997 44.839.828-24.094-3.414-37.739-6.112-43.855 6.721 2.644 14.993 4.385 27.497 4.385zm-81.196-27.543c.819.021 1.632.043 2.446.043 6.16 0 19.308 5.317 33.498 13.548 1.411.818 2.761 1.627 4.082 2.418 3.104 1.859 6.083 3.641 9.323 5.226 1.259 2.077 8.576 15.574 7.448 46.159-6.548.755-13.581 1.149-21.1 1.149-1.121 0-2.216-.007-3.291-.02-.972-.011-1.921-.028-2.856-.05l-.262-.005c-1.991-.046-3.892-.115-5.72-.202l-.145-.006-.017-.001c-1.959-.095-3.827-.21-5.607-.345l-.081-.006c-.832-.063-1.64-.132-2.434-.202l-.217-.019c-.855-.078-1.688-.16-2.5-.246-29.865-25.45-25.18-60.409-24.28-65.633 1.285-.606 2.518-1.024 3.716-1.305l.258-.057c2.669-.582 5.176-.517 7.739-.446zm-9.634-2.146c-1.337.383-2.727.922-4.178 1.679l-.058.031c-3.116 1.635-6.516 4.263-10.3 8.478-.483.538-.95 1.038-1.413 1.529l-.459.484c-.349.363-.688.706-1.025 1.043l-.823.811-.012.012-.024.022c-.297.287-.589.564-.877.832-4.313 4.012-7.483 5.793-9.369 6.572l-.019.008-.447.175-.113.042-.332.114-.148.047-.235.07-.172.045-.14.035-.23.048c-27.876-7.71-57.629-42.467-57.629-61.286 0-18.798 11.215-23.268 11.686-23.446l.103-.06.153-.063c.018-.011 1.553-.867 4.989-.917-.846 1.631-1.348 3.317-1.483 5.057-.474 6.062 3.567 10.697 4.955 12.1.427 4.084 2.833 9.464 10.13 15.625.331.279.682.55 1.049.815l.411.279c.241.165.482.331.737.491l.561.335.674.389.684.362.632.318.8.378.579.258c.305.133.614.265.931.394l.489.193c.359.141.721.28 1.093.416l.317.111c.43.153.863.305 1.309.45.891.292 1.814.568 2.761.832l.108.03c.949.263 1.922.511 2.919.746l.09.021c2.001.47 4.09.888 6.239 1.258l.188.032c2.122.362 4.297.679 6.502.955l.266.033c2.183.27 4.389.501 6.596.697l.33.029c2.188.191 4.371.351 6.526.48l.363.022c1.051.062 2.093.117 3.126.167l.357.016c.957.045 1.903.084 2.837.118l.338.014c.979.035 1.943.064 2.893.09l.54.014c.873.021 1.732.041 2.573.056l.24.005c.896.015 1.768.025 2.622.033l.568.004c.839.007 1.665.011 2.456.012-1.418 3.357-3.814 10.381-4.234 20.06zm92.617-37.102c-1.714 3.255-12.392 13.875-77.849 13.876-.041.002-4.127.168-10.275.168-14.435 0-49.18-.989-60.028-10.149-6.611-5.582-9.816-11.353-9.025-16.247.498-3.078 2.509-5.171 4.281-5.88l.167-.026c1.051 0 3.338 1.65 5.987 3.562 9.04 6.521 27.85 20.091 66.604 20.572 28.942.371 47.974-6.131 60.453-10.386 5.88-2.005 10.524-3.589 13.806-3.589 2.361 0 3.913.795 5.189 2.656 1.353 1.974 1.579 3.755.69 5.443zm176.935 12.659l-.048-.065c-.275-.249-27.586-25.419-30.511-67.989-3.058-44.51-38.542-112.729-65.163-112.729-27.4 0-59.833 49.688-59.833 91.666l.003 5.196c.037 37.843.054 61.1-18.125 67.217-.26-.965-.724-1.999-1.474-3.094-1.827-2.664-4.333-3.959-7.664-3.959-3.779 0-8.391 1.572-14.774 3.749-12.287 4.19-31.026 10.595-59.447 10.226-1.054-.013-2.086-.039-3.108-.07l-.912-.032c-.764-.028-1.52-.062-2.266-.1l-.827-.042c-.948-.053-1.882-.113-2.801-.183l-.822-.067c-.662-.054-1.317-.11-1.965-.172l-1.074-.105c-.597-.061-1.185-.127-1.769-.194l-1.071-.125c-.733-.091-1.455-.187-2.168-.287l-1.266-.188-1.156-.18-1.349-.223-.833-.149c-.93-.168-1.844-.342-2.739-.525l-.548-.111c-.528-.111-1.05-.225-1.566-.341l-.422-.096c-1.712-.392-3.358-.811-4.939-1.253l-.064-.019-.024-.007c-9.869-2.772-17.228-6.442-22.83-9.872l-.005-.004c-.542-.331-1.064-.659-1.574-.984l-.097-.062c-1.032-.661-2-1.309-2.908-1.934l-.066-.046-1.175-.818-.3-.212-.912-.648-.291-.209-1.038-.747c-3.569-2.575-5.723-4.129-7.743-4.129-.45 0-.881.081-1.281.241-2.19.876-4.919 3.281-5.9 7.212-1.241-1.832-2.513-4.491-2.269-7.519.326-4.047 3.254-7.873 8.703-11.373 18.166-11.665 28.172-18.091 55.891-26.831 28.438-8.967 63.949-21.968 86.329-43.09 6.529-6.163 12.625-13.815 17.69-21.969.154-.157.261-.338.333-.534 11.688-19.036 17.678-40.698 10.219-52.632-1.98-3.169-4.671-4.859-7.998-5.023-5.471-.271-11.841 3.835-17.328 8.604 1.098-2.214 2.185-4.669 3.326-7.268 4.652-10.593 9.926-22.6 19.813-26.804.409-.167 14.305-5.716 29.164-5.716.718 0 1.422.031 2.118.077l.618.051c.507.043 1.008.096 1.502.161l.594.08c.614.092 1.221.197 1.813.318l.131.024c.662.139 1.309.297 1.942.468l.349.1c.526.147 1.044.304 1.55.471l.334.11c.468.159.926.324 1.374.496l.739.298.591.239.6.266.672.299.646.314.502.245.036.018c.388.196.766.395 1.132.594l.008.004c1.136.619 2.166 1.247 3.075 1.848l.216.142c.375.25.734.497 1.065.733-4.132-.409-6.548-1.249-6.599-1.267-.775-.279-1.636.122-1.919.899-.282.779.12 1.639.898 1.922.297.107 4.796 1.691 12.081 1.691 4.425 0 9.881-.589 16.042-2.444 5.312-.152 9.309-.764 12.193-1.438 1.907-.083 37.896-1.411 48.562 15.2 4.691 7.306 3.812 17.243-2.614 29.536l-.076.189c-5.421 9.266-8.426 18.377-8.426 26.354 0 34.135 28.345 79.598 72.212 115.821 22.881 18.895 42.341 28.955 55.217 35.613 11.457 5.923 18.373 9.499 18.239 14.188-.261 9.131-24.645 11.543-37.501 11.543-11.86 0-51.722-2.037-66.697-28.244-.065-.115-.156-.209-.247-.301z"/>
</svg>
