<?xml version="1.0" encoding="utf-8"?>
<!-- Generator: Adobe Illustrator 15.1.0, SVG Export Plug-In . SVG Version: 6.00 Build 0)  -->
<!DOCTYPE svg PUBLIC "-//W3C//DTD SVG 1.1//EN" "http://www.w3.org/Graphics/SVG/1.1/DTD/svg11.dtd">
<svg version="1.1" id="Layer_1" xmlns="http://www.w3.org/2000/svg" xmlns:xlink="http://www.w3.org/1999/xlink" x="0px" y="0px"
	 width="512px" height="512px" viewBox="0 0 512 512" enable-background="new 0 0 512 512" xml:space="preserve">
<g>
	<path fill="none" d="M130.25,329.25c-0.814,0-1.627-0.021-2.446-0.043c0.203,0.005,0.405,0.006,0.607,0.011
		C129.025,329.232,129.638,329.25,130.25,329.25z"/>
	<path fill="none" d="M263.577,74.103c0.007,0.001,0.013,0.003,0.02,0.005c-0.003,0-0.006-0.001-0.009-0.002
		C263.584,74.104,263.581,74.104,263.577,74.103z"/>
	<polygon fill="none" points="313.659,21.38 313.664,21.384 313.662,21.382 	"/>
	<path fill="none" d="M99,341.981c-4.308,4.007-7.479,5.787-9.369,6.572C91.517,347.774,94.687,345.993,99,341.981z"/>
	<path fill="none" d="M259.327,41.807c0.918-0.292,1.907-0.59,2.958-0.886C261.233,41.217,260.245,41.515,259.327,41.807z"/>
	<path fill="none" d="M271.97,55.895c0.009,0.001,0.018,0.001,0.026,0.002c-0.007,0-0.013-0.001-0.02-0.002
		C271.975,55.896,271.973,55.896,271.97,55.895z"/>
	<path fill="none" d="M447.393,57.24c-4.057-8.322-13.242-12.583-17.439-14.151C434.152,44.661,443.339,48.924,447.393,57.24z"/>
	<path fill="none" d="M271.931,58.894c1.609,0.136,3.228,0.356,4.846,0.668C275.158,59.25,273.54,59.03,271.931,58.894z"/>
	<path fill="none" d="M262.376,40.895c3.481-0.977,7.622-1.908,11.963-2.415C269.998,38.986,265.859,39.916,262.376,40.895z"/>
	<path fill="none" d="M157.092,397.676c-1.989-0.047-3.892-0.115-5.72-0.202C153.2,397.561,155.101,397.63,157.092,397.676z"/>
	<path fill="none" d="M410.989,58.928c0.695,0.678,1.35,1.391,1.954,2.14C412.339,60.318,411.685,59.606,410.989,58.928z"/>
	<path fill="none" d="M412.85,56.579c0.009,0.008,0.018,0.017,0.026,0.025c-0.007-0.006-0.013-0.013-0.019-0.019
		C412.855,56.583,412.853,56.582,412.85,56.579z"/>
	<path fill="none" d="M272.001,80.632c1.136,0.62,2.164,1.248,3.075,1.848C274.167,81.879,273.137,81.251,272.001,80.632z"/>
	<path fill="none" d="M102.023,289.644c-1.712-0.393-3.358-0.811-4.939-1.253C98.665,288.833,100.311,289.252,102.023,289.644z"/>
	<path fill="none" d="M96.996,288.365c-9.867-2.772-17.226-6.444-22.83-9.872C79.768,281.923,87.127,285.593,96.996,288.365z"/>
	<path fill="#C4CEE5" d="M92,265c3-6,9-12,16-13c75-15,133-79,139-154c1-10,11-18,23-18c0.275,0,0.55,0.008,0.825,0.017
		c-0.163-0.083-0.335-0.163-0.502-0.245c-0.215-0.105-0.426-0.211-0.646-0.314c-0.219-0.102-0.447-0.2-0.672-0.299
		c-0.199-0.089-0.395-0.179-0.6-0.266c-0.192-0.082-0.394-0.159-0.591-0.239c-0.245-0.1-0.487-0.202-0.739-0.298
		c-0.448-0.171-0.906-0.337-1.374-0.496c-0.11-0.038-0.223-0.074-0.334-0.11c-0.506-0.167-1.023-0.323-1.55-0.471
		c-0.116-0.033-0.231-0.068-0.349-0.1c-0.634-0.171-1.28-0.329-1.942-0.468c-0.043-0.009-0.088-0.016-0.131-0.024
		c-0.593-0.122-1.199-0.226-1.813-0.318c-0.196-0.029-0.396-0.054-0.594-0.08c-0.494-0.065-0.995-0.118-1.502-0.161
		c-0.206-0.018-0.41-0.037-0.618-0.051c-0.696-0.046-1.4-0.077-2.118-0.077c-14.859,0-28.755,5.549-29.165,5.714
		c-9.888,4.204-15.161,16.21-19.813,26.804c-1.141,2.598-2.228,5.054-3.326,7.268c5.487-4.768,11.857-8.874,17.328-8.604
		c3.326,0.164,6.017,1.854,7.998,5.023c7.459,11.935,1.468,33.597-10.219,52.632c-0.071,0.196-0.179,0.377-0.333,0.534
		c-5.065,8.154-11.161,15.807-17.69,21.969c-22.379,21.122-57.891,34.123-86.329,43.09c-27.719,8.74-37.726,15.166-55.891,26.831
		c-5.449,3.5-8.377,7.326-8.703,11.373c-0.244,3.027,1.028,5.687,2.269,7.519c0.981-3.931,3.71-6.336,5.9-7.212
		c0.4-0.16,0.831-0.241,1.281-0.241c2.02,0,4.174,1.554,7.743,4.129c0.334,0.241,0.683,0.492,1.038,0.747
		c0.095,0.068,0.194,0.14,0.291,0.209c0.296,0.212,0.601,0.428,0.912,0.648c0.099,0.07,0.199,0.141,0.3,0.212
		c0.381,0.268,0.771,0.54,1.175,0.818c0.022,0.016,0.044,0.03,0.066,0.046c0.908,0.625,1.876,1.272,2.908,1.934
		c0.032,0.021,0.064,0.041,0.097,0.062c0.509,0.325,1.032,0.653,1.574,0.984c0.002,0.002,0.003,0.003,0.005,0.004
		c5.604,3.428,12.963,7.1,22.83,9.872c0.008,0.003,0.016,0.005,0.024,0.007C91.472,281.882,89.019,272.949,92,265z"/>
	<path fill="#9EA5C1" d="M454.668,331.165c12.856,0,37.24-2.412,37.501-11.543c0.134-4.689-6.782-8.266-18.239-14.188
		c-12.876-6.658-32.336-16.719-55.217-35.613c-43.867-36.224-72.212-81.687-72.212-115.821c0-7.978,3.005-17.088,8.426-26.354
		c0.023-0.063,0.044-0.127,0.076-0.189c6.426-12.293,7.306-22.23,2.614-29.536c-10.667-16.611-46.655-15.283-48.562-15.2
		c-2.885,0.674-6.881,1.286-12.193,1.438c-6.161,1.855-11.617,2.444-16.042,2.444c-7.285,0-11.784-1.584-12.081-1.691
		c-0.778-0.283-1.181-1.143-0.898-1.922c0.283-0.777,1.144-1.179,1.919-0.899c0.051,0.018,2.467,0.858,6.599,1.267
		c-0.331-0.237-0.69-0.483-1.065-0.733c-0.07-0.047-0.144-0.095-0.216-0.142c-0.911-0.601-1.939-1.229-3.075-1.848
		c-0.003-0.001-0.005-0.002-0.008-0.004c-0.366-0.2-0.744-0.398-1.132-0.594c-0.012-0.006-0.024-0.012-0.036-0.018
		C270.55,80.008,270.275,80,270,80c-12,0-22,8-23,18c-6,75-64,139-139,154c-7,1-13,7-16,13c-2.981,7.949-0.528,16.882,5.021,23.372
		c0.021,0.007,0.042,0.013,0.064,0.019c1.581,0.442,3.227,0.86,4.939,1.253c0.141,0.032,0.281,0.064,0.422,0.096
		c0.516,0.116,1.038,0.229,1.566,0.341c0.181,0.038,0.365,0.074,0.548,0.111c0.895,0.184,1.809,0.357,2.739,0.525
		c0.277,0.05,0.552,0.101,0.833,0.149c0.444,0.076,0.896,0.149,1.349,0.223c0.382,0.062,0.768,0.121,1.156,0.18
		c0.419,0.063,0.839,0.127,1.266,0.188c0.713,0.101,1.436,0.196,2.168,0.287c0.353,0.044,0.713,0.084,1.071,0.125
		c0.584,0.067,1.172,0.134,1.769,0.194c0.355,0.036,0.714,0.071,1.074,0.105c0.647,0.062,1.303,0.118,1.965,0.172
		c0.274,0.022,0.545,0.047,0.822,0.067c0.919,0.069,1.854,0.13,2.801,0.183c0.273,0.016,0.551,0.028,0.827,0.042
		c0.747,0.038,1.502,0.071,2.266,0.1c0.303,0.011,0.606,0.022,0.912,0.032c1.022,0.031,2.055,0.058,3.108,0.07
		c28.421,0.369,47.16-6.035,59.447-10.226c6.383-2.177,10.995-3.749,14.774-3.749c3.33,0,5.836,1.295,7.664,3.959
		c0.75,1.095,1.214,2.129,1.474,3.094c18.179-6.117,18.162-29.374,18.125-67.217l-0.003-5.196c0-41.978,32.433-91.666,59.833-91.666
		c26.621,0,62.105,68.219,65.163,112.729c2.925,42.57,30.235,67.74,30.511,67.989c0.021,0.019,0.028,0.045,0.048,0.065
		c0.092,0.092,0.183,0.186,0.249,0.303C402.946,329.128,442.808,331.165,454.668,331.165z"/>
	<path fill="#CB8443" d="M263.597,74.108c7.618,1.887,13.31,5.748,16.197,8.064c0.079,0.063,0.158,0.125,0.232,0.186
		c0.144,0.117,0.274,0.225,0.402,0.332c0.115,0.097,0.22,0.186,0.323,0.273c0.083,0.072,0.167,0.143,0.242,0.208
		c0.169,0.149,0.322,0.285,0.446,0.399c3.845-0.045,8.476-0.558,13.645-2.019c-0.142-4.164,0.261-8.365,1.1-12.5
		c-0.458-0.401-0.92-0.784-1.384-1.157c-0.14-0.112-0.28-0.221-0.421-0.331c-0.337-0.265-0.676-0.522-1.016-0.773
		c-0.149-0.109-0.298-0.219-0.447-0.326c-0.382-0.274-0.767-0.539-1.153-0.796c-0.091-0.061-0.182-0.125-0.273-0.186
		c-0.481-0.315-0.966-0.617-1.453-0.907c-0.102-0.061-0.205-0.118-0.308-0.178c-0.389-0.227-0.778-0.447-1.17-0.658
		c-0.141-0.076-0.282-0.151-0.423-0.225c-0.386-0.202-0.773-0.397-1.161-0.585c-0.109-0.053-0.219-0.108-0.328-0.16
		c-1.01-0.477-2.025-0.906-3.046-1.289c-0.105-0.04-0.211-0.078-0.317-0.116c-0.423-0.155-0.847-0.303-1.271-0.443
		c-0.098-0.032-0.194-0.065-0.292-0.096c-1.052-0.337-2.106-0.632-3.163-0.882c-0.031-0.007-0.063-0.014-0.095-0.021
		c-0.497-0.116-0.993-0.223-1.49-0.321c-0.065-0.013-0.131-0.025-0.196-0.038c-1.618-0.312-3.236-0.532-4.846-0.668
		c-0.017-0.001-0.033-0.003-0.049-0.004c-0.543-0.045-1.083-0.068-1.624-0.095c-2.745,4.853-4.997,9.981-6.67,15.31
		C263.591,74.106,263.594,74.107,263.597,74.108z"/>
	<path fill="#E5C45D" d="M257.196,73.089c0.47,0.032,0.925,0.088,1.385,0.137c0.296,0.033,0.597,0.057,0.889,0.096
		c0.619,0.082,1.224,0.184,1.822,0.293c0.098,0.018,0.197,0.033,0.295,0.052c0.678,0.129,1.34,0.275,1.99,0.436
		c0.004,0.001,0.007,0.001,0.011,0.002c1.673-5.329,3.925-10.457,6.67-15.31c-0.151-0.008-0.305-0.021-0.456-0.027
		c-0.36-0.015-0.719-0.022-1.077-0.029c-0.442-0.009-0.885-0.016-1.324-0.014c-0.359,0.002-0.717,0.009-1.073,0.019
		c-0.436,0.011-0.869,0.024-1.301,0.045c-0.358,0.018-0.714,0.039-1.069,0.063c-0.426,0.029-0.849,0.061-1.271,0.099
		c-0.356,0.032-0.711,0.066-1.064,0.104c-0.414,0.044-0.826,0.093-1.237,0.146c-0.353,0.045-0.703,0.092-1.053,0.143
		c-0.402,0.059-0.803,0.121-1.2,0.186c-0.35,0.058-0.697,0.116-1.043,0.178c-0.388,0.07-0.771,0.144-1.154,0.22
		c-0.347,0.069-0.693,0.138-1.035,0.211c-0.371,0.08-0.736,0.163-1.102,0.247c-0.343,0.079-0.685,0.158-1.022,0.241
		c-0.354,0.087-0.703,0.178-1.051,0.269c-0.336,0.088-0.674,0.175-1.004,0.267c-0.335,0.092-0.664,0.188-0.993,0.284
		c-0.331,0.096-0.664,0.191-0.987,0.29c-0.318,0.097-0.627,0.196-0.938,0.295c-0.32,0.102-0.643,0.203-0.956,0.307
		c-0.303,0.1-0.595,0.202-0.89,0.304c-0.307,0.106-0.618,0.211-0.917,0.318c-0.287,0.103-0.562,0.206-0.841,0.309
		c-0.292,0.108-0.589,0.215-0.872,0.324c-0.273,0.104-0.534,0.208-0.799,0.313c-0.271,0.107-0.548,0.214-0.81,0.32
		c-0.279,0.113-0.542,0.225-0.81,0.336c-0.23,0.096-0.47,0.193-0.692,0.289c-0.479,0.205-0.943,0.408-1.384,0.606
		c-0.016,0.007-0.031,0.014-0.047,0.021c-0.927,0.417-1.767,0.815-2.511,1.181c-0.022,0.011-0.045,0.022-0.067,0.033
		c-0.485,0.239-0.93,0.465-1.329,0.672c-0.02,0.01-0.038,0.02-0.058,0.03c-0.171,0.089-0.334,0.175-0.489,0.257
		c-0.032,0.017-0.063,0.034-0.094,0.05c-0.16,0.085-0.312,0.167-0.451,0.242c-0.005,0.003-0.011,0.006-0.016,0.009
		c-0.145,0.079-0.276,0.151-0.398,0.219c-0.031,0.017-0.059,0.033-0.088,0.049c-0.087,0.049-0.168,0.095-0.243,0.137
		c-0.027,0.015-0.056,0.031-0.081,0.046c-0.088,0.05-0.169,0.097-0.236,0.135c-1.831,3.009-3.489,6.074-4.933,9.183
		C232.969,75.978,243.464,73,254.75,73C255.581,73,256.396,73.033,257.196,73.089z"/>
	<path fill="#CB8443" d="M271.977,55.896c0.007,0,0.013,0.001,0.02,0.002c1.497,0.119,3.001,0.308,4.509,0.569
		c0.131,0.022,0.262,0.045,0.393,0.069c0.446,0.081,0.893,0.167,1.339,0.262c0.146,0.031,0.292,0.066,0.438,0.099
		c0.743,0.166,1.484,0.351,2.226,0.556c0.245,0.067,0.491,0.132,0.736,0.205c0.347,0.103,0.693,0.212,1.04,0.324
		c0.309,0.099,0.617,0.203,0.925,0.31c0.313,0.109,0.627,0.216,0.939,0.333c0.575,0.214,1.148,0.439,1.721,0.68
		c0.224,0.095,0.446,0.199,0.669,0.298c0.425,0.188,0.848,0.381,1.27,0.584c0.243,0.117,0.485,0.236,0.727,0.359
		c0.465,0.234,0.928,0.48,1.39,0.735c0.166,0.091,0.332,0.177,0.498,0.271c0.614,0.35,1.226,0.72,1.833,1.107
		c0.171,0.109,0.341,0.224,0.512,0.336c0.473,0.31,0.943,0.632,1.411,0.966c0.182,0.129,0.363,0.258,0.544,0.391
		c0.615,0.453,1.227,0.919,1.833,1.415c1.531-5.927,3.886-11.648,6.698-16.844c-0.35-0.572-0.725-1.106-1.109-1.625
		c-0.088-0.12-0.177-0.239-0.268-0.355c-0.382-0.493-0.777-0.967-1.189-1.412c-0.067-0.072-0.138-0.138-0.205-0.208
		c-0.365-0.383-0.743-0.746-1.13-1.093c-0.112-0.101-0.223-0.204-0.337-0.302c-0.43-0.369-0.87-0.717-1.322-1.045
		c-0.137-0.099-0.276-0.191-0.414-0.286c-0.36-0.248-0.727-0.483-1.1-0.708c-0.149-0.09-0.296-0.185-0.447-0.271
		c-0.447-0.256-0.906-0.492-1.37-0.716c-0.212-0.103-0.427-0.199-0.642-0.295c-0.324-0.145-0.652-0.281-0.983-0.412
		c-0.342-0.135-0.687-0.263-1.035-0.383c-0.306-0.105-0.613-0.208-0.923-0.304c-0.291-0.089-0.583-0.174-0.877-0.253
		c-0.243-0.066-0.488-0.125-0.733-0.185c-0.526-0.128-1.058-0.243-1.593-0.344c-0.188-0.036-0.376-0.071-0.565-0.104
		c-0.359-0.061-0.72-0.12-1.083-0.17c-0.001,0-0.001,0-0.002,0C280.806,43.595,275.961,49.478,271.977,55.896z"/>
	<path fill="#E5C45D" d="M237.728,62.675c0.352-0.157,0.713-0.315,1.088-0.477c0.141-0.061,0.281-0.121,0.424-0.182
		c0.441-0.187,0.896-0.375,1.364-0.565c0.075-0.03,0.146-0.06,0.222-0.09c1.153-0.463,2.389-0.929,3.694-1.386
		c0.068-0.023,0.136-0.047,0.205-0.071c0.618-0.215,1.25-0.426,1.898-0.634c0.039-0.013,0.077-0.025,0.116-0.038
		c7.14-2.284,16.021-4.069,25.231-3.338c0.003,0,0.005,0,0.007,0c3.984-6.418,8.829-12.3,14.34-17.442
		c-0.006-0.001-0.013-0.001-0.019-0.002c-0.846-0.117-1.7-0.2-2.56-0.26c-0.111-0.008-0.223-0.016-0.335-0.023
		c-1.334-0.082-2.679-0.099-4.021-0.063c-0.039,0.001-0.079,0.001-0.118,0.002c-1.656,0.049-3.304,0.183-4.926,0.372
		c-4.341,0.506-8.481,1.438-11.963,2.415c-0.03,0.009-0.061,0.017-0.091,0.026c-1.051,0.296-2.04,0.595-2.958,0.886
		c-0.067,0.021-0.136,0.043-0.202,0.064c-0.856,0.274-1.645,0.541-2.357,0.791c-0.098,0.034-0.195,0.068-0.29,0.102
		c-0.202,0.072-0.4,0.143-0.589,0.21c-0.134,0.049-0.259,0.095-0.386,0.142c-0.248,0.091-0.482,0.179-0.701,0.262
		c-0.133,0.05-0.265,0.101-0.387,0.147c-0.107,0.042-0.214,0.082-0.313,0.121c-0.183,0.071-0.357,0.14-0.509,0.201
		c-0.06,0.024-0.11,0.044-0.165,0.066c-0.13,0.052-0.252,0.102-0.354,0.144c-0.039,0.016-0.078,0.032-0.112,0.046
		c-0.113,0.047-0.217,0.09-0.286,0.12c-6.249,5.869-11.894,12.36-16.641,19.228c0.411-0.194,0.849-0.396,1.302-0.601
		C237.464,62.792,237.597,62.733,237.728,62.675z"/>
	<path fill="#54628D" d="M204.907,281.859c-3.282,0-7.926,1.584-13.806,3.589c-12.479,4.255-31.51,10.757-60.453,10.386
		c-38.754-0.481-57.564-14.051-66.604-20.572c-2.649-1.911-4.937-3.562-5.987-3.562c-0.068,0-0.122,0.009-0.167,0.026
		c-1.772,0.709-3.783,2.802-4.281,5.88c-0.792,4.895,2.414,10.665,9.025,16.247c10.848,9.16,45.593,10.149,60.028,10.149
		c6.147,0,10.234-0.166,10.275-0.168c65.457-0.001,76.134-10.621,77.849-13.876c0.89-1.688,0.664-3.469-0.69-5.443
		C208.82,282.654,207.268,281.859,204.907,281.859z"/>
	<path fill="#E6EDF6" d="M215.891,161.89c10.924-18.45,15.498-38.238,9.337-48.095c-1.45-2.319-3.282-3.502-5.602-3.617
		c-8.141-0.4-20.433,12.304-26.173,19.222c-3.271,4.139-7.025,8.475-11.049,13.119c-2.5,2.885-5.063,5.845-7.663,8.932
		C183.281,149.762,202.086,148.116,215.891,161.89z"/>
	<path fill="#E5C45D" d="M260.683,38.197c0.338-0.1,0.682-0.2,1.033-0.3c0.157-0.045,0.315-0.089,0.477-0.134
		c0.387-0.107,0.782-0.214,1.184-0.32c0.117-0.031,0.232-0.062,0.352-0.093c1.072-0.278,2.192-0.545,3.348-0.796
		c0.106-0.023,0.215-0.045,0.322-0.068c0.488-0.104,0.983-0.204,1.484-0.3c0.107-0.021,0.215-0.042,0.322-0.062
		c0.591-0.111,1.187-0.217,1.791-0.316c0.001,0,0.002,0,0.003,0c1.277-0.208,2.583-0.384,3.905-0.522
		c0.06-0.006,0.118-0.012,0.177-0.018c0.609-0.062,1.222-0.115,1.837-0.158c0.051-0.004,0.101-0.008,0.151-0.011
		c2.005-0.137,4.033-0.17,6.054-0.069c0.048,0.002,0.096,0.005,0.144,0.008c0.642,0.034,1.282,0.082,1.92,0.145
		c0.028,0.002,0.057,0.005,0.085,0.008c1.355,0.136,2.7,0.338,4.022,0.62c6.332-5.384,13.413-9.823,20.959-13.057
		c-0.002-0.001-0.004-0.002-0.005-0.003c-0.372-0.225-0.753-0.433-1.137-0.632c-0.111-0.058-0.225-0.114-0.337-0.17
		c-0.299-0.148-0.6-0.291-0.902-0.425c-0.102-0.044-0.201-0.092-0.303-0.135c-0.393-0.168-0.788-0.326-1.185-0.473
		c-0.072-0.027-0.146-0.05-0.219-0.077c-0.334-0.12-0.67-0.233-1.005-0.34c-0.117-0.037-0.233-0.073-0.35-0.108
		c-0.335-0.102-0.669-0.197-1.002-0.286c-0.069-0.019-0.139-0.039-0.207-0.057c-0.399-0.104-0.795-0.197-1.188-0.284
		c-0.097-0.021-0.192-0.041-0.288-0.061c-0.307-0.065-0.611-0.126-0.911-0.182c-0.105-0.019-0.21-0.039-0.314-0.058
		c-0.76-0.134-1.493-0.24-2.188-0.322c-0.097-0.011-0.191-0.022-0.287-0.033c-0.269-0.03-0.53-0.057-0.786-0.08
		c-0.076-0.007-0.154-0.015-0.229-0.021c-0.318-0.028-0.627-0.051-0.92-0.07c-0.05-0.003-0.095-0.005-0.143-0.008
		c-0.246-0.015-0.481-0.027-0.706-0.037c-0.075-0.003-0.148-0.006-0.222-0.009c-0.216-0.008-0.422-0.015-0.613-0.019
		c-0.035-0.001-0.073-0.002-0.107-0.003c-0.223-0.004-0.427-0.006-0.612-0.007c-0.05,0-0.093,0-0.14,0
		c-0.134,0-0.26,0.001-0.37,0.002c-0.04,0.001-0.082,0.001-0.119,0.002c-0.126,0.002-0.242,0.005-0.327,0.008
		c-11.772,4.175-23.619,11.127-34.218,19.875c0.433-0.138,0.884-0.276,1.344-0.415C260.396,38.281,260.54,38.239,260.683,38.197z"/>
	<path fill="#CB8443" d="M291.315,36.31c0.128,0.036,0.257,0.07,0.385,0.108c0.283,0.083,0.564,0.172,0.845,0.263
		c0.164,0.054,0.326,0.11,0.489,0.166c0.268,0.093,0.535,0.185,0.8,0.285c0.271,0.103,0.538,0.214,0.805,0.325
		c0.319,0.133,0.636,0.272,0.949,0.417c0.218,0.101,0.436,0.202,0.65,0.309c0.206,0.102,0.41,0.207,0.613,0.315
		c0.244,0.129,0.485,0.265,0.725,0.402c0.168,0.096,0.337,0.188,0.503,0.289c0.38,0.23,0.754,0.473,1.124,0.725
		c0.143,0.098,0.282,0.201,0.424,0.303c0.262,0.188,0.521,0.381,0.778,0.581c0.142,0.11,0.282,0.221,0.422,0.335
		c0.303,0.248,0.602,0.505,0.896,0.771c0.073,0.067,0.149,0.129,0.223,0.197c0.359,0.333,0.709,0.684,1.052,1.046
		c0.104,0.108,0.203,0.221,0.305,0.332c0.257,0.282,0.51,0.571,0.757,0.87c0.1,0.12,0.2,0.239,0.298,0.361
		c0.327,0.411,0.649,0.832,0.959,1.275c3.57-5.982,7.686-11.115,11.7-14.827c-0.137-0.448-0.296-0.875-0.467-1.291
		c-0.053-0.13-0.112-0.253-0.169-0.38c-0.127-0.284-0.26-0.562-0.401-0.832c-0.071-0.134-0.144-0.267-0.218-0.397
		c-0.149-0.261-0.307-0.515-0.47-0.762c-0.072-0.11-0.142-0.223-0.217-0.33c-0.237-0.339-0.484-0.667-0.746-0.98
		c-0.004-0.004-0.007-0.009-0.011-0.013c-0.266-0.317-0.548-0.616-0.837-0.906c-0.092-0.093-0.188-0.18-0.282-0.271
		c-0.205-0.195-0.414-0.386-0.628-0.57c-0.11-0.093-0.221-0.186-0.332-0.276c-0.219-0.177-0.441-0.347-0.668-0.512
		c-0.104-0.076-0.207-0.155-0.312-0.229c-0.316-0.22-0.638-0.432-0.966-0.632c-0.014-0.008-0.026-0.018-0.04-0.026
		c-7.546,3.234-14.627,7.673-20.959,13.057C289.975,35.954,290.647,36.123,291.315,36.31z"/>
	<path fill="#E5C45D" d="M342.21,61.789c0.339-0.01,0.678-0.019,1.03-0.024c0.307-0.005,0.621-0.006,0.938-0.008
		c0.277-0.001,0.555-0.001,0.838,0.001c0.381,0.002,0.765,0.008,1.157,0.016c0.209,0.005,0.421,0.012,0.633,0.018
		c0.468,0.014,0.938,0.03,1.419,0.053c0.056,0.003,0.112,0.007,0.168,0.01c6.831,0.345,14.884,1.723,21.85,5.514
		c12.036-5.432,25.113-8.811,38.545-10.371c-0.361-0.286-0.73-0.563-1.105-0.835c-0.128-0.092-0.259-0.18-0.388-0.271
		c-0.252-0.178-0.506-0.354-0.764-0.526c-0.154-0.103-0.312-0.202-0.469-0.303c-0.239-0.154-0.479-0.307-0.723-0.456
		c-0.165-0.101-0.331-0.2-0.497-0.298c-0.242-0.144-0.485-0.284-0.731-0.423c-0.167-0.095-0.335-0.188-0.504-0.281
		c-0.252-0.138-0.507-0.273-0.763-0.406c-0.163-0.085-0.326-0.172-0.491-0.255c-0.278-0.142-0.56-0.278-0.841-0.414
		c-0.142-0.068-0.282-0.139-0.424-0.206c-0.401-0.188-0.805-0.373-1.209-0.551c-0.023-0.01-0.047-0.021-0.07-0.032
		c-0.428-0.188-0.857-0.368-1.287-0.544c-0.146-0.06-0.293-0.117-0.439-0.175c-0.286-0.114-0.572-0.228-0.858-0.337
		c-0.169-0.064-0.338-0.127-0.507-0.19c-0.266-0.099-0.531-0.196-0.795-0.291c-0.176-0.062-0.35-0.123-0.524-0.184
		c-0.261-0.09-0.52-0.179-0.779-0.265c-0.171-0.057-0.343-0.114-0.513-0.17c-0.268-0.086-0.532-0.17-0.797-0.253
		c-0.16-0.05-0.32-0.101-0.479-0.149c-0.289-0.088-0.576-0.172-0.862-0.256c-0.13-0.038-0.261-0.077-0.39-0.114
		c-0.832-0.237-1.649-0.456-2.445-0.655c-0.12-0.03-0.238-0.059-0.358-0.088c-0.274-0.068-0.547-0.134-0.815-0.198
		c-0.143-0.034-0.283-0.065-0.424-0.098c-0.244-0.056-0.486-0.111-0.724-0.164c-0.144-0.032-0.285-0.062-0.426-0.093
		c-0.23-0.05-0.458-0.098-0.683-0.145c-0.135-0.028-0.27-0.056-0.401-0.083c-0.231-0.047-0.459-0.092-0.683-0.135
		c-0.117-0.023-0.235-0.046-0.351-0.068c-0.244-0.046-0.481-0.09-0.715-0.132c-0.086-0.016-0.175-0.032-0.259-0.047
		c-0.639-0.114-1.237-0.213-1.789-0.299c-0.07-0.011-0.135-0.021-0.204-0.031c-0.2-0.031-0.396-0.061-0.583-0.088
		c-0.085-0.013-0.166-0.024-0.248-0.036c-0.161-0.023-0.319-0.045-0.47-0.066c-0.079-0.011-0.156-0.021-0.232-0.032
		c-0.143-0.019-0.279-0.037-0.41-0.053c-0.069-0.009-0.138-0.018-0.204-0.026c-0.126-0.016-0.245-0.03-0.358-0.044
		c-0.055-0.006-0.112-0.013-0.164-0.019c-0.121-0.014-0.232-0.027-0.336-0.038c-0.028-0.003-0.062-0.007-0.088-0.01
		c-0.129-0.014-0.243-0.026-0.339-0.036c-15.219,3.879-27.992,9.857-37.944,15.753c0.513-0.03,1.053-0.054,1.609-0.075
		C341.753,61.8,341.984,61.795,342.21,61.789z"/>
	<path fill="#CB8443" d="M372.345,68.611c0.269,0.17,0.537,0.339,0.802,0.518c0.246,0.168,0.488,0.34,0.73,0.515
		c0.586,0.42,1.163,0.854,1.721,1.322c6.409,5.376,9.96,12.965,10.597,22.572c9.996-7.564,20.63-13.441,31.083-17.27
		c0.585-5.774-0.854-10.89-4.334-15.202c-0.604-0.749-1.259-1.462-1.954-2.14c-0.016-0.016-0.033-0.03-0.049-0.045
		c-0.332-0.322-0.673-0.638-1.022-0.944c-0.094-0.082-0.193-0.159-0.288-0.24c-0.277-0.237-0.555-0.474-0.842-0.701
		c0,0-0.001,0-0.001-0.001c-13.432,1.56-26.509,4.938-38.545,10.371C370.956,67.755,371.656,68.17,372.345,68.611z"/>
	<path fill="#FFFFFF" d="M164.095,207.496c11.867-5.938,22.974-12.885,32.018-21.093c-0.135,0.004-0.268,0.014-0.404,0.014
		c-4.694,0-8.5-2.574-8.5-5.75s3.806-5.75,8.5-5.75c3.677,0,6.8,1.583,7.985,3.794c3.917-4.441,7.471-9.241,10.58-14.178
		c-16.855-17.489-42.396-9.352-43.099-9.122c-9.753,3.663-17.433,10.742-21.072,19.424c-3.085,7.359-3.003,15.125,0.23,22.463
		C150.799,198.008,154.901,203.896,164.095,207.496z"/>
	<path fill="#E5C45D" d="M438.552,44.076c0.211,0.13,0.421,0.263,0.633,0.399c0.089,0.057,0.178,0.115,0.267,0.173
		c0.243,0.159,0.486,0.322,0.729,0.489c0.049,0.033,0.097,0.065,0.146,0.099c0.304,0.21,0.606,0.427,0.91,0.65
		c0.027,0.02,0.055,0.042,0.082,0.062c0.271,0.201,0.543,0.408,0.812,0.62c0.057,0.045,0.114,0.09,0.171,0.135
		c0.264,0.209,0.526,0.424,0.787,0.644c0.032,0.027,0.065,0.054,0.098,0.082c0.613,0.52,1.215,1.068,1.801,1.646
		c0.007,0.007,0.014,0.014,0.021,0.021c0.287,0.284,0.569,0.575,0.847,0.873c0.013,0.013,0.025,0.026,0.037,0.04
		c2.018,2.17,3.77,4.721,4.946,7.69c9.246,1.326,18.312,3.379,26.957,6.1c-0.013-0.032-0.023-0.061-0.037-0.094
		c-0.066-0.166-0.14-0.34-0.227-0.531c-0.035-0.078-0.069-0.154-0.108-0.236c-0.039-0.081-0.083-0.167-0.126-0.252
		c-0.046-0.092-0.094-0.186-0.146-0.283c-0.046-0.086-0.095-0.175-0.144-0.265c-0.061-0.108-0.124-0.218-0.189-0.331
		c-0.051-0.087-0.103-0.174-0.157-0.264c-0.079-0.131-0.166-0.266-0.254-0.401c-0.051-0.08-0.1-0.157-0.153-0.238
		c-0.146-0.218-0.301-0.442-0.469-0.672c-0.021-0.028-0.046-0.059-0.066-0.087c-0.151-0.205-0.312-0.414-0.481-0.626
		c-0.062-0.078-0.131-0.159-0.196-0.238c-0.139-0.169-0.281-0.34-0.433-0.513c-0.078-0.09-0.16-0.181-0.242-0.272
		c-0.152-0.17-0.312-0.342-0.477-0.516c-0.087-0.092-0.175-0.184-0.266-0.277c-0.184-0.187-0.377-0.376-0.575-0.567
		c-0.082-0.08-0.161-0.158-0.246-0.238c-0.285-0.267-0.581-0.536-0.896-0.807c-0.005-0.004-0.009-0.009-0.014-0.013
		c-0.324-0.279-0.668-0.562-1.025-0.845c-0.087-0.068-0.18-0.137-0.269-0.205c-0.273-0.212-0.554-0.424-0.847-0.637
		c-0.126-0.091-0.257-0.183-0.386-0.274c-0.273-0.193-0.556-0.387-0.846-0.581c-0.146-0.096-0.291-0.193-0.44-0.289
		c-0.305-0.198-0.622-0.395-0.945-0.592c-0.143-0.087-0.282-0.174-0.428-0.26c-0.405-0.24-0.826-0.48-1.261-0.718
		c-0.075-0.042-0.145-0.083-0.221-0.125c-0.522-0.283-1.066-0.565-1.631-0.845c-0.109-0.054-0.228-0.107-0.338-0.162
		c-0.452-0.22-0.914-0.438-1.394-0.655c-0.192-0.087-0.392-0.172-0.588-0.259c-0.419-0.183-0.846-0.365-1.285-0.546
		c-0.227-0.093-0.456-0.185-0.688-0.277c-0.442-0.176-0.897-0.349-1.361-0.521c-0.234-0.087-0.466-0.174-0.706-0.261
		c-0.527-0.189-1.072-0.375-1.626-0.559c-0.189-0.063-0.372-0.127-0.564-0.189c-0.758-0.245-1.537-0.485-2.345-0.719
		c-0.115-0.033-0.238-0.064-0.354-0.098c-0.689-0.197-1.396-0.39-2.124-0.577c-0.279-0.072-0.57-0.142-0.855-0.212
		c-0.586-0.146-1.18-0.289-1.789-0.428c-0.335-0.077-0.677-0.151-1.02-0.226c-0.596-0.13-1.205-0.256-1.824-0.38
		c-0.354-0.07-0.707-0.141-1.068-0.21c-0.671-0.127-1.36-0.249-2.057-0.368c-0.326-0.056-0.645-0.114-0.977-0.168
		c-1.035-0.168-2.092-0.331-3.185-0.481c0.281,0.163,0.565,0.333,0.851,0.507C438.382,43.97,438.467,44.023,438.552,44.076z"/>
	<path fill="#CB8443" d="M451.765,60.619c0.009,0.033,0.016,0.066,0.023,0.099c0.235,0.992,0.408,2.024,0.508,3.098
		c0.006,0.07,0.011,0.142,0.017,0.212c0.037,0.456,0.062,0.918,0.072,1.388c0.003,0.097,0.007,0.192,0.008,0.289
		c0.006,0.53-0.003,1.068-0.033,1.618c-0.004,0.082-0.013,0.166-0.019,0.248c-0.029,0.465-0.073,0.938-0.13,1.417
		c-0.018,0.15-0.036,0.301-0.057,0.453c-0.075,0.563-0.164,1.134-0.278,1.716c21.098-0.241,25.816-2.252,26.704-3.481
		c0.17-0.236,0.15-0.459-0.113-1.253c-0.147-0.445-0.3-0.905-0.3-1.422c0-0.007-0.006-0.041-0.017-0.089
		c-0.001-0.006-0.004-0.017-0.005-0.024c-0.012-0.05-0.028-0.119-0.051-0.201c-0.003-0.012-0.007-0.025-0.01-0.038
		c-0.024-0.089-0.059-0.199-0.098-0.318c-0.015-0.046-0.033-0.098-0.051-0.148c-0.025-0.074-0.055-0.154-0.086-0.237
		c-0.018-0.046-0.037-0.096-0.056-0.145c-8.646-2.721-17.711-4.774-26.957-6.1C451.207,58.63,451.52,59.603,451.765,60.619z"/>
	<path fill="#E5C45D" d="M388.159,44.811c0.318,0.073,0.634,0.145,0.96,0.223c0.304,0.073,0.614,0.153,0.924,0.231
		c0.258,0.065,0.513,0.129,0.773,0.198c0.363,0.095,0.731,0.197,1.102,0.3c0.211,0.059,0.421,0.117,0.633,0.179
		c0.416,0.119,0.834,0.245,1.255,0.374c0.166,0.051,0.33,0.102,0.496,0.154c0.468,0.147,0.937,0.299,1.409,0.458
		c0.107,0.037,0.215,0.074,0.323,0.111c0.529,0.181,1.059,0.369,1.592,0.566c0.019,0.007,0.038,0.015,0.058,0.021
		c4.801,1.784,9.684,4.252,13.703,7.639c0.002,0.001,0.004,0.003,0.006,0.005c0.5,0.421,0.986,0.857,1.457,1.308
		c0.003,0.002,0.006,0.004,0.008,0.007c11.461-1.017,23.112-0.748,34.536,0.656c-0.001-0.001-0.001-0.001-0.001-0.002
		c-4.054-8.316-13.24-12.579-17.439-14.151c-0.04-0.015-0.081-0.031-0.12-0.045c-0.129-0.047-0.253-0.093-0.371-0.135
		c-0.055-0.02-0.106-0.038-0.159-0.056c-0.161-0.057-0.31-0.108-0.447-0.155c-0.076-0.025-0.156-0.053-0.225-0.075
		c-0.061-0.02-0.114-0.037-0.169-0.055c-0.07-0.022-0.14-0.044-0.199-0.063c-0.036-0.011-0.072-0.023-0.104-0.033
		c-0.084-0.026-0.163-0.05-0.219-0.066c-4.836-0.368-10.134-0.571-15.939-0.571c-9.276,0-17.995,0.925-26.107,2.487
		c0.51,0.102,1.037,0.213,1.577,0.333C387.695,44.702,387.93,44.758,388.159,44.811z"/>
	<path fill="#CB8443" d="M412.857,56.586c0.006,0.006,0.012,0.012,0.019,0.019c0.406,0.39,0.807,0.785,1.188,1.197
		c0.421,0.446,0.828,0.905,1.213,1.382c3.718,4.605,5.428,9.983,5.11,16.01c8.002-2.627,15.849-4.029,23.166-4.029l0.458,0.002
		c1.229,0.009,2.413,0.014,3.561,0.014c0.419,0,0.818-0.002,1.227-0.003c0.148-0.676,0.265-1.335,0.355-1.983
		c0.026-0.187,0.036-0.364,0.058-0.548c0.054-0.459,0.105-0.917,0.132-1.362c0.012-0.192,0.009-0.377,0.016-0.566
		c0.014-0.43,0.025-0.858,0.016-1.275c-0.005-0.17-0.019-0.335-0.027-0.504c-0.021-0.429-0.048-0.855-0.094-1.27
		c-0.016-0.14-0.037-0.275-0.056-0.414c-0.059-0.438-0.125-0.872-0.21-1.293c-0.021-0.105-0.046-0.208-0.068-0.312
		c-0.099-0.451-0.209-0.896-0.336-1.329c-0.021-0.069-0.041-0.137-0.062-0.205c-0.143-0.467-0.299-0.925-0.473-1.37
		c-0.013-0.033-0.025-0.065-0.038-0.098c-0.189-0.48-0.395-0.948-0.616-1.404c0-0.001-0.001-0.001-0.001-0.002
		C435.97,55.838,424.318,55.569,412.857,56.586z"/>
	<path fill="#CB8443" d="M344.636,84.769c0.172,0.067,0.345,0.134,0.516,0.203c0.271,0.108,0.537,0.221,0.805,0.333
		c0.187,0.08,0.373,0.16,0.559,0.241c0.257,0.112,0.513,0.227,0.767,0.343c0.197,0.091,0.392,0.184,0.586,0.277
		c0.242,0.116,0.485,0.23,0.725,0.351c0.233,0.117,0.463,0.24,0.692,0.36c0.351,0.185,0.697,0.373,1.04,0.567
		c0.239,0.135,0.479,0.27,0.715,0.41c0.193,0.115,0.382,0.234,0.572,0.352c0.223,0.139,0.445,0.278,0.664,0.42
		c0.185,0.121,0.367,0.243,0.549,0.366c0.224,0.152,0.443,0.308,0.663,0.464c0.167,0.121,0.335,0.24,0.5,0.364
		c0.254,0.19,0.501,0.385,0.747,0.583c0.122,0.097,0.246,0.19,0.365,0.29c0.355,0.293,0.701,0.594,1.039,0.903
		c0.106,0.097,0.208,0.199,0.312,0.298c0.239,0.226,0.476,0.454,0.705,0.688c0.122,0.125,0.24,0.252,0.36,0.379
		c0.207,0.22,0.409,0.443,0.608,0.67c0.115,0.132,0.229,0.265,0.342,0.399c0.204,0.245,0.401,0.495,0.596,0.749
		c0.092,0.12,0.187,0.238,0.276,0.36c0.277,0.377,0.547,0.761,0.801,1.156c3.583,5.577,4.361,12.373,2.367,20.283
		c4.543-5.783,9.944-11.474,16.064-16.832c1.552-1.358,3.127-2.669,4.72-3.943c-0.194-9.75-3.421-17.332-9.614-22.531
		c-0.479-0.402-0.975-0.781-1.478-1.148c-0.147-0.107-0.298-0.208-0.447-0.312c-0.373-0.261-0.751-0.514-1.136-0.757
		c-0.158-0.1-0.317-0.199-0.477-0.296c-0.426-0.257-0.857-0.505-1.295-0.742c-0.107-0.058-0.213-0.12-0.321-0.177
		c-0.569-0.3-1.146-0.586-1.73-0.854c-8.306,4.095-16.062,9.211-23.021,15.451C344.062,84.544,344.349,84.657,344.636,84.769z"/>
	<path fill="#E5C45D" d="M317.771,79.759c0.311,0.014,0.625,0.028,0.946,0.045c0.16,0.008,0.322,0.018,0.484,0.026
		c0.317,0.018,0.639,0.037,0.965,0.058c0.165,0.01,0.33,0.021,0.497,0.033c0.352,0.024,0.708,0.051,1.068,0.079
		c0.146,0.011,0.289,0.022,0.436,0.034c0.468,0.038,0.943,0.08,1.426,0.125c0.041,0.004,0.08,0.007,0.121,0.011
		c1.088,0.104,2.21,0.229,3.355,0.375c0.104,0.014,0.21,0.028,0.314,0.042c0.464,0.061,0.931,0.125,1.4,0.193
		c0.128,0.019,0.256,0.038,0.384,0.057c0.468,0.07,0.938,0.144,1.411,0.222c0.114,0.019,0.228,0.038,0.343,0.057
		c0.529,0.089,1.061,0.184,1.595,0.285c0.054,0.01,0.106,0.019,0.159,0.029c1.224,0.232,2.455,0.493,3.687,0.787
		c0.017,0.004,0.034,0.008,0.051,0.013c0.574,0.137,1.147,0.282,1.72,0.434c0.098,0.026,0.195,0.053,0.294,0.08
		c0.5,0.135,0.999,0.276,1.497,0.422c0.114,0.034,0.229,0.068,0.343,0.102c0.5,0.15,0.998,0.308,1.493,0.47
		c0.094,0.031,0.188,0.061,0.28,0.092c0.582,0.194,1.159,0.396,1.732,0.608c6.958-6.24,14.715-11.356,23.021-15.451
		c-0.002,0-0.003-0.001-0.004-0.001c-0.411-0.188-0.826-0.368-1.244-0.541c-0.242-0.1-0.486-0.192-0.73-0.287
		c-0.213-0.083-0.426-0.167-0.641-0.247c-0.25-0.092-0.503-0.18-0.755-0.267c-0.209-0.072-0.419-0.145-0.63-0.214
		c-0.256-0.084-0.512-0.166-0.769-0.245c-0.208-0.064-0.417-0.126-0.626-0.187c-0.26-0.076-0.52-0.151-0.779-0.223
		c-0.203-0.055-0.405-0.106-0.608-0.159c-0.269-0.069-0.536-0.141-0.805-0.205c-0.136-0.033-0.272-0.061-0.408-0.093
		c-0.575-0.133-1.149-0.255-1.724-0.368c-0.185-0.036-0.369-0.074-0.553-0.108c-0.274-0.051-0.548-0.097-0.82-0.143
		c-0.194-0.033-0.389-0.066-0.582-0.097c-0.271-0.043-0.54-0.083-0.81-0.123c-0.193-0.028-0.387-0.055-0.58-0.082
		c-0.269-0.036-0.537-0.072-0.804-0.104c-0.188-0.023-0.374-0.043-0.561-0.064c-0.27-0.03-0.539-0.062-0.806-0.088
		c-0.162-0.017-0.321-0.03-0.482-0.044c-0.552-0.051-1.099-0.095-1.639-0.132c-0.14-0.009-0.282-0.021-0.421-0.029
		c-0.26-0.016-0.516-0.029-0.772-0.042c-0.179-0.009-0.359-0.019-0.536-0.027c-0.246-0.011-0.488-0.02-0.73-0.028
		c-0.181-0.006-0.36-0.012-0.539-0.017c-0.237-0.006-0.473-0.012-0.706-0.016c-0.178-0.003-0.354-0.005-0.529-0.007
		c-0.227-0.002-0.453-0.005-0.676-0.005c-0.173,0-0.342,0.001-0.513,0.002c-0.418,0.002-0.827,0.007-1.227,0.015
		c-0.152,0.003-0.308,0.005-0.457,0.009c-0.196,0.005-0.386,0.012-0.576,0.019c-0.172,0.005-0.345,0.011-0.512,0.018
		c-0.182,0.007-0.358,0.015-0.535,0.023c-0.168,0.008-0.336,0.016-0.499,0.024c-0.167,0.009-0.331,0.018-0.493,0.027
		c-0.165,0.01-0.326,0.02-0.485,0.03c-0.151,0.01-0.303,0.02-0.448,0.03c-0.172,0.012-0.336,0.025-0.5,0.038
		c-0.12,0.009-0.244,0.019-0.361,0.028c-0.266,0.022-0.522,0.044-0.767,0.067c-0.099,0.009-0.188,0.018-0.282,0.027
		c-0.154,0.015-0.31,0.03-0.453,0.045c-0.102,0.01-0.195,0.021-0.291,0.031c-0.128,0.014-0.256,0.028-0.374,0.041
		c-0.084,0.009-0.164,0.019-0.243,0.028c-0.118,0.014-0.232,0.028-0.34,0.041c-0.069,0.009-0.14,0.017-0.204,0.025
		c-0.11,0.014-0.213,0.027-0.31,0.04c-0.041,0.006-0.087,0.012-0.126,0.017c-0.133,0.018-0.254,0.035-0.354,0.049
		c-9.943,6.527-16.159,12.332-18.085,14.228c0.409,0.012,0.834,0.027,1.269,0.045C317.493,79.746,317.633,79.753,317.771,79.759z"/>
	<path fill="#CB8443" d="M313.664,21.384c0.276,0.21,0.546,0.431,0.812,0.657c0.062,0.052,0.122,0.105,0.183,0.159
		c0.247,0.216,0.491,0.436,0.728,0.667c0.069,0.067,0.135,0.139,0.203,0.207c0.371,0.373,0.726,0.765,1.066,1.177
		c0.129,0.155,0.261,0.306,0.385,0.467c0.131,0.169,0.253,0.349,0.378,0.525c0.153,0.215,0.304,0.432,0.448,0.657
		c0.107,0.167,0.212,0.338,0.314,0.511c0.158,0.267,0.309,0.542,0.455,0.823c0.077,0.149,0.157,0.296,0.231,0.449
		c0.215,0.444,0.418,0.899,0.6,1.377c1.179-0.928,2.337-1.723,3.455-2.362l0.733-0.418c3.798-2.167,12.692-7.243,12.214-9.047
		c-0.003-0.013-0.01-0.03-0.02-0.051c-0.001-0.002-0.002-0.004-0.003-0.007c-0.021-0.046-0.061-0.11-0.13-0.187
		c0-0.001-0.001-0.001-0.002-0.002c-0.035-0.039-0.078-0.082-0.132-0.127v0c-7.51,0.328-14.891,1.899-21.922,4.525
		C313.663,21.383,313.663,21.383,313.664,21.384z"/>
	<path fill="#E5C45D" d="M303.033,16.784c0.37,0.08,0.742,0.166,1.119,0.26c0.128,0.032,0.255,0.066,0.384,0.1
		c0.403,0.105,0.809,0.221,1.217,0.344c0.09,0.027,0.179,0.053,0.269,0.082c2.098,0.654,4.208,1.557,6.159,2.788
		c0.018,0.011,0.035,0.022,0.052,0.033c0.487,0.31,0.964,0.639,1.427,0.991c0.001,0.001,0.002,0.001,0.003,0.002
		c7.031-2.626,14.412-4.198,21.922-4.525c-0.002-0.001-0.003-0.002-0.005-0.004c-0.048-0.041-0.104-0.084-0.169-0.129
		c-0.01-0.007-0.02-0.015-0.031-0.022c-0.024-0.017-0.053-0.035-0.081-0.052c-0.022-0.014-0.045-0.028-0.068-0.042
		c-0.027-0.017-0.057-0.033-0.087-0.05c-0.03-0.018-0.062-0.035-0.096-0.052c-0.029-0.015-0.058-0.031-0.089-0.046
		c-0.045-0.022-0.094-0.045-0.143-0.068c-0.025-0.012-0.048-0.023-0.074-0.035c-0.075-0.034-0.156-0.068-0.242-0.103
		c-0.028-0.011-0.06-0.023-0.09-0.034c-0.064-0.025-0.131-0.051-0.201-0.076c-0.036-0.013-0.074-0.026-0.112-0.04
		c-0.071-0.024-0.145-0.049-0.222-0.074c-0.04-0.013-0.079-0.026-0.121-0.039c-0.096-0.03-0.197-0.06-0.302-0.09
		c-0.025-0.007-0.049-0.015-0.074-0.021c-0.135-0.038-0.277-0.076-0.427-0.113c-0.03-0.008-0.062-0.015-0.093-0.022
		c-0.122-0.03-0.248-0.06-0.381-0.09c-0.048-0.011-0.098-0.021-0.146-0.032c-0.125-0.027-0.253-0.054-0.386-0.081
		c-0.053-0.011-0.105-0.021-0.159-0.032c-0.158-0.031-0.321-0.061-0.491-0.091c-0.031-0.006-0.061-0.011-0.093-0.017
		c-0.208-0.037-0.426-0.072-0.653-0.107c-0.031-0.005-0.066-0.01-0.099-0.015c-0.191-0.029-0.391-0.058-0.596-0.086
		c-0.068-0.009-0.139-0.019-0.209-0.028c-0.182-0.024-0.368-0.048-0.561-0.071c-0.077-0.009-0.154-0.019-0.233-0.028
		c-0.212-0.025-0.431-0.049-0.656-0.072c-0.061-0.006-0.118-0.013-0.18-0.019c-0.291-0.03-0.592-0.058-0.905-0.085
		c-0.043-0.004-0.089-0.007-0.132-0.011c-0.268-0.023-0.543-0.045-0.826-0.066c-0.101-0.007-0.204-0.014-0.306-0.022
		c-0.243-0.017-0.49-0.034-0.745-0.05c-0.111-0.007-0.224-0.014-0.339-0.021c-0.266-0.016-0.539-0.031-0.817-0.045
		c-0.106-0.005-0.21-0.011-0.317-0.017c-0.387-0.019-0.782-0.036-1.193-0.052c-0.036-0.001-0.075-0.002-0.112-0.004
		c-0.373-0.014-0.757-0.026-1.151-0.037c-0.139-0.004-0.283-0.008-0.425-0.011c-0.302-0.008-0.609-0.015-0.924-0.021
		c-0.165-0.003-0.332-0.006-0.501-0.009c-0.324-0.005-0.657-0.01-0.995-0.013c-0.154-0.001-0.307-0.003-0.464-0.005
		c-0.497-0.004-1.003-0.006-1.527-0.006c-4.877,0-9.945,0.685-15.087,1.938c0.461,0.077,0.934,0.167,1.411,0.266
		C302.782,16.728,302.908,16.757,303.033,16.784z"/>
	<path fill="#FEFFFB" d="M119.807,329.712c-1.198,0.28-2.431,0.698-3.716,1.305c-0.9,5.224-5.585,40.183,24.28,65.633
		c0.812,0.086,1.645,0.168,2.5,0.246c0.071,0.006,0.146,0.012,0.217,0.019c0.794,0.07,1.602,0.139,2.434,0.202
		c0.026,0.002,0.055,0.004,0.081,0.006c1.78,0.135,3.648,0.25,5.607,0.345c0.005,0,0.011,0,0.017,0.001
		c-15.746-19.177-25.609-43.571-22.816-68.25c-0.203-0.005-0.404-0.006-0.607-0.011c-2.563-0.071-5.07-0.136-7.739,0.448
		C119.981,329.682,119.896,329.7,119.807,329.712z"/>
	<path fill="#F7F5E8" d="M151.227,397.468c0.047,0.002,0.097,0.004,0.145,0.006c1.828,0.087,3.73,0.155,5.72,0.202
		c0.085,0.002,0.176,0.003,0.262,0.005c0.935,0.021,1.884,0.039,2.856,0.05c1.074,0.013,2.17,0.02,3.291,0.02
		c7.519,0,14.552-0.395,21.1-1.149c1.128-30.585-6.189-44.082-7.448-46.159c-3.24-1.585-6.219-3.366-9.323-5.226
		c-1.32-0.791-2.67-1.6-4.082-2.418c-14.189-8.23-27.338-13.548-33.498-13.548c-0.612,0-1.225-0.018-1.839-0.032
		C125.618,353.896,135.481,378.291,151.227,397.468z"/>
	<path fill="#FEFFFB" d="M149,415c-5.648-3.228-4.134-9.71-1.237-14.72c-0.006,0-0.012-0.001-0.018-0.001
		c-0.127-0.009-0.249-0.018-0.375-0.026c-0.714-0.047-1.416-0.097-2.105-0.149c-0.281-0.021-0.557-0.044-0.833-0.066
		c-0.553-0.045-1.098-0.092-1.635-0.14c-0.255-0.023-0.513-0.046-0.765-0.069c-0.757-0.071-1.503-0.146-2.229-0.224
		c-0.013,0-0.025,0.004-0.039,0.004c-0.043,0-0.086-0.019-0.129-0.022c-21.305-2.321-28.561-7.471-30.547-9.354
		c-2.423,0.333-10.588,2.192-10.588,12.099c0,12.769,19.211,30.495,47.809,36.533c0.568,0.12,1.016,0.557,1.15,1.121
		c5.025,21.158-0.312,46.133-15.073,72.015h16.36c3.823-3.979,5.973-6.956,6.03-7.036c0.438-0.616,1.266-0.812,1.932-0.453
		c0.667,0.356,0.963,1.153,0.692,1.859c-0.03,0.078-0.864,2.206-2.557,5.63h14.43C177.505,492.048,183,471.17,183,449
		C182,430,164,424,149,415z"/>
	<path fill="#E6EDF6" d="M223,484c0-24.694-19.976-50.315-20.178-50.571c-0.256-0.324-0.367-0.739-0.306-1.148
		c0.061-0.408,0.287-0.773,0.625-1.01c0.264-0.185,26.487-18.574,39.698-34.721c14.937-18.256,46.775-62.399,56.265-86.598
		c9.091-23.183,20.146-37.647,26.75-46.29c0.706-0.924,1.357-1.777,1.946-2.562c0.54-0.72,1.11-1.255,1.706-1.609
		c1.468-1.751,10.432-11.708,25.983-13.799c-0.601-3.508-1.059-7.144-1.318-10.922c-2.914-42.413-37.375-109.936-62.171-109.936
		c-11.713,0-25.746,10.69-37.539,28.595c-12.082,18.343-19.294,40.799-19.294,60.07l0.003,5.193
		c0.038,38.362,0.047,63.898-20.94,70.298c-0.142,0.913-0.443,1.71-0.789,2.367c-5.258,9.98-33.826,15.477-80.441,15.477
		c0.018,0-2.816,0.115-7.308,0.155c-1.035,2.224-3.918,9.259-4.489,19.432c2.361-0.328,4.567-0.271,6.681-0.213
		c0.792,0.021,1.58,0.042,2.367,0.042c8.071,0,23.373,7.207,35.002,13.952c1.424,0.826,2.786,1.642,4.118,2.439
		c10.36,6.206,18.544,11.108,39.629,11.108c5.011,0,19.901-0.509,35.582-5.843c0.02-0.009,0.042-0.014,0.062-0.021
		c4.208-1.435,8.473-3.213,12.618-5.428c19.898-10.63,29.988-27.354,29.988-49.708c0-25.332-15.243-43.506-18.109-46.698
		c-1.968,0.508-3.874,1.233-5.644,2.249c-0.235,0.135-0.492,0.199-0.746,0.2c-0.52,0-1.024-0.271-1.302-0.754
		c-0.412-0.718-0.164-1.635,0.554-2.047c13.957-8.012,34.296-0.428,35.155-0.101c0.774,0.294,1.163,1.16,0.869,1.935
		c-0.294,0.774-1.161,1.164-1.935,0.87c-0.154-0.059-12.215-4.547-23.546-3.019c4.772,5.647,17.703,23.179,17.703,47.366
		c0,23.548-10.623,41.162-31.574,52.354c-3.956,2.113-8.014,3.841-12.032,5.26c-0.668,32.034-30.875,50.386-83.144,50.386
		c-1.045,0-2.063-0.008-3.069-0.019c-0.221-0.002-0.442-0.004-0.661-0.007c-0.961-0.013-1.908-0.029-2.834-0.052
		c-0.19-0.004-0.375-0.01-0.564-0.015c-0.809-0.021-1.605-0.046-2.387-0.073c-0.184-0.007-0.371-0.013-0.553-0.02
		c-0.861-0.032-1.702-0.069-2.531-0.11c-0.235-0.012-0.468-0.023-0.7-0.035c-0.827-0.044-1.643-0.09-2.438-0.14
		c-2.896,5.01-4.411,11.492,1.237,14.72c15,9,33,15,34,34c0,22.17-5.495,43.048-13.727,63h29.405
		c0.092-0.178,0.189-0.35,0.279-0.529c0.143-0.281,0.28-0.568,0.419-0.854c0.283-0.58,0.56-1.166,0.829-1.759
		c0.137-0.302,0.274-0.604,0.407-0.908c0.29-0.661,0.569-1.332,0.842-2.009c0.09-0.224,0.184-0.442,0.272-0.668
		c0.351-0.896,0.687-1.805,1.009-2.729c0.082-0.234,0.158-0.476,0.239-0.713c0.24-0.71,0.474-1.426,0.698-2.151
		c0.1-0.323,0.196-0.649,0.293-0.976c0.204-0.688,0.399-1.383,0.588-2.085c0.082-0.306,0.167-0.608,0.246-0.916
		c0.258-0.998,0.506-2.006,0.735-3.032c0.164-0.731,0.848-1.234,1.591-1.166c0.748,0.063,1.333,0.67,1.371,1.419
		c0.309,6.172-0.84,13.872-1.814,19.075h3.514C215.854,507.51,223,498.893,223,484z M296.625,232.75
		c-23.228,0-42.125-14.187-42.125-31.625s18.897-31.625,42.125-31.625s42.125,14.187,42.125,31.625S319.853,232.75,296.625,232.75z"
		/>
	<path fill="#C4CEE5" d="M49.056,260.417c1.639-1.996,3.852-3.893,6.633-5.679c17.778-11.417,28.509-18.308,56.61-27.168
		c15.113-4.765,32.236-10.678,48.251-18.337c-6.258-2.951-9.95-6.732-11.661-8.849c-13.223,13.791-55.859,28.715-57.729,29.365
		c-13.305,4.917-27.99,6.814-40.945,8.487c-15.229,1.967-28.38,3.666-28.38,9.762c0,10.554,16.422,13.101,19.228,13.458
		C42.09,260.987,44.624,260.144,49.056,260.417z"/>
	<path fill="#FFFFFF" d="M296.625,172.5c-21.573,0-39.125,12.841-39.125,28.625s17.552,28.625,39.125,28.625
		s39.125-12.841,39.125-28.625S318.198,172.5,296.625,172.5z M292,203.75c-4.694,0-8.5-2.574-8.5-5.75s3.806-5.75,8.5-5.75
		s8.5,2.574,8.5,5.75S296.694,203.75,292,203.75z"/>
	<path fill="#008CFF" d="M0,512h128.858c14.639-25.276,20.374-50.094,15.892-70.403c-30.449-6.728-49.25-25.521-49.25-39.266
		c0-10.096,6.993-13.494,11.125-14.62c-5.428-5.692-19.913-22.128-20.447-35.907c-29.46-8.644-59.012-44.127-59.012-63.952
		c0-14.006,5.829-20.922,9.873-24.034c-6.479-1.376-18.206-5.318-18.206-15.819c0-8.734,13.001-10.414,30.996-12.737
		c12.798-1.653,27.303-3.526,40.317-8.336c0.485-0.169,45.218-15.822,57.109-29.188c-3.247-7.882-3.224-16.181,0.079-24.062
		c3.913-9.333,12.073-16.946,22.426-20.937c3.539-4.293,7.014-8.304,10.376-12.185c3.351-3.867,6.509-7.516,9.347-11.003
		c0.125-0.162,0.656-0.845,1.509-1.877c3.433-4.334,6.31-8.422,8.339-12.361c1.21-2.349,2.416-5.095,3.693-8.001
		c4.555-10.372,10.206-23.236,20.823-28.109c1.781-4.206,3.952-8.346,6.428-12.386c0.044-0.098,0.102-0.19,0.167-0.278
		c5.455-8.839,12.421-17.175,20.31-24.555c0.097-0.122,0.211-0.23,0.346-0.318c12.206-11.338,26.557-20.38,40.829-25.508
		c0.213-0.151,0.466-0.25,0.743-0.272c8.061-2.82,16.082-4.385,23.663-4.385c18.561,0,21.752,2.385,22.436,4.963
		c0.998,3.763-4.482,7.203-13.627,12.421l-0.731,0.417c-11.099,6.342-26.909,29.972-26.351,51.812
		c9.857-0.442,14.491-2.551,15.358-2.992c1.141-1.163,7.695-7.63,18.862-14.99c0.191-0.242,0.456-0.422,0.77-0.51
		c10.73-6.976,25.559-14.654,43.842-19.35c0.212-0.112,0.451-0.171,0.703-0.169c10.405-2.617,21.904-4.271,34.404-4.271
		c5.765,0,11.186,0.206,16.296,0.595c0.021,0.001,0.041,0.003,0.062,0.005c17.812,1.361,31.626,5.067,41.152,11.091
		c9.516,6.016,11.657,12.633,11.657,14.476c0.009,0.059,0.089,0.301,0.147,0.478c0.281,0.847,0.804,2.422-0.303,3.954
		c-1.642,2.274-6.688,4.601-31.004,4.741c-0.002,0-0.004,0.001-0.006,0.001s-0.004-0.001-0.007-0.001
		c-1.888,0.011-3.879,0.01-6.007-0.006l-0.435-0.002c-7.896,0-16.016,1.59-24.02,4.372c-0.235,0.165-0.51,0.272-0.811,0.28
		c-11.492,4.113-22.718,10.676-32.675,18.535c-0.171,0.251-0.417,0.444-0.704,0.555c-20.78,16.629-35.844,38.868-35.844,56.093
		c0,33.276,27.917,77.831,71.122,113.509c22.633,18.689,41.922,28.662,54.685,35.261c12.927,6.684,20.048,10.364,19.859,16.939
		c-0.393,13.76-33.805,14.457-40.499,14.457c-11.525,0-48.632-1.896-66.166-25.013c3.455,42.123,28.654,89.478,123.498,91.866V0H0
		V512z"/>
	<path fill="#008CFF" d="M356.604,324.547c-5.224-13.35-9.385-24.935-12.729-34.243c-5.459-15.198-10.174-28.324-12.599-28.324
		c-0.038,0-0.09,0.018-0.146,0.041c-0.013,0.006-0.025,0.01-0.038,0.016c-0.208,0.103-0.517,0.363-0.892,0.864
		c-0.594,0.791-1.251,1.651-1.964,2.583c-6.509,8.518-17.402,22.773-26.34,45.564c-10.176,25.949-43.223,70.887-56.735,87.402
		c-11.944,14.599-33.519,30.436-39.029,34.378C210.26,438.403,226,461.163,226,484c0,13.736-5.829,22.629-11.411,28h101.359
		c7.505-13.133,28.479-50.926,38.131-79.48C354.276,431.911,374.196,369.506,356.604,324.547z"/>
	<path fill="#4FFF00" d="M202.083,512h1.541c0.32-1.682,0.667-3.662,0.979-5.787C203.831,508.208,202.989,510.134,202.083,512z"/>
	<path fill="#838CAC" d="M383,356c18.771,29.381,52.195,41.439,84.51,42.707c-1.307-0.307-2.597-0.628-3.873-0.96
		c-0.138-0.036-0.274-0.072-0.411-0.108c-1.16-0.306-2.308-0.622-3.443-0.948c-0.154-0.045-0.31-0.089-0.465-0.134
		c-1.168-0.341-2.323-0.691-3.465-1.055c-0.083-0.026-0.168-0.053-0.251-0.079c-3.724-1.191-7.309-2.505-10.75-3.94
		c-0.149-0.062-0.297-0.128-0.446-0.19c-0.953-0.402-1.896-0.812-2.826-1.233c-0.237-0.107-0.474-0.216-0.709-0.324
		c-0.85-0.391-1.689-0.789-2.52-1.195c-0.25-0.122-0.501-0.243-0.749-0.367c-0.846-0.422-1.682-0.853-2.508-1.29
		c-0.2-0.106-0.403-0.21-0.602-0.316c-2.048-1.102-4.037-2.253-5.963-3.458c-0.18-0.112-0.354-0.229-0.532-0.342
		c-0.753-0.478-1.498-0.961-2.232-1.454c-0.294-0.198-0.583-0.399-0.874-0.6c-0.611-0.421-1.218-0.846-1.815-1.277
		c-0.319-0.23-0.636-0.463-0.951-0.697c-0.568-0.421-1.129-0.848-1.685-1.279c-0.309-0.239-0.617-0.479-0.922-0.721
		c-0.579-0.462-1.148-0.932-1.714-1.405c-0.258-0.216-0.521-0.429-0.776-0.647c-0.81-0.693-1.607-1.396-2.388-2.113
		c-18.294-16.824-28.188-39.782-29.435-68.229c-3.199-3.105-22.654-23.131-29.163-55.694c-11.579,1.52-19.351,7.849-22.626,11.063
		c0.197,0.139,0.394,0.307,0.59,0.487c0.056,0.051,0.111,0.105,0.167,0.16c0.158,0.154,0.316,0.323,0.475,0.505
		c0.043,0.05,0.087,0.095,0.13,0.146c0.189,0.228,0.38,0.477,0.57,0.743c0.062,0.087,0.125,0.182,0.188,0.272
		c0.139,0.203,0.279,0.417,0.42,0.642c0.069,0.111,0.139,0.22,0.208,0.336c0.186,0.308,0.372,0.631,0.561,0.977
		c0.074,0.137,0.15,0.286,0.226,0.429c0.128,0.241,0.257,0.489,0.387,0.749c0.094,0.187,0.188,0.376,0.282,0.571
		c0.127,0.262,0.256,0.536,0.385,0.813c0.152,0.327,0.307,0.667,0.463,1.018c0.118,0.266,0.237,0.532,0.358,0.812
		c0.119,0.277,0.242,0.565,0.364,0.855c0.099,0.232,0.198,0.473,0.298,0.714c0.262,0.635,0.531,1.299,0.807,1.993
		c0.054,0.135,0.105,0.262,0.159,0.398c0.158,0.402,0.321,0.822,0.484,1.244c0.073,0.189,0.146,0.381,0.221,0.574
		c0.17,0.441,0.34,0.888,0.515,1.351C359.043,298.706,369.529,325.396,380,353C380,354,383,356,383,356z"/>
	<path fill="#9EA5C1" d="M505.817,403.795c-0.326-0.016-0.649-0.034-0.975-0.051c-4.232-0.218-8.358-0.532-12.378-0.942
		c-0.246-0.025-0.492-0.05-0.736-0.075c-2.018-0.213-4.009-0.448-5.972-0.709c-0.122-0.017-0.243-0.034-0.364-0.051
		c-4.065-0.548-8.011-1.201-11.84-1.959c-0.119-0.023-0.237-0.046-0.356-0.07c-1.925-0.384-3.822-0.793-5.687-1.23
		C435.195,397.439,401.771,385.381,383,356c0,0-3-2-3-3c-10.471-27.604-20.957-54.294-38.328-77.499
		c0.349,0.921,0.71,1.892,1.081,2.897c0.053,0.143,0.106,0.289,0.16,0.434c0.317,0.864,0.646,1.759,0.981,2.685
		c0.065,0.179,0.13,0.356,0.195,0.537c0.352,0.968,0.714,1.97,1.087,3.005c0.046,0.129,0.091,0.253,0.138,0.383
		c0.202,0.561,0.41,1.138,0.618,1.718c0.253,0.703,0.503,1.397,0.766,2.13c3.337,9.291,7.49,20.854,12.698,34.164
		c17.988,45.969-2.264,109.376-2.47,110.011C347.531,461.26,327.573,497.61,319.4,512H512V404.02c-0.02,0-0.039,0-0.059-0.001
		C509.877,403.966,507.835,403.892,505.817,403.795z"/>
	<path fill="#FEFFFB" d="M112.789,332.944c-2.122,1.474-4.405,3.504-6.922,6.308c-8.422,9.379-14.111,11.945-16.672,12.647
		c0.76,15.37,21.304,35.481,21.518,35.688c0.013,0.013,0.02,0.029,0.032,0.042c0.043,0.045,0.089,0.088,0.127,0.14
		c0.124,0.151,4.648,5.415,24.305,8.235C110.485,372.499,111.625,342.685,112.789,332.944z"/>
	<path fill="#F7F5E8" d="M187.615,396.22c34.94-4.753,54.916-20.487,55.997-44.839c-15.403,4.887-29.675,5.369-34.612,5.369
		c-12.504,0-20.776-1.741-27.497-4.386C184.201,358.48,188.443,372.126,187.615,396.22z"/>
	<path fill="#FEFFFB" d="M70.964,301.337c-0.445-0.146-0.878-0.297-1.309-0.45c-0.105-0.037-0.212-0.074-0.317-0.111
		c-0.372-0.136-0.733-0.275-1.093-0.416c-0.164-0.064-0.328-0.128-0.489-0.193c-0.316-0.129-0.625-0.261-0.931-0.394
		c-0.195-0.085-0.388-0.171-0.579-0.258c-0.271-0.124-0.539-0.25-0.8-0.378c-0.214-0.104-0.424-0.211-0.632-0.318
		c-0.231-0.12-0.461-0.239-0.684-0.362c-0.231-0.127-0.452-0.258-0.674-0.389c-0.188-0.111-0.379-0.222-0.561-0.335
		c-0.255-0.16-0.496-0.326-0.737-0.491c-0.136-0.094-0.279-0.185-0.411-0.279c-0.367-0.266-0.718-0.536-1.049-0.815
		c-7.297-6.161-9.704-11.541-10.13-15.625c-1.388-1.402-5.429-6.038-4.955-12.1c0.136-1.739,0.638-3.426,1.483-5.057
		c-3.436,0.05-4.971,0.906-4.989,0.917c-0.049,0.028-0.102,0.041-0.153,0.063c-0.037,0.017-0.064,0.046-0.103,0.06
		c-0.471,0.179-11.686,4.648-11.686,23.446c0,18.819,29.753,53.576,57.629,61.286c0.061-0.011,0.141-0.028,0.23-0.048
		c0.042-0.01,0.093-0.023,0.14-0.035c0.054-0.014,0.11-0.028,0.172-0.045c0.072-0.021,0.152-0.045,0.235-0.07
		c0.048-0.015,0.097-0.03,0.148-0.047c0.104-0.034,0.214-0.072,0.332-0.114c0.037-0.014,0.076-0.028,0.113-0.042
		c0.141-0.053,0.288-0.109,0.447-0.175c0.006-0.003,0.013-0.006,0.019-0.008c1.889-0.785,5.061-2.565,9.369-6.572
		c0.288-0.268,0.58-0.545,0.877-0.832c0.008-0.008,0.016-0.015,0.024-0.022C85.388,332.108,69.998,318.844,70.964,301.337z"/>
	<path fill="#E6EDF6" d="M119.377,306.986c-0.854-0.008-1.726-0.019-2.622-0.033c-0.079-0.002-0.16-0.004-0.24-0.005
		c-0.841-0.015-1.7-0.034-2.573-0.056c-0.18-0.005-0.358-0.009-0.54-0.014c-0.949-0.025-1.913-0.055-2.893-0.09
		c-0.112-0.004-0.226-0.009-0.338-0.014c-0.935-0.034-1.881-0.073-2.837-0.118c-0.12-0.005-0.238-0.011-0.357-0.016
		c-1.033-0.05-2.075-0.105-3.126-0.167c-0.121-0.008-0.242-0.016-0.363-0.022c-2.155-0.13-4.338-0.289-6.526-0.48
		c-0.11-0.01-0.22-0.02-0.33-0.029c-2.207-0.196-4.413-0.428-6.596-0.697c-0.089-0.011-0.177-0.022-0.266-0.033
		c-2.205-0.276-4.38-0.593-6.502-0.955c-0.062-0.011-0.125-0.021-0.188-0.032c-2.149-0.37-4.237-0.788-6.239-1.258
		c-0.03-0.008-0.06-0.014-0.09-0.021c-0.997-0.235-1.97-0.483-2.919-0.746c-0.036-0.01-0.072-0.021-0.108-0.03
		c-0.947-0.264-1.87-0.54-2.761-0.832c-0.966,17.507,14.424,30.771,28.937,39.79c0.004-0.004,0.008-0.008,0.012-0.012
		c0.271-0.262,0.545-0.533,0.823-0.811c0.337-0.337,0.676-0.68,1.025-1.043c0.151-0.157,0.306-0.323,0.459-0.484
		c0.463-0.491,0.93-0.991,1.413-1.529c3.784-4.215,7.185-6.843,10.3-8.478c0.019-0.012,0.039-0.021,0.058-0.031
		c1.452-0.757,2.841-1.296,4.178-1.679c0.42-9.679,2.815-16.702,4.23-20.059c-0.791-0.001-1.616-0.005-2.456-0.012
		C119.756,306.989,119.568,306.988,119.377,306.986z"/>
	<path d="M338.75,201.125c0-17.438-18.897-31.625-42.125-31.625S254.5,183.687,254.5,201.125s18.897,31.625,42.125,31.625
		S338.75,218.563,338.75,201.125z M296.625,229.75c-21.573,0-39.125-12.841-39.125-28.625s17.552-28.625,39.125-28.625
		s39.125,12.841,39.125,28.625S318.198,229.75,296.625,229.75z"/>
	<ellipse cx="292" cy="198" rx="8.5" ry="5.75"/>
	<path d="M208.498,492.925c-0.038-0.749-0.623-1.355-1.371-1.419c-0.743-0.068-1.427,0.435-1.591,1.166
		c-0.229,1.026-0.478,2.034-0.735,3.032c-0.08,0.308-0.164,0.61-0.246,0.916c-0.189,0.702-0.385,1.397-0.588,2.085
		c-0.097,0.326-0.193,0.652-0.293,0.976c-0.224,0.726-0.458,1.441-0.698,2.151c-0.081,0.237-0.157,0.479-0.239,0.713
		c-0.322,0.924-0.658,1.833-1.009,2.729c-0.088,0.226-0.182,0.444-0.272,0.668c-0.273,0.677-0.552,1.348-0.842,2.009
		c-0.133,0.305-0.27,0.606-0.407,0.908c-0.269,0.593-0.546,1.179-0.829,1.759c-0.139,0.285-0.276,0.572-0.419,0.854
		c-0.09,0.18-0.188,0.352-0.279,0.529h3.404c0.906-1.866,1.748-3.792,2.519-5.787c-0.311,2.125-0.658,4.105-0.979,5.787h3.061
		C207.658,506.797,208.807,499.097,208.498,492.925z"/>
	<path d="M156.708,504.511c-0.666-0.359-1.494-0.163-1.932,0.453c-0.057,0.08-2.207,3.058-6.03,7.036h6.097
		c1.692-3.424,2.526-5.552,2.557-5.63C157.671,505.664,157.375,504.867,156.708,504.511z"/>
	<path d="M388.502,309.152c17.534,23.117,54.641,25.013,66.166,25.013c6.694,0,40.106-0.697,40.499-14.457
		c0.188-6.575-6.933-10.256-19.859-16.939c-12.763-6.599-32.052-16.571-54.685-35.261c-43.205-35.678-71.122-80.232-71.122-113.509
		c0-17.225,15.063-39.464,35.844-56.093c0.287-0.111,0.533-0.304,0.704-0.555c9.957-7.859,21.183-14.421,32.675-18.535
		c0.301-0.007,0.575-0.115,0.811-0.28c8.004-2.782,16.124-4.372,24.02-4.372l0.435,0.002c2.128,0.017,4.119,0.017,6.007,0.006
		c0.003,0,0.005,0.001,0.007,0.001s0.004-0.001,0.006-0.001c24.316-0.141,29.362-2.467,31.004-4.741
		c1.106-1.532,0.584-3.107,0.303-3.954c-0.059-0.177-0.139-0.419-0.147-0.478c0-1.843-2.142-8.46-11.657-14.476
		c-9.526-6.023-23.34-9.73-41.152-11.091c-0.021-0.002-0.041-0.003-0.062-0.005c-5.11-0.389-10.531-0.595-16.296-0.595
		c-12.5,0-23.999,1.654-34.404,4.271c-0.252-0.001-0.491,0.057-0.703,0.169c-18.283,4.696-33.111,12.374-43.842,19.35
		c-0.313,0.088-0.578,0.268-0.77,0.51c-11.167,7.36-17.722,13.827-18.862,14.99c-0.867,0.44-5.501,2.55-15.358,2.992
		c-0.559-21.84,15.252-45.471,26.351-51.812l0.731-0.417c9.145-5.218,14.625-8.658,13.627-12.421
		c-0.684-2.578-3.875-4.963-22.436-4.963c-7.581,0-15.603,1.565-23.663,4.385c-0.277,0.023-0.53,0.121-0.743,0.272
		c-14.271,5.128-28.623,14.17-40.829,25.508c-0.135,0.088-0.249,0.196-0.346,0.318c-7.889,7.38-14.855,15.716-20.31,24.555
		c-0.065,0.088-0.123,0.18-0.167,0.278c-2.476,4.04-4.646,8.18-6.428,12.386c-10.617,4.873-16.268,17.737-20.823,28.109
		c-1.277,2.907-2.482,5.652-3.693,8.001c-2.029,3.938-4.906,8.026-8.339,12.361c-0.853,1.033-1.384,1.716-1.509,1.877
		c-2.838,3.487-5.997,7.136-9.347,11.003c-3.363,3.881-6.838,7.891-10.376,12.185c-10.353,3.991-18.514,11.604-22.426,20.937
		c-3.303,7.88-3.326,16.18-0.079,24.062c-11.891,13.366-56.624,29.019-57.109,29.188c-13.014,4.81-27.52,6.683-40.317,8.336
		c-17.995,2.324-30.996,4.003-30.996,12.737c0,10.501,11.727,14.443,18.206,15.819c-4.044,3.112-9.873,10.028-9.873,24.034
		c0,19.825,29.552,55.309,59.012,63.952c0.534,13.779,15.019,30.215,20.447,35.907c-4.132,1.126-11.125,4.524-11.125,14.62
		c0,13.744,18.801,32.538,49.25,39.266c4.481,20.31-1.253,45.127-15.892,70.403h3.527c14.762-25.882,20.098-50.856,15.073-72.015
		c-0.134-0.564-0.582-1.001-1.15-1.121C117.711,432.826,98.5,415.1,98.5,402.331c0-9.906,8.165-11.766,10.588-12.099
		c1.986,1.883,9.242,7.032,30.547,9.354c0.043,0.004,0.086,0.022,0.129,0.022c0.013,0,0.026-0.004,0.039-0.004
		c0.725,0.078,1.471,0.152,2.229,0.224c0.252,0.023,0.51,0.046,0.765,0.069c0.537,0.048,1.082,0.095,1.635,0.14
		c0.277,0.022,0.553,0.045,0.833,0.066c0.689,0.053,1.391,0.103,2.105,0.149c0.126,0.009,0.248,0.018,0.375,0.026
		c0.006,0,0.012,0.001,0.018,0.001c0.795,0.05,1.612,0.096,2.438,0.14c0.232,0.012,0.465,0.023,0.7,0.035
		c0.829,0.041,1.67,0.078,2.531,0.11c0.182,0.007,0.369,0.013,0.553,0.02c0.782,0.027,1.578,0.052,2.387,0.073
		c0.188,0.005,0.374,0.011,0.564,0.015c0.926,0.022,1.873,0.039,2.834,0.052c0.219,0.003,0.44,0.005,0.661,0.007
		c1.006,0.011,2.024,0.019,3.069,0.019c52.269,0,82.476-18.352,83.144-50.386c4.019-1.419,8.076-3.146,12.032-5.26
		c20.951-11.192,31.574-28.807,31.574-52.354c0-24.188-12.931-41.719-17.703-47.366c11.331-1.529,23.392,2.96,23.546,3.019
		c0.773,0.294,1.641-0.096,1.935-0.87c0.294-0.774-0.095-1.64-0.869-1.935c-0.859-0.327-21.198-7.911-35.155,0.101
		c-0.718,0.412-0.966,1.329-0.554,2.047c0.277,0.483,0.782,0.754,1.302,0.754c0.254,0,0.511-0.064,0.746-0.2
		c1.77-1.016,3.676-1.74,5.644-2.249c2.866,3.192,18.109,21.366,18.109,46.698c0,22.354-10.09,39.078-29.988,49.708
		c-4.146,2.215-8.41,3.993-12.618,5.428c-0.021,0.008-0.042,0.013-0.062,0.021c-15.681,5.334-30.57,5.843-35.582,5.843
		c-21.085,0-29.269-4.902-39.629-11.108c-1.332-0.798-2.694-1.613-4.118-2.439c-11.629-6.745-26.932-13.952-35.002-13.952
		c-0.787,0-1.574-0.021-2.367-0.042c-2.114-0.058-4.32-0.115-6.681,0.213c0.571-10.173,3.454-17.208,4.489-19.432
		c4.492-0.04,7.326-0.155,7.308-0.155c46.615,0,75.183-5.496,80.441-15.477c0.346-0.657,0.647-1.454,0.789-2.367
		c20.987-6.399,20.978-31.936,20.94-70.298l-0.003-5.193c0-19.271,7.213-41.728,19.294-60.07
		c11.793-17.905,25.826-28.595,37.539-28.595c24.796,0,59.257,67.523,62.171,109.936c0.26,3.778,0.718,7.414,1.318,10.922
		c-15.552,2.091-24.516,12.048-25.983,13.799c-0.596,0.354-1.166,0.89-1.706,1.609c-0.589,0.785-1.24,1.639-1.946,2.562
		c-6.604,8.643-17.659,23.107-26.75,46.29c-9.489,24.198-41.328,68.342-56.265,86.598c-13.21,16.146-39.434,34.536-39.698,34.721
		c-0.338,0.236-0.564,0.602-0.625,1.01c-0.061,0.409,0.05,0.824,0.306,1.148C203.024,433.685,223,459.306,223,484
		c0,14.893-7.146,23.51-12.802,28h4.392c5.582-5.371,11.411-14.264,11.411-28c0-22.837-15.74-45.597-19.868-51.172
		c5.51-3.942,27.085-19.779,39.029-34.378c13.513-16.516,46.56-61.453,56.735-87.402c8.938-22.791,19.831-37.047,26.34-45.564
		c0.713-0.932,1.37-1.792,1.964-2.583c0.375-0.501,0.684-0.762,0.892-0.864c0.013-0.006,0.025-0.01,0.038-0.016
		c0.057-0.023,0.108-0.041,0.146-0.041c2.425,0,7.14,13.126,12.599,28.324c3.344,9.309,7.505,20.894,12.729,34.243
		c17.593,44.959-2.327,107.364-2.524,107.973c-9.652,28.555-30.626,66.348-38.131,79.48h3.452
		c8.173-14.39,28.131-50.74,37.526-78.536c0.206-0.635,20.458-64.042,2.47-110.011c-5.208-13.31-9.361-24.873-12.698-34.164
		c-0.263-0.732-0.513-1.427-0.766-2.13c-0.208-0.58-0.416-1.157-0.618-1.718c-0.047-0.13-0.092-0.254-0.138-0.383
		c-0.373-1.035-0.735-2.037-1.087-3.005c-0.065-0.181-0.13-0.358-0.195-0.537c-0.336-0.926-0.664-1.82-0.981-2.685
		c-0.054-0.145-0.107-0.291-0.16-0.434c-0.371-1.006-0.732-1.977-1.081-2.897c-0.175-0.463-0.345-0.909-0.515-1.351
		c-0.074-0.193-0.147-0.385-0.221-0.574c-0.163-0.422-0.326-0.842-0.484-1.244c-0.054-0.137-0.105-0.264-0.159-0.398
		c-0.275-0.694-0.545-1.358-0.807-1.993c-0.1-0.241-0.199-0.481-0.298-0.714c-0.122-0.29-0.245-0.578-0.364-0.855
		c-0.121-0.279-0.24-0.546-0.358-0.812c-0.156-0.351-0.311-0.69-0.463-1.018c-0.129-0.277-0.258-0.552-0.385-0.813
		c-0.095-0.195-0.188-0.385-0.282-0.571c-0.13-0.26-0.259-0.508-0.387-0.749c-0.075-0.143-0.151-0.292-0.226-0.429
		c-0.188-0.346-0.375-0.669-0.561-0.977c-0.069-0.116-0.139-0.225-0.208-0.336c-0.141-0.225-0.281-0.438-0.42-0.642
		c-0.062-0.091-0.125-0.186-0.188-0.272c-0.19-0.267-0.381-0.516-0.57-0.743c-0.043-0.052-0.087-0.097-0.13-0.146
		c-0.158-0.182-0.316-0.351-0.475-0.505c-0.056-0.055-0.111-0.109-0.167-0.16c-0.196-0.181-0.393-0.349-0.59-0.487
		c3.275-3.215,11.047-9.543,22.626-11.063c6.509,32.563,25.964,52.589,29.163,55.694c1.246,28.447,11.141,51.405,29.435,68.229
		c0.78,0.718,1.578,1.42,2.388,2.113c0.255,0.219,0.519,0.432,0.776,0.647c0.565,0.474,1.135,0.943,1.714,1.405
		c0.305,0.242,0.613,0.481,0.922,0.721c0.556,0.432,1.116,0.858,1.685,1.279c0.315,0.234,0.632,0.467,0.951,0.697
		c0.598,0.432,1.204,0.856,1.815,1.277c0.291,0.2,0.58,0.401,0.874,0.6c0.734,0.493,1.479,0.977,2.232,1.454
		c0.178,0.113,0.353,0.229,0.532,0.342c1.926,1.205,3.915,2.356,5.963,3.458c0.198,0.106,0.401,0.21,0.602,0.316
		c0.826,0.438,1.662,0.868,2.508,1.29c0.248,0.124,0.499,0.245,0.749,0.367c0.83,0.406,1.67,0.805,2.52,1.195
		c0.235,0.108,0.472,0.217,0.709,0.324c0.931,0.421,1.873,0.831,2.826,1.233c0.149,0.062,0.297,0.128,0.446,0.19
		c3.441,1.436,7.026,2.749,10.75,3.94c0.083,0.026,0.168,0.053,0.251,0.079c1.142,0.363,2.297,0.714,3.465,1.055
		c0.155,0.045,0.311,0.089,0.465,0.134c1.136,0.326,2.283,0.643,3.443,0.948c0.137,0.036,0.273,0.072,0.411,0.108
		c1.276,0.332,2.566,0.653,3.873,0.96c1.864,0.438,3.762,0.847,5.687,1.23c0.119,0.024,0.237,0.047,0.356,0.07
		c3.829,0.758,7.774,1.411,11.84,1.959c0.121,0.017,0.242,0.034,0.364,0.051c1.963,0.261,3.954,0.496,5.972,0.709
		c0.244,0.025,0.49,0.05,0.736,0.075c4.02,0.41,8.146,0.725,12.378,0.942c0.325,0.017,0.648,0.035,0.975,0.051
		c2.018,0.097,4.06,0.171,6.124,0.224c0.02,0.001,0.039,0.001,0.059,0.001v-3.001C417.156,398.63,391.957,351.275,388.502,309.152z
		 M440.631,43.893c0.332,0.054,0.65,0.112,0.977,0.168c0.696,0.119,1.386,0.241,2.057,0.368c0.361,0.069,0.715,0.14,1.068,0.21
		c0.619,0.124,1.229,0.25,1.824,0.38c0.343,0.075,0.685,0.149,1.02,0.226c0.609,0.139,1.203,0.282,1.789,0.428
		c0.285,0.071,0.576,0.14,0.855,0.212c0.728,0.188,1.435,0.38,2.124,0.577c0.116,0.033,0.239,0.064,0.354,0.098
		c0.808,0.234,1.587,0.474,2.345,0.719c0.192,0.062,0.375,0.126,0.564,0.189c0.554,0.184,1.099,0.37,1.626,0.559
		c0.24,0.086,0.472,0.173,0.706,0.261c0.464,0.172,0.919,0.345,1.361,0.521c0.232,0.092,0.462,0.185,0.688,0.277
		c0.439,0.181,0.866,0.363,1.285,0.546c0.196,0.086,0.396,0.172,0.588,0.259c0.479,0.216,0.941,0.435,1.394,0.655
		c0.11,0.054,0.229,0.107,0.338,0.162c0.564,0.28,1.108,0.562,1.631,0.845c0.076,0.042,0.146,0.083,0.221,0.125
		c0.435,0.238,0.855,0.478,1.261,0.718c0.146,0.086,0.285,0.173,0.428,0.26c0.323,0.197,0.641,0.394,0.945,0.592
		c0.149,0.096,0.295,0.193,0.44,0.289c0.29,0.194,0.572,0.387,0.846,0.581c0.129,0.092,0.26,0.183,0.386,0.274
		c0.293,0.213,0.573,0.425,0.847,0.637c0.089,0.068,0.182,0.137,0.269,0.205c0.357,0.283,0.701,0.565,1.025,0.845
		c0.005,0.004,0.009,0.008,0.014,0.013c0.315,0.271,0.611,0.54,0.896,0.807c0.085,0.08,0.164,0.158,0.246,0.238
		c0.198,0.19,0.392,0.38,0.575,0.567c0.091,0.093,0.179,0.185,0.266,0.277c0.165,0.174,0.324,0.345,0.477,0.516
		c0.082,0.091,0.164,0.182,0.242,0.272c0.151,0.173,0.294,0.344,0.433,0.513c0.065,0.079,0.134,0.16,0.196,0.238
		c0.17,0.213,0.33,0.422,0.481,0.626c0.021,0.029,0.045,0.059,0.066,0.087c0.168,0.23,0.322,0.454,0.469,0.672
		c0.054,0.082,0.103,0.159,0.153,0.238c0.088,0.136,0.175,0.271,0.254,0.401c0.055,0.09,0.106,0.177,0.157,0.264
		c0.065,0.112,0.129,0.223,0.189,0.331c0.049,0.09,0.098,0.179,0.144,0.265c0.052,0.097,0.1,0.19,0.146,0.283
		c0.043,0.085,0.087,0.171,0.126,0.252c0.039,0.082,0.073,0.158,0.108,0.236c0.087,0.191,0.16,0.365,0.227,0.531
		c0.014,0.033,0.024,0.062,0.037,0.094c0.019,0.049,0.038,0.099,0.056,0.145c0.031,0.083,0.061,0.164,0.086,0.237
		c0.018,0.05,0.036,0.102,0.051,0.148c0.039,0.119,0.073,0.229,0.098,0.318c0.003,0.013,0.007,0.026,0.01,0.038
		c0.022,0.083,0.039,0.151,0.051,0.201c0.001,0.007,0.004,0.018,0.005,0.024c0.011,0.048,0.017,0.083,0.017,0.089
		c0,0.518,0.152,0.978,0.3,1.422c0.264,0.794,0.283,1.017,0.113,1.253c-0.888,1.229-5.606,3.241-26.704,3.481
		c0.114-0.583,0.203-1.153,0.278-1.716c0.021-0.152,0.039-0.303,0.057-0.453c0.057-0.479,0.101-0.952,0.13-1.417
		c0.006-0.082,0.015-0.166,0.019-0.248c0.03-0.549,0.039-1.087,0.033-1.618c-0.001-0.097-0.005-0.192-0.008-0.289
		c-0.011-0.47-0.035-0.933-0.072-1.388c-0.006-0.07-0.011-0.142-0.017-0.212c-0.1-1.074-0.272-2.105-0.508-3.098
		c-0.008-0.033-0.015-0.066-0.023-0.099c-0.245-1.016-0.558-1.989-0.927-2.92c-1.177-2.969-2.929-5.52-4.946-7.69
		c-0.012-0.013-0.024-0.026-0.037-0.04c-0.277-0.298-0.56-0.589-0.847-0.873c-0.007-0.007-0.014-0.014-0.021-0.021
		c-0.586-0.578-1.188-1.127-1.801-1.646c-0.032-0.028-0.065-0.055-0.098-0.082c-0.261-0.22-0.523-0.434-0.787-0.644
		c-0.057-0.045-0.114-0.09-0.171-0.135c-0.27-0.212-0.541-0.419-0.812-0.62c-0.027-0.02-0.055-0.042-0.082-0.062
		c-0.304-0.223-0.606-0.44-0.91-0.65c-0.049-0.034-0.097-0.065-0.146-0.099c-0.243-0.167-0.486-0.331-0.729-0.489
		c-0.089-0.058-0.178-0.116-0.267-0.173c-0.212-0.136-0.422-0.269-0.633-0.399c-0.085-0.053-0.17-0.106-0.255-0.158
		c-0.285-0.174-0.569-0.344-0.851-0.507C438.539,43.562,439.596,43.724,440.631,43.893z M412,41.833
		c5.806,0,11.104,0.203,15.939,0.571c0.056,0.017,0.135,0.041,0.219,0.066c0.032,0.01,0.068,0.021,0.104,0.033
		c0.06,0.019,0.129,0.041,0.199,0.063c0.055,0.018,0.108,0.035,0.169,0.055c0.068,0.022,0.148,0.05,0.225,0.075
		c0.138,0.047,0.286,0.098,0.447,0.155c0.053,0.019,0.104,0.037,0.159,0.056c0.118,0.042,0.242,0.088,0.371,0.135
		c0.039,0.015,0.08,0.03,0.12,0.045c4.197,1.567,13.383,5.829,17.439,14.151c0,0.001,0,0.001,0.001,0.002
		c0,0.001,0.001,0.001,0.001,0.002c0.222,0.456,0.427,0.924,0.616,1.404c0.013,0.032,0.025,0.065,0.038,0.098
		c0.174,0.445,0.33,0.903,0.473,1.37c0.021,0.068,0.042,0.136,0.062,0.205c0.127,0.433,0.237,0.877,0.336,1.329
		c0.022,0.104,0.047,0.208,0.068,0.312c0.085,0.422,0.151,0.855,0.21,1.293c0.019,0.138,0.04,0.274,0.056,0.414
		c0.046,0.415,0.073,0.84,0.094,1.27c0.009,0.168,0.022,0.333,0.027,0.504c0.01,0.417-0.002,0.845-0.016,1.275
		c-0.007,0.189-0.004,0.374-0.016,0.566c-0.026,0.445-0.078,0.903-0.132,1.362c-0.021,0.184-0.031,0.362-0.058,0.548
		c-0.091,0.647-0.207,1.307-0.355,1.983c-0.408,0.001-0.808,0.003-1.227,0.003c-1.147,0-2.332-0.005-3.561-0.014l-0.458-0.002
		c-7.317,0-15.164,1.402-23.166,4.029c0.317-6.027-1.393-11.404-5.11-16.01c-0.385-0.478-0.792-0.936-1.213-1.382
		c-0.382-0.412-0.782-0.808-1.188-1.197c-0.009-0.008-0.018-0.017-0.026-0.025c-0.471-0.451-0.957-0.887-1.457-1.308
		c-0.002-0.002-0.004-0.003-0.006-0.005c-4.02-3.387-8.902-5.855-13.703-7.639c-0.02-0.007-0.039-0.015-0.058-0.021
		c-0.533-0.198-1.062-0.385-1.592-0.566c-0.108-0.037-0.216-0.074-0.323-0.111c-0.473-0.159-0.941-0.312-1.409-0.458
		c-0.166-0.052-0.33-0.104-0.496-0.154c-0.421-0.129-0.839-0.254-1.255-0.374c-0.212-0.062-0.422-0.12-0.633-0.179
		c-0.37-0.103-0.738-0.205-1.102-0.3c-0.261-0.069-0.516-0.133-0.773-0.198c-0.31-0.078-0.62-0.158-0.924-0.231
		c-0.326-0.079-0.642-0.15-0.96-0.223c-0.229-0.052-0.464-0.108-0.689-0.158c-0.54-0.119-1.067-0.23-1.577-0.333
		C394.005,42.758,402.724,41.833,412,41.833z M377.868,46.13c0.096,0.01,0.21,0.021,0.339,0.036c0.026,0.003,0.06,0.006,0.088,0.01
		c0.104,0.011,0.215,0.024,0.336,0.038c0.052,0.006,0.109,0.013,0.164,0.019c0.113,0.014,0.232,0.028,0.358,0.044
		c0.066,0.008,0.135,0.017,0.204,0.026c0.131,0.017,0.268,0.034,0.41,0.053c0.076,0.01,0.153,0.021,0.232,0.032
		c0.15,0.021,0.309,0.043,0.47,0.066c0.082,0.012,0.163,0.023,0.248,0.036c0.187,0.027,0.383,0.057,0.583,0.088
		c0.069,0.011,0.134,0.02,0.204,0.031c0.552,0.086,1.15,0.186,1.789,0.299c0.084,0.015,0.173,0.032,0.259,0.047
		c0.233,0.042,0.471,0.086,0.715,0.132c0.115,0.022,0.233,0.045,0.351,0.068c0.224,0.043,0.451,0.088,0.683,0.135
		c0.132,0.027,0.267,0.055,0.401,0.083c0.225,0.046,0.452,0.095,0.683,0.145c0.141,0.03,0.282,0.061,0.426,0.093
		c0.237,0.053,0.479,0.107,0.724,0.164c0.141,0.033,0.281,0.064,0.424,0.098c0.269,0.063,0.541,0.13,0.815,0.198
		c0.12,0.029,0.238,0.058,0.358,0.088c0.796,0.2,1.613,0.418,2.445,0.655c0.129,0.037,0.26,0.077,0.39,0.114
		c0.286,0.083,0.573,0.167,0.862,0.256c0.159,0.048,0.319,0.099,0.479,0.149c0.265,0.083,0.529,0.167,0.797,0.253
		c0.17,0.056,0.342,0.113,0.513,0.17c0.26,0.086,0.519,0.175,0.779,0.265c0.175,0.061,0.349,0.122,0.524,0.184
		c0.264,0.095,0.529,0.192,0.795,0.291c0.169,0.063,0.338,0.125,0.507,0.19c0.286,0.109,0.572,0.223,0.858,0.337
		c0.146,0.059,0.293,0.115,0.439,0.175c0.43,0.176,0.859,0.356,1.287,0.544c0.023,0.01,0.047,0.021,0.07,0.032
		c0.404,0.178,0.808,0.362,1.209,0.551c0.142,0.067,0.282,0.138,0.424,0.206c0.281,0.136,0.562,0.272,0.841,0.414
		c0.165,0.083,0.328,0.169,0.491,0.255c0.256,0.133,0.511,0.268,0.763,0.406c0.169,0.093,0.337,0.187,0.504,0.281
		c0.246,0.139,0.489,0.279,0.731,0.423c0.166,0.098,0.332,0.197,0.497,0.298c0.243,0.149,0.483,0.301,0.723,0.456
		c0.157,0.101,0.314,0.2,0.469,0.303c0.258,0.171,0.512,0.348,0.764,0.526c0.129,0.091,0.26,0.179,0.388,0.271
		c0.375,0.271,0.744,0.549,1.105,0.835c0,0,0.001,0,0.001,0.001c0.287,0.227,0.564,0.464,0.842,0.701
		c0.095,0.081,0.194,0.158,0.288,0.24c0.35,0.307,0.69,0.622,1.022,0.944c0.016,0.016,0.033,0.03,0.049,0.045
		c0.695,0.678,1.35,1.391,1.954,2.14c3.479,4.312,4.919,9.428,4.334,15.202c-10.453,3.828-21.087,9.706-31.083,17.27
		c-0.637-9.607-4.188-17.196-10.597-22.572c-0.558-0.468-1.135-0.902-1.721-1.322c-0.242-0.175-0.484-0.347-0.73-0.515
		c-0.265-0.179-0.533-0.348-0.802-0.518c-0.688-0.441-1.389-0.856-2.103-1.244c-6.966-3.791-15.019-5.169-21.85-5.514
		c-0.056-0.003-0.112-0.007-0.168-0.01c-0.481-0.023-0.951-0.04-1.419-0.053c-0.212-0.006-0.424-0.013-0.633-0.018
		c-0.393-0.008-0.776-0.013-1.157-0.016c-0.283-0.002-0.561-0.002-0.838-0.001c-0.316,0.002-0.631,0.003-0.938,0.008
		c-0.353,0.005-0.691,0.015-1.03,0.024c-0.226,0.007-0.457,0.011-0.677,0.02c-0.557,0.021-1.097,0.045-1.609,0.075
		C349.876,55.988,362.649,50.009,377.868,46.13z M334.174,65.468c0.101-0.015,0.222-0.031,0.354-0.049
		c0.039-0.005,0.085-0.011,0.126-0.017c0.097-0.013,0.199-0.026,0.31-0.04c0.064-0.008,0.135-0.017,0.204-0.025
		c0.107-0.013,0.222-0.027,0.34-0.041c0.079-0.009,0.159-0.019,0.243-0.028c0.118-0.013,0.246-0.027,0.374-0.041
		c0.096-0.01,0.189-0.021,0.291-0.031c0.144-0.015,0.299-0.03,0.453-0.045c0.095-0.009,0.184-0.019,0.282-0.027
		c0.244-0.022,0.501-0.045,0.767-0.067c0.117-0.009,0.241-0.019,0.361-0.028c0.164-0.013,0.328-0.025,0.5-0.038
		c0.146-0.01,0.297-0.02,0.448-0.03c0.159-0.01,0.32-0.021,0.485-0.03c0.162-0.009,0.326-0.019,0.493-0.027
		c0.163-0.009,0.331-0.017,0.499-0.024c0.177-0.008,0.354-0.016,0.535-0.023c0.167-0.007,0.34-0.012,0.512-0.018
		c0.19-0.007,0.38-0.014,0.576-0.019c0.149-0.004,0.305-0.006,0.457-0.009c0.399-0.008,0.809-0.013,1.227-0.015
		c0.171,0,0.34-0.002,0.513-0.002c0.223,0,0.449,0.003,0.676,0.005c0.176,0.002,0.352,0.004,0.529,0.007
		c0.233,0.004,0.469,0.01,0.706,0.016c0.179,0.005,0.358,0.011,0.539,0.017c0.242,0.008,0.484,0.017,0.73,0.028
		c0.177,0.008,0.357,0.018,0.536,0.027c0.257,0.013,0.513,0.026,0.772,0.042c0.139,0.009,0.281,0.02,0.421,0.029
		c0.54,0.037,1.087,0.081,1.639,0.132c0.161,0.015,0.32,0.028,0.482,0.044c0.267,0.026,0.536,0.058,0.806,0.088
		c0.187,0.021,0.373,0.042,0.561,0.064c0.267,0.032,0.535,0.068,0.804,0.104c0.193,0.026,0.387,0.053,0.58,0.082
		c0.27,0.039,0.539,0.08,0.81,0.123c0.193,0.031,0.388,0.064,0.582,0.097c0.272,0.046,0.546,0.092,0.82,0.143
		c0.184,0.034,0.368,0.072,0.553,0.108c0.574,0.113,1.148,0.235,1.724,0.368c0.136,0.032,0.272,0.06,0.408,0.093
		c0.269,0.064,0.536,0.136,0.805,0.205c0.203,0.052,0.405,0.104,0.608,0.159c0.26,0.071,0.52,0.146,0.779,0.223
		c0.209,0.061,0.418,0.123,0.626,0.187c0.257,0.079,0.513,0.161,0.769,0.245c0.211,0.069,0.421,0.142,0.63,0.214
		c0.252,0.087,0.505,0.175,0.755,0.267c0.215,0.08,0.428,0.164,0.641,0.247c0.244,0.095,0.488,0.187,0.73,0.287
		c0.418,0.172,0.833,0.353,1.244,0.541c0.001,0,0.002,0.001,0.004,0.001c0.585,0.268,1.161,0.553,1.73,0.854
		c0.108,0.057,0.214,0.119,0.321,0.177c0.438,0.237,0.869,0.484,1.295,0.742c0.159,0.097,0.318,0.196,0.477,0.296
		c0.385,0.243,0.763,0.496,1.136,0.757c0.149,0.104,0.3,0.206,0.447,0.312c0.503,0.367,0.998,0.746,1.478,1.148
		c6.193,5.199,9.42,12.781,9.614,22.531c-1.593,1.274-3.168,2.585-4.72,3.943c-6.12,5.358-11.521,11.049-16.064,16.832
		c1.994-7.911,1.216-14.706-2.367-20.283c-0.254-0.396-0.523-0.779-0.801-1.156c-0.09-0.122-0.185-0.24-0.276-0.36
		c-0.194-0.253-0.392-0.503-0.596-0.749c-0.112-0.134-0.227-0.267-0.342-0.399c-0.199-0.227-0.401-0.45-0.608-0.67
		c-0.12-0.127-0.238-0.254-0.36-0.379c-0.229-0.234-0.466-0.462-0.705-0.688c-0.104-0.099-0.206-0.201-0.312-0.298
		c-0.338-0.309-0.684-0.61-1.039-0.903c-0.119-0.099-0.243-0.193-0.365-0.29c-0.246-0.197-0.493-0.393-0.747-0.583
		c-0.165-0.124-0.333-0.243-0.5-0.364c-0.22-0.157-0.439-0.312-0.663-0.464c-0.182-0.124-0.364-0.246-0.549-0.366
		c-0.219-0.143-0.441-0.282-0.664-0.42c-0.19-0.118-0.379-0.237-0.572-0.352c-0.235-0.14-0.476-0.274-0.715-0.41
		c-0.343-0.194-0.689-0.382-1.04-0.567c-0.229-0.121-0.459-0.243-0.692-0.36c-0.239-0.12-0.482-0.235-0.725-0.351
		c-0.194-0.093-0.389-0.187-0.586-0.277c-0.254-0.117-0.51-0.231-0.767-0.343c-0.186-0.082-0.372-0.162-0.559-0.241
		c-0.268-0.113-0.534-0.225-0.805-0.333c-0.171-0.069-0.344-0.136-0.516-0.203c-0.287-0.112-0.573-0.225-0.863-0.332
		c-0.573-0.212-1.15-0.414-1.732-0.608c-0.093-0.031-0.187-0.061-0.28-0.092c-0.495-0.163-0.993-0.32-1.493-0.47
		c-0.114-0.034-0.229-0.068-0.343-0.102c-0.498-0.146-0.997-0.288-1.497-0.422c-0.099-0.026-0.196-0.054-0.294-0.08
		c-0.572-0.152-1.146-0.297-1.72-0.434c-0.017-0.004-0.034-0.009-0.051-0.013c-1.231-0.294-2.463-0.555-3.687-0.787
		c-0.053-0.01-0.105-0.019-0.159-0.029c-0.534-0.101-1.065-0.195-1.595-0.285c-0.115-0.019-0.229-0.038-0.343-0.057
		c-0.474-0.078-0.943-0.152-1.411-0.222c-0.128-0.019-0.256-0.038-0.384-0.057c-0.47-0.068-0.937-0.133-1.4-0.193
		c-0.104-0.014-0.21-0.028-0.314-0.042c-1.146-0.146-2.268-0.271-3.355-0.375c-0.041-0.004-0.08-0.007-0.121-0.011
		c-0.482-0.046-0.958-0.087-1.426-0.125c-0.146-0.012-0.29-0.023-0.436-0.034c-0.36-0.028-0.717-0.055-1.068-0.079
		c-0.167-0.011-0.332-0.022-0.497-0.033c-0.326-0.021-0.647-0.041-0.965-0.058c-0.162-0.009-0.324-0.018-0.484-0.026
		c-0.321-0.017-0.636-0.031-0.946-0.045c-0.138-0.006-0.277-0.013-0.413-0.018c-0.435-0.018-0.859-0.033-1.269-0.045
		C318.015,77.799,324.23,71.995,334.174,65.468z M316.334,14.499c0.524,0,1.03,0.002,1.527,0.006
		c0.157,0.001,0.31,0.003,0.464,0.005c0.338,0.003,0.671,0.008,0.995,0.013c0.169,0.003,0.336,0.006,0.501,0.009
		c0.314,0.006,0.622,0.013,0.924,0.021c0.142,0.003,0.286,0.007,0.425,0.011c0.395,0.011,0.778,0.023,1.151,0.037
		c0.037,0.001,0.076,0.002,0.112,0.004c0.411,0.016,0.807,0.033,1.193,0.052c0.107,0.005,0.211,0.011,0.317,0.017
		c0.278,0.014,0.552,0.029,0.817,0.045c0.115,0.007,0.228,0.014,0.339,0.021c0.255,0.016,0.502,0.033,0.745,0.05
		c0.102,0.008,0.205,0.015,0.306,0.022c0.283,0.021,0.559,0.043,0.826,0.066c0.043,0.004,0.089,0.007,0.132,0.011
		c0.313,0.027,0.614,0.056,0.905,0.085c0.062,0.006,0.119,0.013,0.18,0.019c0.226,0.023,0.444,0.047,0.656,0.072
		c0.079,0.009,0.156,0.019,0.233,0.028c0.192,0.023,0.379,0.047,0.561,0.071c0.07,0.009,0.141,0.019,0.209,0.028
		c0.205,0.028,0.404,0.057,0.596,0.086c0.032,0.005,0.067,0.009,0.099,0.015c0.228,0.035,0.445,0.071,0.653,0.107
		c0.032,0.005,0.062,0.011,0.093,0.017c0.17,0.03,0.333,0.061,0.491,0.091c0.054,0.01,0.106,0.021,0.159,0.032
		c0.133,0.027,0.261,0.054,0.386,0.081c0.049,0.011,0.099,0.021,0.146,0.032c0.133,0.03,0.259,0.06,0.381,0.09
		c0.03,0.007,0.062,0.015,0.093,0.022c0.149,0.038,0.292,0.075,0.427,0.113c0.025,0.007,0.049,0.014,0.074,0.021
		c0.104,0.03,0.206,0.06,0.302,0.09c0.042,0.013,0.081,0.026,0.121,0.039c0.077,0.024,0.15,0.049,0.222,0.074
		c0.038,0.013,0.076,0.027,0.112,0.04c0.07,0.025,0.137,0.051,0.201,0.076c0.03,0.011,0.062,0.023,0.09,0.034
		c0.086,0.035,0.167,0.069,0.242,0.103c0.026,0.012,0.049,0.023,0.074,0.035c0.049,0.023,0.098,0.046,0.143,0.068
		c0.031,0.016,0.06,0.031,0.089,0.046c0.033,0.018,0.065,0.035,0.096,0.052c0.03,0.017,0.06,0.033,0.087,0.05
		c0.023,0.014,0.046,0.028,0.068,0.042c0.028,0.017,0.057,0.035,0.081,0.052c0.012,0.007,0.021,0.015,0.031,0.022
		c0.064,0.045,0.121,0.088,0.169,0.129c0.002,0.001,0.003,0.002,0.005,0.004v0c0.054,0.045,0.097,0.088,0.132,0.127
		c0.001,0.001,0.002,0.001,0.002,0.002c0.069,0.077,0.108,0.14,0.13,0.187c0.001,0.002,0.002,0.004,0.003,0.007
		c0.01,0.021,0.017,0.039,0.02,0.051c0.479,1.804-8.416,6.879-12.214,9.047l-0.733,0.418c-1.118,0.639-2.276,1.434-3.455,2.362
		c-0.182-0.478-0.385-0.934-0.6-1.377c-0.074-0.153-0.154-0.3-0.231-0.449c-0.146-0.281-0.297-0.556-0.455-0.823
		c-0.103-0.173-0.207-0.344-0.314-0.511c-0.145-0.225-0.295-0.442-0.448-0.657c-0.125-0.176-0.247-0.355-0.378-0.525
		c-0.124-0.161-0.256-0.312-0.385-0.467c-0.341-0.412-0.695-0.804-1.066-1.177c-0.068-0.068-0.134-0.14-0.203-0.207
		c-0.236-0.23-0.48-0.451-0.728-0.667c-0.061-0.053-0.121-0.106-0.183-0.159c-0.267-0.226-0.536-0.446-0.812-0.657
		c-0.002-0.001-0.003-0.002-0.005-0.003c-0.463-0.352-0.939-0.681-1.427-0.991c-0.017-0.011-0.034-0.022-0.052-0.033
		c-1.951-1.231-4.062-2.134-6.159-2.788c-0.09-0.028-0.179-0.054-0.269-0.082c-0.408-0.123-0.813-0.238-1.217-0.344
		c-0.129-0.034-0.256-0.067-0.384-0.1c-0.377-0.094-0.749-0.18-1.119-0.26c-0.125-0.027-0.251-0.057-0.375-0.082
		c-0.478-0.098-0.95-0.188-1.411-0.266C306.389,15.184,311.457,14.499,316.334,14.499z M293.13,18.863
		c0.085-0.003,0.201-0.005,0.327-0.008c0.037,0,0.079-0.001,0.119-0.002c0.11-0.001,0.236-0.002,0.37-0.002c0.047,0,0.09,0,0.14,0
		c0.186,0,0.39,0.002,0.612,0.007c0.034,0.001,0.072,0.002,0.107,0.003c0.191,0.004,0.397,0.011,0.613,0.019
		c0.073,0.003,0.146,0.006,0.222,0.009c0.225,0.01,0.46,0.022,0.706,0.037c0.048,0.003,0.093,0.005,0.143,0.008
		c0.293,0.019,0.602,0.042,0.92,0.07c0.075,0.006,0.153,0.014,0.229,0.021c0.256,0.023,0.518,0.05,0.786,0.08
		c0.096,0.011,0.19,0.021,0.287,0.033c0.695,0.083,1.429,0.188,2.188,0.322c0.104,0.019,0.209,0.039,0.314,0.058
		c0.3,0.056,0.604,0.117,0.911,0.182c0.096,0.02,0.191,0.04,0.288,0.061c0.393,0.087,0.788,0.181,1.188,0.284
		c0.068,0.018,0.138,0.039,0.207,0.057c0.333,0.089,0.667,0.185,1.002,0.286c0.116,0.035,0.232,0.071,0.35,0.108
		c0.335,0.106,0.671,0.22,1.005,0.34c0.073,0.026,0.146,0.05,0.219,0.077c0.396,0.147,0.792,0.305,1.185,0.473
		c0.102,0.043,0.201,0.091,0.303,0.135c0.303,0.135,0.604,0.277,0.902,0.425c0.112,0.056,0.226,0.112,0.337,0.17
		c0.384,0.2,0.765,0.408,1.137,0.632c0.001,0.001,0.003,0.002,0.005,0.003c0.014,0.008,0.026,0.018,0.04,0.026
		c0.328,0.2,0.649,0.412,0.966,0.632c0.105,0.074,0.209,0.152,0.312,0.229c0.227,0.166,0.449,0.335,0.668,0.512
		c0.111,0.091,0.222,0.183,0.332,0.276c0.214,0.184,0.423,0.375,0.628,0.57c0.094,0.09,0.19,0.178,0.282,0.271
		c0.289,0.29,0.571,0.589,0.837,0.906c0.004,0.004,0.007,0.009,0.011,0.013c0.262,0.312,0.509,0.641,0.746,0.98
		c0.075,0.107,0.145,0.22,0.217,0.33c0.163,0.248,0.32,0.501,0.47,0.762c0.074,0.13,0.146,0.263,0.218,0.397
		c0.142,0.27,0.274,0.547,0.401,0.832c0.057,0.127,0.116,0.25,0.169,0.38c0.171,0.416,0.33,0.843,0.467,1.291
		c-4.015,3.712-8.13,8.844-11.7,14.827c-0.31-0.443-0.632-0.864-0.959-1.275c-0.098-0.123-0.198-0.241-0.298-0.361
		c-0.247-0.298-0.5-0.588-0.757-0.87c-0.102-0.111-0.201-0.224-0.305-0.332c-0.343-0.362-0.692-0.712-1.052-1.046
		c-0.073-0.068-0.149-0.13-0.223-0.197c-0.294-0.266-0.593-0.523-0.896-0.771c-0.14-0.114-0.28-0.225-0.422-0.335
		c-0.257-0.2-0.517-0.393-0.778-0.581c-0.142-0.102-0.281-0.205-0.424-0.303c-0.37-0.252-0.744-0.495-1.124-0.725
		c-0.166-0.1-0.335-0.192-0.503-0.289c-0.239-0.138-0.48-0.273-0.725-0.402c-0.203-0.108-0.407-0.213-0.613-0.315
		c-0.215-0.107-0.433-0.208-0.65-0.309c-0.313-0.145-0.63-0.285-0.949-0.417c-0.267-0.111-0.534-0.222-0.805-0.325
		c-0.265-0.1-0.532-0.192-0.8-0.285c-0.163-0.056-0.325-0.112-0.489-0.166c-0.28-0.091-0.562-0.18-0.845-0.263
		c-0.128-0.038-0.257-0.072-0.385-0.108c-0.668-0.187-1.341-0.356-2.022-0.5c-1.322-0.281-2.667-0.484-4.022-0.62
		c-0.028-0.003-0.057-0.005-0.085-0.008c-0.638-0.063-1.278-0.111-1.92-0.145c-0.048-0.002-0.096-0.005-0.144-0.008
		c-2.021-0.101-4.049-0.068-6.054,0.069c-0.051,0.003-0.101,0.007-0.151,0.011c-0.615,0.043-1.228,0.096-1.837,0.158
		c-0.059,0.006-0.117,0.011-0.177,0.018c-1.322,0.138-2.628,0.314-3.905,0.522c-0.001,0-0.002,0-0.003,0
		c-0.604,0.099-1.2,0.205-1.791,0.316c-0.107,0.021-0.215,0.041-0.322,0.062c-0.501,0.096-0.996,0.196-1.484,0.3
		c-0.107,0.023-0.216,0.045-0.322,0.068c-1.155,0.25-2.275,0.518-3.348,0.796c-0.119,0.031-0.234,0.062-0.352,0.093
		c-0.401,0.106-0.797,0.212-1.184,0.32c-0.161,0.045-0.319,0.089-0.477,0.134c-0.352,0.1-0.695,0.2-1.033,0.3
		c-0.143,0.042-0.286,0.084-0.427,0.126c-0.46,0.139-0.911,0.277-1.344,0.415C269.511,29.991,281.357,23.039,293.13,18.863z
		 M252.675,44.223c0.068-0.029,0.172-0.073,0.286-0.12c0.035-0.015,0.073-0.03,0.112-0.046c0.102-0.042,0.225-0.092,0.354-0.144
		c0.055-0.022,0.105-0.042,0.165-0.066c0.152-0.061,0.327-0.13,0.509-0.201c0.099-0.039,0.206-0.08,0.313-0.121
		c0.122-0.047,0.254-0.097,0.387-0.147c0.219-0.083,0.454-0.17,0.701-0.262c0.127-0.046,0.252-0.093,0.386-0.142
		c0.188-0.068,0.387-0.139,0.589-0.21c0.095-0.033,0.192-0.067,0.29-0.102c0.713-0.25,1.501-0.516,2.357-0.791
		c0.066-0.021,0.135-0.043,0.202-0.064c0.918-0.292,1.906-0.59,2.958-0.886c0.03-0.009,0.061-0.017,0.091-0.026
		c3.483-0.979,7.622-1.909,11.963-2.415c1.622-0.189,3.27-0.323,4.926-0.372c0.039-0.001,0.079-0.001,0.118-0.002
		c1.342-0.036,2.687-0.019,4.021,0.063c0.112,0.007,0.224,0.015,0.335,0.023c0.859,0.06,1.714,0.143,2.56,0.26
		c0.006,0,0.013,0.001,0.019,0.002c0.001,0,0.001,0,0.002,0c0.363,0.05,0.724,0.109,1.083,0.17c0.189,0.033,0.377,0.068,0.565,0.104
		c0.535,0.101,1.066,0.216,1.593,0.344c0.245,0.06,0.49,0.119,0.733,0.185c0.294,0.079,0.586,0.164,0.877,0.253
		c0.31,0.095,0.617,0.198,0.923,0.304c0.349,0.121,0.693,0.249,1.035,0.383c0.331,0.131,0.659,0.267,0.983,0.412
		c0.215,0.096,0.43,0.192,0.642,0.295c0.464,0.224,0.923,0.46,1.37,0.716c0.151,0.086,0.298,0.181,0.447,0.271
		c0.373,0.225,0.739,0.46,1.1,0.708c0.138,0.095,0.277,0.188,0.414,0.286c0.452,0.329,0.893,0.677,1.322,1.045
		c0.114,0.098,0.225,0.201,0.337,0.302c0.387,0.347,0.765,0.71,1.13,1.093c0.067,0.07,0.138,0.136,0.205,0.208
		c0.412,0.445,0.808,0.918,1.189,1.412c0.091,0.117,0.18,0.236,0.268,0.355c0.385,0.518,0.76,1.053,1.109,1.625
		c-2.812,5.196-5.167,10.917-6.698,16.844c-0.606-0.496-1.218-0.962-1.833-1.415c-0.181-0.133-0.362-0.262-0.544-0.391
		c-0.468-0.334-0.938-0.656-1.411-0.966c-0.171-0.112-0.341-0.228-0.512-0.336c-0.607-0.387-1.219-0.757-1.833-1.107
		c-0.166-0.094-0.332-0.18-0.498-0.271c-0.462-0.255-0.925-0.501-1.39-0.735c-0.241-0.123-0.483-0.242-0.727-0.359
		c-0.422-0.203-0.845-0.396-1.27-0.584c-0.223-0.099-0.445-0.203-0.669-0.298c-0.572-0.241-1.146-0.466-1.721-0.68
		c-0.312-0.117-0.626-0.224-0.939-0.333c-0.308-0.106-0.616-0.21-0.925-0.31c-0.347-0.112-0.693-0.222-1.04-0.324
		c-0.245-0.072-0.491-0.137-0.736-0.205c-0.741-0.205-1.482-0.391-2.226-0.556c-0.146-0.032-0.292-0.068-0.438-0.099
		c-0.446-0.095-0.893-0.181-1.339-0.262c-0.131-0.024-0.262-0.047-0.393-0.069c-1.508-0.262-3.012-0.45-4.509-0.569
		c-0.009-0.001-0.018-0.001-0.026-0.002c-9.21-0.731-18.091,1.054-25.231,3.338c-0.039,0.012-0.077,0.025-0.116,0.038
		c-0.648,0.208-1.281,0.419-1.898,0.634c-0.068,0.024-0.137,0.047-0.205,0.071c-1.305,0.457-2.541,0.923-3.694,1.386
		c-0.076,0.03-0.146,0.06-0.222,0.09c-0.469,0.19-0.923,0.378-1.364,0.565c-0.144,0.061-0.284,0.121-0.424,0.182
		c-0.375,0.161-0.736,0.32-1.088,0.477c-0.131,0.059-0.264,0.117-0.392,0.175c-0.453,0.205-0.891,0.406-1.302,0.601
		C240.781,56.583,246.427,50.091,252.675,44.223z M232.724,68.538c0.066-0.039,0.148-0.085,0.236-0.135
		c0.025-0.015,0.054-0.031,0.081-0.046c0.074-0.042,0.156-0.088,0.243-0.137c0.029-0.016,0.057-0.032,0.088-0.049
		c0.122-0.068,0.253-0.141,0.398-0.219c0.005-0.002,0.011-0.006,0.016-0.009c0.14-0.076,0.292-0.157,0.451-0.242
		c0.031-0.017,0.062-0.033,0.094-0.05c0.154-0.082,0.317-0.167,0.489-0.257c0.02-0.01,0.038-0.02,0.058-0.03
		c0.399-0.207,0.844-0.433,1.329-0.672c0.022-0.011,0.045-0.022,0.067-0.033c0.744-0.366,1.583-0.764,2.511-1.181
		c0.016-0.007,0.031-0.014,0.047-0.021c0.441-0.198,0.905-0.401,1.384-0.606c0.223-0.096,0.462-0.193,0.692-0.289
		c0.268-0.112,0.531-0.224,0.81-0.336c0.262-0.106,0.539-0.213,0.81-0.32c0.265-0.104,0.525-0.208,0.799-0.313
		c0.283-0.108,0.58-0.216,0.872-0.324c0.279-0.104,0.554-0.207,0.841-0.309c0.299-0.107,0.609-0.212,0.917-0.318
		c0.295-0.102,0.587-0.204,0.89-0.304c0.313-0.104,0.636-0.205,0.956-0.307c0.311-0.099,0.621-0.199,0.938-0.295
		c0.324-0.099,0.657-0.194,0.987-0.29c0.329-0.096,0.657-0.191,0.993-0.284c0.331-0.091,0.668-0.179,1.004-0.267
		c0.348-0.091,0.697-0.182,1.051-0.269c0.337-0.083,0.68-0.162,1.022-0.241c0.365-0.084,0.731-0.167,1.102-0.247
		c0.342-0.073,0.688-0.142,1.035-0.211c0.383-0.076,0.767-0.15,1.154-0.22c0.346-0.062,0.693-0.121,1.043-0.178
		c0.397-0.065,0.798-0.127,1.2-0.186c0.35-0.051,0.7-0.098,1.053-0.143c0.411-0.053,0.823-0.101,1.237-0.146
		c0.354-0.038,0.708-0.073,1.064-0.104c0.422-0.038,0.845-0.07,1.271-0.099c0.355-0.024,0.711-0.045,1.069-0.063
		c0.432-0.021,0.865-0.035,1.301-0.045c0.356-0.009,0.714-0.017,1.073-0.019c0.439-0.002,0.882,0.004,1.324,0.014
		c0.358,0.007,0.717,0.015,1.077,0.029c0.151,0.006,0.305,0.019,0.456,0.027c0.541,0.027,1.081,0.049,1.624,0.095
		c0.016,0.001,0.032,0.002,0.049,0.004c1.609,0.136,3.228,0.355,4.846,0.668c0.065,0.013,0.131,0.025,0.196,0.038
		c0.497,0.099,0.993,0.205,1.49,0.321c0.031,0.008,0.063,0.014,0.095,0.021c1.057,0.25,2.111,0.545,3.163,0.882
		c0.098,0.031,0.194,0.064,0.292,0.096c0.425,0.14,0.849,0.288,1.271,0.443c0.106,0.039,0.212,0.077,0.317,0.116
		c1.021,0.383,2.036,0.812,3.046,1.289c0.109,0.052,0.219,0.107,0.328,0.16c0.388,0.188,0.775,0.383,1.161,0.585
		c0.141,0.074,0.282,0.149,0.423,0.225c0.392,0.211,0.781,0.431,1.17,0.658c0.103,0.06,0.206,0.117,0.308,0.178
		c0.487,0.29,0.972,0.592,1.453,0.907c0.092,0.06,0.183,0.125,0.273,0.186c0.387,0.257,0.771,0.522,1.153,0.796
		c0.149,0.107,0.298,0.217,0.447,0.326c0.34,0.25,0.679,0.508,1.016,0.773c0.141,0.11,0.281,0.219,0.421,0.331
		c0.464,0.374,0.926,0.756,1.384,1.157c-0.839,4.135-1.241,8.336-1.1,12.5c-5.169,1.461-9.8,1.974-13.645,2.019
		c-0.124-0.114-0.277-0.25-0.446-0.399c-0.075-0.065-0.159-0.137-0.242-0.208c-0.104-0.088-0.208-0.177-0.323-0.273
		c-0.128-0.107-0.259-0.215-0.402-0.332c-0.074-0.061-0.153-0.123-0.232-0.186c-2.888-2.316-8.579-6.177-16.197-8.064
		c-0.007-0.001-0.013-0.003-0.02-0.005c-0.65-0.161-1.312-0.307-1.99-0.436c-0.098-0.019-0.197-0.034-0.295-0.052
		c-0.599-0.109-1.203-0.211-1.822-0.293c-0.292-0.039-0.593-0.063-0.889-0.096c-0.46-0.049-0.915-0.104-1.385-0.137
		C256.396,73.033,255.581,73,254.75,73c-11.286,0-21.781,2.978-26.959,4.721C229.234,74.612,230.893,71.547,232.724,68.538z
		 M182.405,142.518c4.024-4.644,7.778-8.979,11.049-13.119c5.74-6.918,18.032-19.622,26.173-19.222
		c2.32,0.115,4.152,1.298,5.602,3.617c6.161,9.857,1.587,29.645-9.337,48.095c-13.805-13.773-32.609-12.128-41.148-10.439
		C177.342,148.363,179.905,145.403,182.405,142.518z M150.102,174.835c3.639-8.682,11.319-15.761,21.072-19.424
		c0.704-0.23,26.244-8.367,43.099,9.122c-3.109,4.937-6.663,9.736-10.58,14.178c-1.185-2.211-4.308-3.794-7.985-3.794
		c-4.694,0-8.5,2.574-8.5,5.75s3.806,5.75,8.5,5.75c0.136,0,0.269-0.009,0.404-0.014c-9.043,8.208-20.151,15.155-32.018,21.093
		c-9.194-3.6-13.296-9.487-13.763-10.197C147.099,189.96,147.017,182.194,150.102,174.835z M21.834,247.998
		c0-6.097,13.151-7.795,28.38-9.762c12.956-1.673,27.64-3.57,40.945-8.487c1.87-0.65,44.507-15.575,57.729-29.365
		c1.711,2.116,5.403,5.898,11.661,8.849c-16.015,7.66-33.138,13.572-48.251,18.337c-28.101,8.861-38.832,15.752-56.61,27.168
		c-2.782,1.786-4.994,3.683-6.633,5.679c-4.432-0.273-6.966,0.57-7.994,1.039C38.256,261.099,21.834,258.552,21.834,247.998z
		 M110.871,387.77c-0.038-0.052-0.083-0.095-0.127-0.14c-0.012-0.013-0.019-0.029-0.032-0.042
		c-0.213-0.207-20.757-20.318-21.518-35.688c2.562-0.702,8.25-3.269,16.672-12.647c2.518-2.804,4.801-4.834,6.922-6.308
		c-1.164,9.74-2.303,39.555,22.387,63.061C115.519,393.185,110.994,387.921,110.871,387.77z M209,356.75
		c4.938,0,19.209-0.482,34.612-5.369c-1.081,24.352-21.057,40.086-55.997,44.839c0.828-24.094-3.414-37.739-6.112-43.855
		C188.224,355.009,196.496,356.75,209,356.75z M127.804,329.207c0.819,0.021,1.632,0.043,2.446,0.043
		c6.16,0,19.308,5.317,33.498,13.548c1.411,0.818,2.761,1.627,4.082,2.418c3.104,1.859,6.083,3.641,9.323,5.226
		c1.259,2.077,8.576,15.574,7.448,46.159c-6.548,0.755-13.581,1.149-21.1,1.149c-1.121,0-2.216-0.007-3.291-0.02
		c-0.972-0.011-1.921-0.028-2.856-0.05c-0.086-0.002-0.176-0.003-0.262-0.005c-1.991-0.046-3.892-0.115-5.72-0.202
		c-0.048-0.002-0.098-0.004-0.145-0.006c-0.006-0.001-0.012-0.001-0.017-0.001c-1.959-0.095-3.827-0.21-5.607-0.345
		c-0.026-0.002-0.055-0.004-0.081-0.006c-0.832-0.063-1.64-0.132-2.434-0.202c-0.071-0.007-0.146-0.013-0.217-0.019
		c-0.855-0.078-1.688-0.16-2.5-0.246c-29.865-25.45-25.18-60.409-24.28-65.633c1.285-0.606,2.518-1.024,3.716-1.305
		c0.089-0.012,0.175-0.03,0.258-0.057C122.734,329.071,125.241,329.136,127.804,329.207z M118.17,327.061
		c-1.337,0.383-2.727,0.922-4.178,1.679c-0.019,0.011-0.04,0.02-0.058,0.031c-3.116,1.635-6.516,4.263-10.3,8.478
		c-0.483,0.538-0.95,1.038-1.413,1.529c-0.153,0.161-0.309,0.327-0.459,0.484c-0.349,0.363-0.688,0.706-1.025,1.043
		c-0.278,0.277-0.552,0.549-0.823,0.811c-0.004,0.004-0.008,0.008-0.012,0.012c-0.008,0.008-0.016,0.015-0.024,0.022
		c-0.297,0.287-0.589,0.564-0.877,0.832c-4.313,4.012-7.483,5.793-9.369,6.572c-0.006,0.002-0.013,0.005-0.019,0.008
		c-0.159,0.065-0.306,0.122-0.447,0.175c-0.038,0.014-0.077,0.028-0.113,0.042c-0.118,0.042-0.228,0.08-0.332,0.114
		c-0.051,0.017-0.101,0.032-0.148,0.047c-0.083,0.025-0.163,0.05-0.235,0.07c-0.062,0.017-0.118,0.031-0.172,0.045
		c-0.047,0.012-0.098,0.025-0.14,0.035c-0.089,0.02-0.169,0.037-0.23,0.048c-27.876-7.71-57.629-42.467-57.629-61.286
		c0-18.798,11.215-23.268,11.686-23.446c0.039-0.014,0.066-0.043,0.103-0.06c0.051-0.022,0.104-0.035,0.153-0.063
		c0.018-0.011,1.553-0.867,4.989-0.917c-0.846,1.631-1.348,3.317-1.483,5.057c-0.474,6.062,3.567,10.697,4.955,12.1
		c0.427,4.084,2.833,9.464,10.13,15.625c0.331,0.279,0.682,0.55,1.049,0.815c0.132,0.095,0.275,0.186,0.411,0.279
		c0.241,0.165,0.482,0.331,0.737,0.491c0.182,0.113,0.373,0.224,0.561,0.335c0.222,0.131,0.443,0.262,0.674,0.389
		c0.223,0.123,0.453,0.242,0.684,0.362c0.208,0.107,0.417,0.214,0.632,0.318c0.262,0.128,0.529,0.254,0.8,0.378
		c0.191,0.087,0.384,0.173,0.579,0.258c0.305,0.133,0.614,0.265,0.931,0.394c0.161,0.065,0.325,0.129,0.489,0.193
		c0.359,0.141,0.721,0.28,1.093,0.416c0.104,0.037,0.212,0.074,0.317,0.111c0.43,0.153,0.863,0.305,1.309,0.45
		c0.891,0.292,1.814,0.568,2.761,0.832c0.036,0.01,0.072,0.021,0.108,0.03c0.949,0.263,1.922,0.511,2.919,0.746
		c0.03,0.008,0.06,0.014,0.09,0.021c2.001,0.47,4.09,0.888,6.239,1.258c0.062,0.011,0.125,0.021,0.188,0.032
		c2.122,0.362,4.297,0.679,6.502,0.955c0.089,0.011,0.177,0.022,0.266,0.033c2.183,0.27,4.389,0.501,6.596,0.697
		c0.11,0.01,0.22,0.02,0.33,0.029c2.188,0.191,4.371,0.351,6.526,0.48c0.121,0.007,0.242,0.015,0.363,0.022
		c1.051,0.062,2.093,0.117,3.126,0.167c0.12,0.005,0.238,0.011,0.357,0.016c0.957,0.045,1.903,0.084,2.837,0.118
		c0.112,0.005,0.226,0.01,0.338,0.014c0.979,0.035,1.943,0.064,2.893,0.09c0.182,0.005,0.359,0.009,0.54,0.014
		c0.873,0.021,1.732,0.041,2.573,0.056c0.08,0.001,0.161,0.003,0.24,0.005c0.896,0.015,1.768,0.025,2.622,0.033
		c0.191,0.002,0.379,0.003,0.568,0.004c0.839,0.007,1.665,0.011,2.456,0.012C120.986,310.358,118.59,317.382,118.17,327.061z
		 M210.787,289.959c-1.714,3.255-12.392,13.875-77.849,13.876c-0.041,0.002-4.127,0.168-10.275,0.168
		c-14.435,0-49.18-0.989-60.028-10.149c-6.611-5.582-9.816-11.353-9.025-16.247c0.498-3.078,2.509-5.171,4.281-5.88
		c0.044-0.018,0.099-0.026,0.167-0.026c1.051,0,3.338,1.65,5.987,3.562c9.04,6.521,27.85,20.091,66.604,20.572
		c28.942,0.371,47.974-6.131,60.453-10.386c5.88-2.005,10.524-3.589,13.806-3.589c2.361,0,3.913,0.795,5.189,2.656
		C211.45,286.49,211.676,288.271,210.787,289.959z M387.722,302.618c-0.02-0.021-0.027-0.047-0.048-0.065
		c-0.275-0.249-27.586-25.419-30.511-67.989c-3.058-44.51-38.542-112.729-65.163-112.729c-27.4,0-59.833,49.688-59.833,91.666
		l0.003,5.196c0.037,37.843,0.054,61.1-18.125,67.217c-0.26-0.965-0.724-1.999-1.474-3.094c-1.827-2.664-4.333-3.959-7.664-3.959
		c-3.779,0-8.391,1.572-14.774,3.749c-12.287,4.19-31.026,10.595-59.447,10.226c-1.054-0.013-2.086-0.039-3.108-0.07
		c-0.306-0.01-0.608-0.021-0.912-0.032c-0.764-0.028-1.52-0.062-2.266-0.1c-0.276-0.014-0.554-0.026-0.827-0.042
		c-0.948-0.053-1.882-0.113-2.801-0.183c-0.277-0.021-0.548-0.045-0.822-0.067c-0.662-0.054-1.317-0.11-1.965-0.172
		c-0.36-0.034-0.718-0.069-1.074-0.105c-0.597-0.061-1.185-0.127-1.769-0.194c-0.358-0.041-0.718-0.081-1.071-0.125
		c-0.733-0.091-1.455-0.187-2.168-0.287c-0.427-0.061-0.847-0.124-1.266-0.188c-0.388-0.059-0.773-0.118-1.156-0.18
		c-0.452-0.073-0.904-0.146-1.349-0.223c-0.281-0.049-0.555-0.1-0.833-0.149c-0.93-0.168-1.844-0.342-2.739-0.525
		c-0.183-0.037-0.367-0.073-0.548-0.111c-0.528-0.111-1.05-0.225-1.566-0.341c-0.142-0.031-0.282-0.063-0.422-0.096
		c-1.712-0.392-3.358-0.811-4.939-1.253c-0.021-0.006-0.043-0.012-0.064-0.019c-0.008-0.002-0.016-0.004-0.024-0.007
		c-9.869-2.772-17.228-6.442-22.83-9.872c-0.002-0.001-0.003-0.002-0.005-0.004c-0.542-0.331-1.064-0.659-1.574-0.984
		c-0.032-0.021-0.065-0.041-0.097-0.062c-1.032-0.661-2-1.309-2.908-1.934c-0.022-0.016-0.044-0.03-0.066-0.046
		c-0.404-0.278-0.794-0.551-1.175-0.818c-0.101-0.071-0.201-0.142-0.3-0.212c-0.311-0.221-0.615-0.437-0.912-0.648
		c-0.097-0.069-0.196-0.141-0.291-0.209c-0.355-0.255-0.704-0.506-1.038-0.747c-3.569-2.575-5.723-4.129-7.743-4.129
		c-0.45,0-0.881,0.081-1.281,0.241c-2.19,0.876-4.919,3.281-5.9,7.212c-1.241-1.832-2.513-4.491-2.269-7.519
		c0.326-4.047,3.254-7.873,8.703-11.373c18.166-11.665,28.172-18.091,55.891-26.831c28.438-8.967,63.949-21.968,86.329-43.09
		c6.529-6.163,12.625-13.815,17.69-21.969c0.154-0.157,0.261-0.338,0.333-0.534c11.688-19.036,17.678-40.698,10.219-52.632
		c-1.98-3.169-4.671-4.859-7.998-5.023c-5.471-0.271-11.841,3.835-17.328,8.604c1.098-2.214,2.185-4.669,3.326-7.268
		c4.652-10.593,9.926-22.6,19.813-26.804C225.995,81.549,239.891,76,254.75,76c0.718,0,1.422,0.031,2.118,0.077
		c0.208,0.014,0.412,0.033,0.618,0.051c0.507,0.043,1.008,0.096,1.502,0.161c0.198,0.026,0.397,0.051,0.594,0.08
		c0.614,0.092,1.221,0.197,1.813,0.318c0.043,0.009,0.088,0.016,0.131,0.024c0.662,0.139,1.309,0.297,1.942,0.468
		c0.117,0.032,0.232,0.067,0.349,0.1c0.526,0.147,1.044,0.304,1.55,0.471c0.111,0.037,0.224,0.073,0.334,0.11
		c0.468,0.159,0.926,0.324,1.374,0.496c0.252,0.096,0.494,0.198,0.739,0.298c0.197,0.08,0.398,0.157,0.591,0.239
		c0.205,0.087,0.4,0.177,0.6,0.266c0.225,0.1,0.453,0.198,0.672,0.299c0.221,0.103,0.432,0.209,0.646,0.314
		c0.167,0.082,0.339,0.162,0.502,0.245c0.012,0.006,0.024,0.012,0.036,0.018c0.388,0.196,0.766,0.395,1.132,0.594
		c0.003,0.001,0.005,0.002,0.008,0.004c1.136,0.619,2.166,1.247,3.075,1.848c0.072,0.047,0.146,0.095,0.216,0.142
		c0.375,0.25,0.734,0.497,1.065,0.733c-4.132-0.409-6.548-1.249-6.599-1.267c-0.775-0.279-1.636,0.122-1.919,0.899
		c-0.282,0.779,0.12,1.639,0.898,1.922c0.297,0.107,4.796,1.691,12.081,1.691c4.425,0,9.881-0.589,16.042-2.444
		c5.312-0.152,9.309-0.764,12.193-1.438c1.907-0.083,37.896-1.411,48.562,15.2c4.691,7.306,3.812,17.243-2.614,29.536
		c-0.032,0.062-0.053,0.125-0.076,0.189c-5.421,9.266-8.426,18.377-8.426,26.354c0,34.135,28.345,79.598,72.212,115.821
		c22.881,18.895,42.341,28.955,55.217,35.613c11.457,5.923,18.373,9.499,18.239,14.188c-0.261,9.131-24.645,11.543-37.501,11.543
		c-11.86,0-51.722-2.037-66.697-28.244C387.904,302.804,387.813,302.71,387.722,302.618z"/>
</g>
</svg>
